<svg width="1728" height="995" viewBox="0 0 1728 995" fill="none" xmlns="http://www.w3.org/2000/svg">
<foreignObject x="-3" y="-3" width="1734" height="1001"><div xmlns="http://www.w3.org/1999/xhtml" style="backdrop-filter:blur(1.5px);clip-path:url(#bgblur_0_485_5415_clip_path);height:100%;width:100%"></div></foreignObject><path data-figma-bg-blur-radius="3" d="M0 12C0 5.37257 5.37258 0 12 0H1716C1722.63 0 1728 5.37258 1728 12V983C1728 989.627 1722.63 995 1716 995H12C5.37254 995 0 989.627 0 983V12Z" fill="url(#paint0_linear_485_5415)" fill-opacity="0.5"/>
<defs>
<clipPath id="bgblur_0_485_5415_clip_path" transform="translate(3 3)"><path d="M0 12C0 5.37257 5.37258 0 12 0H1716C1722.63 0 1728 5.37258 1728 12V983C1728 989.627 1722.63 995 1716 995H12C5.37254 995 0 989.627 0 983V12Z"/>
</clipPath><linearGradient id="paint0_linear_485_5415" x1="1034.73" y1="-715.842" x2="218.987" y2="-37.0538" gradientUnits="userSpaceOnUse">
<stop stop-color="#1B3571" stop-opacity="0"/>
<stop offset="0.543484" stop-color="#284FA8" stop-opacity="0.543484"/>
<stop offset="1" stop-color="#3465D7"/>
</linearGradient>
</defs>
</svg>
