<svg width="270" height="354" viewBox="0 0 270 354" fill="none" xmlns="http://www.w3.org/2000/svg">
<g filter="url(#filter0_dd_471_5239)">
<path fill-rule="evenodd" clip-rule="evenodd" d="M35.1455 258.244C32.2383 255.649 28.4282 254.296 24.5325 254.479C20.5881 254.665 16.8803 256.41 14.223 259.329L13.7783 259.818C11.121 262.738 9.73157 266.593 9.91741 270.537C10.1022 274.481 11.8474 278.19 14.7668 280.847L76.8056 337.311C79.725 339.969 83.5816 341.358 87.5249 341.172C91.4693 340.987 95.1771 339.241 97.8344 336.322L98.2791 335.833C100.936 332.913 102.326 329.058 102.14 325.114C101.955 321.17 100.21 317.461 97.2906 314.804L51.7264 273.334C51.2029 272.857 51.1651 272.044 51.6419 271.52C52.1195 270.996 52.932 270.958 53.4555 271.434L99.0197 312.904C102.443 316.02 104.489 320.369 104.706 324.993C104.925 329.618 103.295 334.139 100.179 337.563L99.7346 338.051C96.6186 341.475 92.2706 343.521 87.6456 343.738C83.0218 343.955 78.5002 342.327 75.0767 339.211L13.0379 282.746C9.6143 279.63 7.56877 275.282 7.35137 270.658C7.1329 266.033 8.76199 261.512 11.878 258.088L12.3228 257.6C15.4388 254.176 19.7869 252.13 24.4118 251.913C29.0356 251.696 33.5574 253.324 36.9809 256.44C37.0596 256.511 37.1272 256.591 37.1833 256.674C43.0818 263.533 77.2838 303.357 77.2838 303.357C79.6251 306.083 80.9091 309.517 80.8709 312.901C80.8302 316.367 79.4133 319.492 76.958 321.602L76.6218 321.891C74.1665 324 70.8623 324.93 67.4298 324.446C64.0795 323.974 60.8783 322.187 58.537 319.462L30.6979 287.055C30.2349 286.516 30.2973 285.705 30.8344 285.243C31.3725 284.782 32.1839 284.842 32.6459 285.38L60.486 317.788C62.41 320.028 65.0344 321.514 67.7875 321.902C70.4592 322.278 73.0373 321.583 74.9485 319.942L75.2842 319.653C77.1953 318.012 78.2705 315.567 78.3022 312.871C78.3336 310.09 77.2606 307.272 75.3355 305.03C75.3355 305.03 40.8459 264.873 35.163 258.264C35.1572 258.257 35.1513 258.251 35.1455 258.244Z" fill="#3A5EBB"/>
</g>
<g filter="url(#filter1_dd_471_5239)">
<path fill-rule="evenodd" clip-rule="evenodd" d="M91.2526 227.283C87.3607 227.09 83.5454 228.429 80.6291 231.018C77.6759 233.64 75.8866 237.326 75.6522 241.267L75.613 241.927C75.3787 245.868 76.7186 249.74 79.3403 252.693C81.9606 255.646 85.6482 257.436 89.5887 257.671L173.328 262.65C177.269 262.884 181.142 261.543 184.094 258.922C187.047 256.301 188.837 252.614 189.071 248.673L189.11 248.014C189.345 244.073 188.005 240.2 185.383 237.247C182.763 234.295 179.075 232.504 175.135 232.27L113.633 228.613C112.926 228.571 112.386 227.962 112.428 227.255C112.47 226.546 113.078 226.007 113.785 226.049L175.287 229.706C179.908 229.98 184.231 232.08 187.304 235.542C190.379 239.004 191.95 243.545 191.675 248.166L191.636 248.826C191.361 253.447 189.263 257.77 185.8 260.843C182.338 263.916 177.797 265.489 173.176 265.214L89.4363 260.235C84.8152 259.96 80.4923 257.86 77.4192 254.399C74.3447 250.937 72.7733 246.396 73.048 241.774L73.0873 241.115C73.362 236.494 75.4606 232.17 78.9237 229.097C82.3853 226.024 86.9266 224.451 91.5477 224.726C91.6538 224.733 91.7563 224.752 91.8523 224.781C100.75 226.414 152.376 235.927 152.376 235.927C155.91 236.577 159.066 238.443 161.161 241.1C163.306 243.823 164.167 247.146 163.581 250.329L163.501 250.765C162.914 253.948 160.927 256.747 157.952 258.526C155.049 260.263 151.435 260.883 147.902 260.233L105.885 252.497C105.187 252.368 104.726 251.698 104.853 251.001C104.982 250.304 105.652 249.842 106.349 249.97L148.367 257.706C151.271 258.241 154.247 257.749 156.633 256.322C158.948 254.936 160.518 252.777 160.975 250.3L161.055 249.864C161.511 247.387 160.812 244.809 159.143 242.69C157.422 240.507 154.817 238.987 151.911 238.452C151.911 238.452 99.8514 228.861 91.2786 227.288C91.27 227.286 91.2613 227.285 91.2526 227.283Z" fill="#7AA3FD"/>
</g>
<g clip-path="url(#clip0_471_5239)">
<path fill-rule="evenodd" clip-rule="evenodd" d="M165.247 53.948C161.911 55.9631 159.496 59.2062 158.526 62.9836C157.542 66.8079 158.119 70.865 160.128 74.2637L160.464 74.8325C162.473 78.2312 165.748 80.6934 169.573 81.6763C173.396 82.6599 177.454 82.0832 180.853 80.0748L253.071 37.3949C256.47 35.3865 258.932 32.1094 259.915 28.2859C260.898 24.4615 260.321 20.4044 258.312 17.0058L257.976 16.437C255.968 13.0383 252.692 10.576 248.867 9.59315C245.044 8.60951 240.986 9.18623 237.587 11.1946L184.547 42.5407C183.937 42.9009 183.149 42.6978 182.789 42.0878C182.428 41.4771 182.63 40.6893 183.24 40.3292L236.28 8.98308C240.266 6.62783 245.024 5.95252 249.507 7.10517C253.991 8.25708 257.833 11.1442 260.188 15.1297L260.524 15.6985C262.88 19.6839 263.556 24.4415 262.402 28.9255C261.25 33.4087 258.363 37.251 254.378 39.6063L182.16 82.2862C178.174 84.6414 173.416 85.3169 168.933 84.1643C164.449 83.0124 160.607 80.1252 158.252 76.1398L157.916 75.571C155.56 71.5856 154.884 66.8279 156.038 62.344C157.19 57.8608 160.077 54.0182 164.062 51.663C164.153 51.6089 164.249 51.5675 164.345 51.5384C172.636 47.919 220.761 26.948 220.761 26.948C224.054 25.5121 227.715 25.2955 230.937 26.3275C234.238 27.3861 236.808 29.66 238.102 32.6271L238.279 33.0336C239.573 36.0008 239.489 39.4322 238.017 42.5706C236.58 45.6338 233.931 48.1675 230.637 49.6034L191.473 66.6754C190.822 66.9595 190.066 66.6612 189.782 66.0119C189.499 65.3618 189.796 64.6042 190.446 64.3208L229.611 47.2481C232.318 46.0684 234.51 43.9974 235.691 41.4802C236.836 39.0372 236.931 36.3689 235.924 34.0596L235.747 33.6537C234.741 31.3443 232.721 29.5974 230.153 28.7736C227.504 27.9256 224.495 28.1218 221.787 29.3023C221.787 29.3023 173.259 50.4501 165.271 53.9372C165.263 53.9408 165.255 53.9444 165.247 53.948Z" fill="#D0F65E"/>
</g>
<defs>
<filter id="filter0_dd_471_5239" x="1.33192" y="249.894" width="109.394" height="103.863" filterUnits="userSpaceOnUse" color-interpolation-filters="sRGB">
<feFlood flood-opacity="0" result="BackgroundImageFix"/>
<feColorMatrix in="SourceAlpha" type="matrix" values="0 0 0 0 0 0 0 0 0 0 0 0 0 0 0 0 0 0 127 0" result="hardAlpha"/>
<feMorphology radius="2" operator="erode" in="SourceAlpha" result="effect1_dropShadow_471_5239"/>
<feOffset dy="2"/>
<feGaussianBlur stdDeviation="2"/>
<feComposite in2="hardAlpha" operator="out"/>
<feColorMatrix type="matrix" values="0 0 0 0 0.0627451 0 0 0 0 0.0941176 0 0 0 0 0.156863 0 0 0 0.06 0"/>
<feBlend mode="normal" in2="BackgroundImageFix" result="effect1_dropShadow_471_5239"/>
<feColorMatrix in="SourceAlpha" type="matrix" values="0 0 0 0 0 0 0 0 0 0 0 0 0 0 0 0 0 0 127 0" result="hardAlpha"/>
<feMorphology radius="2" operator="erode" in="SourceAlpha" result="effect2_dropShadow_471_5239"/>
<feOffset dy="4"/>
<feGaussianBlur stdDeviation="4"/>
<feComposite in2="hardAlpha" operator="out"/>
<feColorMatrix type="matrix" values="0 0 0 0 0.0627451 0 0 0 0 0.0941176 0 0 0 0 0.156863 0 0 0 0.1 0"/>
<feBlend mode="normal" in2="effect1_dropShadow_471_5239" result="effect2_dropShadow_471_5239"/>
<feBlend mode="normal" in="SourceGraphic" in2="effect2_dropShadow_471_5239" result="shape"/>
</filter>
<filter id="filter1_dd_471_5239" x="67.0172" y="222.695" width="130.689" height="52.5494" filterUnits="userSpaceOnUse" color-interpolation-filters="sRGB">
<feFlood flood-opacity="0" result="BackgroundImageFix"/>
<feColorMatrix in="SourceAlpha" type="matrix" values="0 0 0 0 0 0 0 0 0 0 0 0 0 0 0 0 0 0 127 0" result="hardAlpha"/>
<feMorphology radius="2" operator="erode" in="SourceAlpha" result="effect1_dropShadow_471_5239"/>
<feOffset dy="2"/>
<feGaussianBlur stdDeviation="2"/>
<feComposite in2="hardAlpha" operator="out"/>
<feColorMatrix type="matrix" values="0 0 0 0 0.0627451 0 0 0 0 0.0941176 0 0 0 0 0.156863 0 0 0 0.06 0"/>
<feBlend mode="normal" in2="BackgroundImageFix" result="effect1_dropShadow_471_5239"/>
<feColorMatrix in="SourceAlpha" type="matrix" values="0 0 0 0 0 0 0 0 0 0 0 0 0 0 0 0 0 0 127 0" result="hardAlpha"/>
<feMorphology radius="2" operator="erode" in="SourceAlpha" result="effect2_dropShadow_471_5239"/>
<feOffset dy="4"/>
<feGaussianBlur stdDeviation="4"/>
<feComposite in2="hardAlpha" operator="out"/>
<feColorMatrix type="matrix" values="0 0 0 0 0.0627451 0 0 0 0 0.0941176 0 0 0 0 0.156863 0 0 0 0.1 0"/>
<feBlend mode="normal" in2="effect1_dropShadow_471_5239" result="effect2_dropShadow_471_5239"/>
<feBlend mode="normal" in="SourceGraphic" in2="effect2_dropShadow_471_5239" result="shape"/>
</filter>
<clipPath id="clip0_471_5239">
<rect width="119" height="35.7617" fill="white" transform="translate(149.035 60.5444) rotate(-30.5824)"/>
</clipPath>
</defs>
</svg>
