<svg width="95" height="88" viewBox="0 0 95 88" fill="none" xmlns="http://www.w3.org/2000/svg">
<g filter="url(#filter0_dd_261_4643)">
<path fill-rule="evenodd" clip-rule="evenodd" d="M12.6101 53.6024C10.1321 55.6175 8.54094 58.5248 8.18286 61.7014C7.81969 64.9175 8.74972 68.1451 10.7668 70.6753L11.1044 71.0988C13.1215 73.629 16.0606 75.2549 19.2768 75.6175C22.4921 75.981 25.7207 75.0511 28.2508 73.0341L82.0152 30.1732C84.5452 28.1562 86.1713 25.216 86.5335 22.0006C86.8967 18.7844 85.9666 15.5569 83.9495 13.0267L83.6119 12.6032C81.5949 10.073 78.6558 8.4471 75.4396 8.08443C72.2243 7.72101 68.9956 8.65091 66.4656 10.6679L26.9785 42.1469C26.5248 42.5086 25.8617 42.4334 25.4998 41.9794C25.1373 41.5247 25.2122 40.8622 25.666 40.5005L65.153 9.02141C68.12 6.65616 71.9055 5.56661 75.6756 5.99213C79.4468 6.41691 82.8935 8.32336 85.2588 11.2904L85.5964 11.7138C87.9617 14.6809 89.0521 18.4657 88.6258 22.2367C88.2004 26.0069 86.2946 29.4542 83.3276 31.8195L29.5632 74.6804C26.5962 77.0456 22.8109 78.1354 19.0407 77.7098C15.2696 77.2851 11.8229 75.3786 9.45756 72.4116L9.11997 71.9882C6.75467 69.0211 5.66428 65.2362 6.09057 61.4653C6.51593 57.6951 8.42167 54.2476 11.3886 51.8824C11.4568 51.828 11.5297 51.7836 11.6045 51.749C17.9222 47.8677 54.5997 25.3696 54.5997 25.3696C57.1096 23.8293 60.0562 23.237 62.7892 23.7081C65.5889 24.1918 67.9342 25.745 69.3216 28.0064L69.512 28.3161C70.8994 30.5775 71.2219 33.3723 70.3843 36.0872C69.5667 38.7371 67.7041 41.0952 65.1942 42.6356L35.347 60.9492C34.8509 61.2539 34.2028 61.0979 33.8984 60.6031C33.595 60.1076 33.7497 59.4588 34.2449 59.1549L64.093 40.8405C66.1562 39.5749 67.7001 37.6444 68.372 35.4668C69.0235 33.3536 68.7968 31.1769 67.7174 29.4168L67.5273 29.1075C66.4479 27.3475 64.6091 26.1594 62.4308 25.7829C60.1846 25.3958 57.7643 25.8975 55.7002 27.1639C55.7002 27.1639 18.7157 49.8515 12.6284 53.5908C12.6223 53.5947 12.6162 53.5986 12.6101 53.6024Z" fill="#D0F65E"/>
</g>
<defs>
<filter id="filter0_dd_261_4643" x="0" y="3.90186" width="94.7163" height="83.8982" filterUnits="userSpaceOnUse" color-interpolation-filters="sRGB">
<feFlood flood-opacity="0" result="BackgroundImageFix"/>
<feColorMatrix in="SourceAlpha" type="matrix" values="0 0 0 0 0 0 0 0 0 0 0 0 0 0 0 0 0 0 127 0" result="hardAlpha"/>
<feMorphology radius="2" operator="erode" in="SourceAlpha" result="effect1_dropShadow_261_4643"/>
<feOffset dy="2"/>
<feGaussianBlur stdDeviation="2"/>
<feComposite in2="hardAlpha" operator="out"/>
<feColorMatrix type="matrix" values="0 0 0 0 0.0627451 0 0 0 0 0.0941176 0 0 0 0 0.156863 0 0 0 0.06 0"/>
<feBlend mode="normal" in2="BackgroundImageFix" result="effect1_dropShadow_261_4643"/>
<feColorMatrix in="SourceAlpha" type="matrix" values="0 0 0 0 0 0 0 0 0 0 0 0 0 0 0 0 0 0 127 0" result="hardAlpha"/>
<feMorphology radius="2" operator="erode" in="SourceAlpha" result="effect2_dropShadow_261_4643"/>
<feOffset dy="4"/>
<feGaussianBlur stdDeviation="4"/>
<feComposite in2="hardAlpha" operator="out"/>
<feColorMatrix type="matrix" values="0 0 0 0 0.0627451 0 0 0 0 0.0941176 0 0 0 0 0.156863 0 0 0 0.1 0"/>
<feBlend mode="normal" in2="effect1_dropShadow_261_4643" result="effect2_dropShadow_261_4643"/>
<feBlend mode="normal" in="SourceGraphic" in2="effect2_dropShadow_261_4643" result="shape"/>
</filter>
</defs>
</svg>
