<svg width="736" height="490" viewBox="0 0 736 490" fill="none" xmlns="http://www.w3.org/2000/svg">
<g filter="url(#filter0_f_260_3206)" style="mix-blend-mode:multiply">
<path d="M443.8 292.31C443.8 292.31 406.412 323.401 409.492 388.294C411.272 425.801 419.515 454.711 438.857 473.334C453.811 491.649 496.619 515.28 529.404 518.749C562.189 522.217 585.732 505.606 594.849 498.519C603.966 491.433 636.601 466.469 648.411 447.354C660.221 428.239 661.841 426.358 661.841 426.358M416.868 300.551C411.982 298.934 408.181 296.867 401.119 303.596C394.057 310.325 385.286 327.07 382.193 336.55C379.1 346.03 372.073 362.43 375.536 369.849C377.821 374.745 380.149 376.243 382.661 376.949C384.733 377.531 389.028 377.513 396.678 363.002C404.882 347.44 410.259 336.849 412.984 331.206C418.195 320.413 420.463 315.245 421.031 310.12C421.367 307.096 421.691 302.147 416.868 300.551ZM430.252 327.187L428.107 333.014L413.97 330.272L411.068 328.044C411.068 328.044 408.336 331.736 408.596 333.262C408.856 334.788 409.442 336.77 409.442 336.77L406.682 338.96L408.226 341.184L404.463 348.419C404.463 348.419 399.027 351.121 396.577 349.925C394.128 348.73 390.895 345.055 390.895 345.055C390.895 345.055 391.602 343.53 393.14 341.546C394.677 339.563 395.112 341.201 395.803 339.541C396.494 337.882 399.247 335.317 395.675 332.784C398.568 328.455 401.734 323.311 403.86 322.693C405.986 322.074 406.208 323.081 406.208 323.081C406.208 323.081 408.554 320.38 410.638 320.6C412.722 320.82 417.984 321.096 417.984 321.096L424.678 323.771L430.252 327.187ZM346.865 254.791C350.382 258.548 353.852 261.132 350.704 270.365C347.557 279.598 336.032 294.581 328.723 301.365C321.414 308.148 309.472 321.404 301.285 321.371C295.882 321.35 293.546 319.864 291.851 317.88C290.454 316.243 288.67 312.336 298.635 299.307C309.323 285.334 316.683 276.011 320.664 271.171C328.276 261.914 332.017 257.688 336.431 255.023C339.036 253.451 343.393 251.081 346.865 254.791ZM317.071 253.809L312.681 258.2L321.098 269.884L324.337 271.585C324.337 271.585 322.132 275.613 320.637 276.017C319.143 276.421 317.098 276.719 317.098 276.719L316.267 280.144L313.601 279.674L308.61 286.124C308.61 286.124 308.436 292.193 310.549 293.915C312.661 295.637 317.353 297.031 317.353 297.031C317.353 297.031 318.441 295.749 319.597 293.522C320.754 291.295 319.084 291.587 320.301 290.263C321.518 288.941 322.692 285.365 326.488 287.547C329.206 283.105 332.548 278.073 332.218 275.884C331.888 273.695 330.881 273.916 330.881 273.916C330.881 273.916 332.35 270.653 331.276 268.853C330.202 267.054 327.745 262.392 327.745 262.392L322.509 257.437L317.071 253.809ZM667.537 399.373C667.537 399.373 566.063 343.843 536.89 326.746C507.718 309.649 473.144 290.279 459.174 280.988C445.203 271.697 420.923 255.454 420.923 255.454L382.984 232.246L380.832 234.524L517.357 321.85C517.357 321.85 663.14 409.359 664.53 409.901C665.92 410.443 667.537 399.373 667.537 399.373ZM383.893 229.866C384.19 229.405 388.385 225.823 374.986 218.378C359.13 209.566 329.66 193.144 329.66 193.144C329.66 193.144 289.104 169.83 266.632 166.53C244.161 163.23 227.529 164.994 227.529 164.994L143.594 170.881L106.717 172.097C106.717 172.097 93.8814 172.081 81.481 175.887C69.0807 179.693 50.479 192.156 50.479 192.156L55.5635 214.676C55.5635 214.676 79.6633 219.239 87.2624 218.785C94.8617 218.33 171.225 195.198 171.225 195.198C171.225 195.198 246.154 167.384 284.846 185.489C323.539 203.593 352.156 222.562 352.156 222.562C352.156 222.562 360.669 227.575 364.615 230.089C368.234 232.394 375.799 237.444 378.466 237.416C380.091 237.398 381.933 232.91 383.893 229.866ZM157.028 74.7591C157.028 74.7591 247.231 147.175 274.209 167.56C301.188 187.944 332.336 212.445 346.275 221.783C360.214 231.121 384.527 247.316 384.527 247.316L420.511 273.452L419.233 276.313L286.223 183.721C286.223 183.721 149.492 82.65 148.459 81.5742C147.426 80.4984 157.028 74.7591 157.028 74.7591ZM157.625 74.0152C157.625 74.0152 247.811 146.418 274.784 166.799C301.746 187.171 332.876 211.658 346.806 220.991C360.744 230.329 385.056 246.522 385.056 246.522L385.087 246.544L421.072 272.681C421.437 272.946 421.566 273.43 421.382 273.842L420.103 276.702C419.987 276.962 419.762 277.156 419.488 277.232C419.214 277.308 418.921 277.258 418.688 277.096L285.678 184.504L285.656 184.488C285.656 184.488 148.805 83.3118 147.771 82.2348L147.599 82.0085L147.482 81.745L147.431 81.4768L147.435 81.2311C147.473 80.8774 147.729 80.3533 148.263 79.7935C150.243 77.7212 156.539 73.9405 156.539 73.9405C156.881 73.736 157.315 73.766 157.625 74.0152ZM149.56 81.2448C157.82 87.6335 285.421 181.942 286.779 182.946L418.832 274.872L419.325 273.769L383.982 248.099C383.275 247.628 359.476 231.775 345.744 222.575C331.797 213.232 300.629 188.717 273.635 168.321C247.85 148.839 164.324 81.8366 156.952 75.921C155.644 76.7227 152.374 78.7707 150.465 80.3608C150.123 80.6449 149.782 81.0011 149.56 81.2448ZM420.886 272.654C421.191 272.199 422.818 266.928 434.963 276.281C449.335 287.349 476.089 307.902 476.089 307.902C476.089 307.902 513.563 335.902 525.497 355.227C537.43 374.552 542.399 390.521 542.399 390.521L570.249 469.921L583.742 504.262C583.742 504.262 588.842 516.041 590.26 528.934C591.678 541.828 587.605 563.845 587.605 563.845L564.914 568.099C564.914 568.099 551.176 547.779 548.582 540.622C545.989 533.464 536.974 454.185 536.974 454.185C536.974 454.185 532.826 374.368 500.873 346.015C468.92 317.661 440.166 298.902 440.166 298.902C440.166 298.902 432.19 293.071 428.319 290.443C424.768 288.034 417.135 283.088 416.104 280.629C415.476 279.13 418.868 275.661 420.886 272.654ZM682.66 374.845L682.673 374.786C691.066 381.762 716.464 406.877 716.464 406.877L704.671 426.28L701.444 430.939C687.284 424.925 678.211 439.993 676.049 444.104C675.835 444.511 675.292 445.431 674.935 446.03C674.928 446.066 674.924 446.084 674.924 446.084C674.924 446.084 674.879 446.146 674.797 446.261C674.678 446.461 674.601 446.589 674.601 446.589L674.606 446.529C673.557 448.007 670.198 452.778 669.054 454.884C667.691 457.392 664.601 458.071 661.23 458.812C657.859 459.553 646.009 450.525 646.009 450.525C646.009 450.525 659.72 423.805 661.887 404.188C662.158 367.906 634.039 345.816 558.95 304.305C558.446 304.037 557.955 303.75 557.444 303.509C533.975 292.432 504.211 281.304 486.897 281.414C450.943 281.641 439.383 306.289 439.383 306.289C419.679 298.22 427.045 283.499 431.765 276.361C435.156 271.232 440.833 258.443 448.439 258.539C471.797 258.836 501.954 260.177 569.51 294.213C637.066 328.25 665.832 360.652 682.655 374.739C682.656 374.774 682.658 374.81 682.66 374.845ZM681.671 388.147L679.726 413.402C679.726 413.402 702.073 424.496 704.319 426.189L701.919 430.541C701.919 430.541 706.999 433.407 709.099 433.726C711.199 434.045 711.628 434.576 712.964 432.486C714.301 430.396 720.602 420.345 720.602 420.345C720.602 420.345 723.145 418.771 715.604 413.948C708.065 409.126 702.574 405.102 702.574 405.102L681.671 388.147ZM691.211 402.25C690.008 404.132 687.527 404.695 685.671 403.507C683.815 402.32 683.286 399.832 684.489 397.951C685.692 396.069 688.173 395.507 690.029 396.694C691.885 397.881 692.415 400.369 691.211 402.25ZM690.444 412.257C689.24 414.138 686.76 414.701 684.904 413.513C683.047 412.326 682.518 409.838 683.721 407.957C684.925 406.075 687.405 405.513 689.262 406.7C691.118 407.887 691.647 410.375 690.444 412.257ZM344.086 229.216C344.358 228.199 345.404 227.594 346.421 227.865C347.439 228.137 348.044 229.183 347.772 230.201C347.772 230.201 335.101 278.049 273.894 302.871C238.603 317.182 208.459 321.77 183.076 311.922C159.834 305.878 119.937 276.592 102.826 247.922C85.5782 219.024 90.8632 190.1 93.5284 178.617C96.1633 167.267 105.272 126.823 117.786 107.915C130.039 89.4035 131.07 87.1814 131.07 87.1814C131.506 86.2234 132.639 85.7993 133.597 86.2356C134.555 86.672 134.979 87.8039 134.543 88.7622C134.543 88.7622 133.518 91.0584 120.967 110.021C108.679 128.587 99.8318 168.335 97.245 179.48C94.6886 190.494 89.5572 218.247 106.102 245.967C122.756 273.87 161.567 302.445 184.137 308.256C184.211 308.275 184.284 308.298 184.355 308.326C208.981 317.924 238.206 313.226 272.46 299.335C331.662 275.327 344.086 229.216 344.086 229.216ZM172.656 48.6317L172.704 48.5956C162.852 43.9009 129.402 31.3744 129.402 31.3744L116.732 50.217L113.855 55.1004C125.253 65.4328 115.378 79.9888 112.553 83.6747C112.273 84.0402 111.665 84.9185 111.271 85.4936C111.242 85.5154 111.227 85.527 111.227 85.527C111.227 85.527 111.189 85.5937 111.119 85.7158C110.988 85.9084 110.904 86.0318 110.904 86.0318L110.956 86.0015C110.054 87.574 107.131 92.624 105.7 94.5455C103.994 96.8345 104.673 99.9248 105.414 103.296C106.155 106.667 119.32 113.639 119.32 113.639C119.32 113.639 137.828 89.9873 154.729 79.7941C187.553 64.3342 219.398 80.5993 288.569 131.361C289.024 131.706 289.491 132.032 289.924 132.395C309.821 149.056 332.404 171.411 339.564 187.175C354.434 219.911 336.904 240.741 336.904 240.741C352.493 255.246 362.768 242.386 367.269 235.108C370.503 229.878 379.734 219.361 376.457 212.497C366.393 191.417 352.53 164.601 293.303 117.543C234.076 70.4855 192.597 57.957 172.755 48.5921C172.722 48.6053 172.689 48.6185 172.656 48.6317ZM160.995 55.1075L138.883 67.4626C138.883 67.4626 119.441 51.8267 116.963 50.4977L114.017 54.5023C114.017 54.5023 109.286 51.0918 108.116 49.3193C106.945 47.5463 106.284 47.3798 107.62 45.2902C108.957 43.2006 115.439 33.2655 115.439 33.2655C115.439 33.2655 115.802 30.2971 123.343 35.1201C130.882 39.9428 136.838 43.2403 136.838 43.2403L160.995 55.1075ZM144.191 52.3601C142.987 54.2415 143.517 56.7292 145.373 57.9165C147.229 59.1039 149.71 58.5412 150.913 56.6598C152.117 54.7784 151.587 52.2906 149.731 51.1033C147.875 49.9159 145.394 50.4786 144.191 52.3601ZM135.429 57.2527C134.225 59.1341 134.755 61.6218 136.611 62.8091C138.467 63.9965 140.948 63.4338 142.151 61.5524C143.355 59.671 142.825 57.1832 140.969 55.9959C139.113 54.8085 136.632 55.3712 135.429 57.2527Z" stroke="#CACACA" stroke-miterlimit="1.5" stroke-linecap="round" stroke-linejoin="round"/>
</g>
<g filter="url(#filter1_dd_260_3206)">
<g clip-path="url(#clip0_260_3206)">
<path fill-rule="evenodd" clip-rule="evenodd" d="M415.307 291.766C410.421 290.149 406.62 288.082 399.558 294.81C392.496 301.539 383.726 318.285 380.633 327.765C377.539 337.244 370.512 353.644 373.975 361.064C376.26 365.96 378.589 367.457 381.1 368.164C383.172 368.746 387.467 368.727 395.117 354.217C403.321 338.655 408.698 328.064 411.423 322.42C416.635 311.628 418.902 306.46 419.471 301.335C419.806 298.311 420.13 293.362 415.307 291.766Z" stroke="#3A5EBB" stroke-width="2" stroke-miterlimit="1.5" stroke-linecap="round" stroke-linejoin="round"/>
<path fill-rule="evenodd" clip-rule="evenodd" d="M428.691 318.402L426.546 324.229L412.409 321.486L409.507 319.259C409.507 319.259 406.775 322.95 407.035 324.477C407.295 326.003 407.881 327.985 407.881 327.985L405.121 330.174L406.665 332.398L402.903 339.633C402.903 339.633 397.466 342.336 395.017 341.14C392.567 339.945 389.334 336.27 389.334 336.27C389.334 336.27 390.042 334.744 391.579 332.761C393.116 330.777 393.551 332.416 394.242 330.756C394.933 329.097 397.686 326.531 394.114 323.999C397.007 319.669 400.174 314.526 402.299 313.908C404.425 313.289 404.647 314.296 404.647 314.296C404.647 314.296 406.993 311.594 409.077 311.815C411.161 312.035 416.423 312.311 416.423 312.311L423.118 314.986L428.691 318.402Z" fill="#3A5EBB" stroke="#3A5EBB" stroke-miterlimit="1.5" stroke-linecap="round" stroke-linejoin="round"/>
<path fill-rule="evenodd" clip-rule="evenodd" d="M345.304 246.005C348.821 249.763 352.291 252.347 349.144 261.579C345.996 270.813 334.472 285.796 327.162 292.579C319.853 299.362 307.912 312.619 299.724 312.586C294.321 312.565 291.985 311.079 290.291 309.095C288.893 307.458 287.109 303.551 297.074 290.522C307.762 276.549 315.122 267.226 319.103 262.386C326.716 253.129 330.457 248.903 334.871 246.238C337.475 244.666 341.832 242.296 345.304 246.005Z" stroke="#3A5EBB" stroke-width="2" stroke-miterlimit="1.5" stroke-linecap="round" stroke-linejoin="round"/>
<path fill-rule="evenodd" clip-rule="evenodd" d="M315.51 245.024L311.12 249.415L319.538 261.099L322.776 262.799C322.776 262.799 320.571 266.828 319.076 267.231C317.582 267.635 315.537 267.934 315.537 267.934L314.706 271.358L312.04 270.889L307.049 277.339C307.049 277.339 306.875 283.408 308.988 285.129C311.1 286.852 315.792 288.246 315.792 288.246C315.792 288.246 316.88 286.964 318.036 284.737C319.193 282.51 317.523 282.801 318.74 281.478C319.957 280.156 321.131 276.58 324.928 278.761C327.645 274.32 330.987 269.288 330.657 267.099C330.327 264.91 329.32 265.131 329.32 265.131C329.32 265.131 330.789 261.868 329.715 260.068C328.641 258.269 326.184 253.607 326.184 253.607L320.948 248.652L315.51 245.024Z" fill="#3A5EBB" stroke="#3A5EBB" stroke-width="2" stroke-miterlimit="1.5" stroke-linecap="round" stroke-linejoin="round"/>
<path d="M442.239 283.525C442.239 283.525 404.851 314.616 407.931 379.509C409.711 417.016 417.954 445.926 437.296 464.548C452.25 482.864 495.058 506.495 527.843 509.964C560.628 513.432 584.171 496.821 593.288 489.734C602.405 482.647 635.04 457.684 646.85 438.569C658.66 419.453 660.28 417.573 660.28 417.573" stroke="#3A5EBB" stroke-width="4.17" stroke-miterlimit="1.5" stroke-linecap="round" stroke-linejoin="round"/>
<path fill-rule="evenodd" clip-rule="evenodd" d="M665.976 390.588C665.976 390.588 564.502 335.058 535.329 317.961C506.157 300.864 471.583 281.494 457.613 272.203C443.643 262.912 419.362 246.669 419.362 246.669L381.423 223.461L379.271 225.739L515.796 313.065C515.796 313.065 661.579 400.574 662.969 401.116C664.359 401.657 665.976 390.588 665.976 390.588Z" fill="#3A5EBB" stroke="#3A5EBB" stroke-miterlimit="1.5" stroke-linecap="round" stroke-linejoin="round"/>
<path fill-rule="evenodd" clip-rule="evenodd" d="M382.333 221.081C382.629 220.62 386.825 217.038 373.426 209.592C357.569 200.781 328.099 184.359 328.099 184.359C328.099 184.359 287.543 161.045 265.071 157.745C242.6 154.445 225.969 156.209 225.969 156.209L142.033 162.096L105.156 163.312C105.156 163.312 92.3206 163.296 79.9203 167.102C67.5199 170.908 48.9182 183.371 48.9182 183.371L54.0028 205.891C54.0028 205.891 78.1025 210.454 85.7016 210C93.301 209.545 169.664 186.413 169.664 186.413C169.664 186.413 244.593 158.599 283.285 176.704C321.978 194.808 350.595 213.777 350.595 213.777C350.595 213.777 359.108 218.79 363.055 221.304C366.674 223.609 374.239 228.658 376.905 228.631C378.53 228.613 380.372 224.125 382.333 221.081Z" fill="#3A5EBB" stroke="white" stroke-miterlimit="1.5" stroke-linecap="round" stroke-linejoin="round"/>
<path fill-rule="evenodd" clip-rule="evenodd" d="M155.468 65.9739C155.468 65.9739 245.67 138.39 272.649 158.775C299.627 179.159 330.776 203.66 344.715 212.998C358.653 222.336 382.966 238.531 382.966 238.531L418.95 264.667L417.672 267.528L284.662 174.936C284.662 174.936 147.932 73.8648 146.898 72.789C145.865 71.7132 155.468 65.9739 155.468 65.9739Z" fill="url(#paint0_linear_260_3206)"/>
<path fill-rule="evenodd" clip-rule="evenodd" d="M156.065 65.2299C156.065 65.2299 246.25 137.633 273.224 158.014C300.186 178.386 331.315 202.873 345.245 212.205C359.184 221.543 383.495 237.737 383.495 237.737L383.527 237.759L419.511 263.895C419.876 264.161 420.005 264.644 419.821 265.056L418.543 267.917C418.427 268.177 418.201 268.371 417.927 268.447C417.654 268.523 417.36 268.473 417.127 268.31L284.117 175.719L284.095 175.703C284.095 175.703 147.245 74.5266 146.21 73.4496L146.038 73.2233L145.922 72.9597L145.871 72.6916L145.874 72.4459C145.912 72.0922 146.169 71.5681 146.703 71.0083C148.682 68.936 154.978 65.1553 154.978 65.1553C155.321 64.9508 155.754 64.9807 156.065 65.2299ZM147.999 72.4596C156.259 78.8482 283.86 173.157 285.218 174.161L417.271 266.087L417.764 264.984L382.421 239.314C381.714 238.843 357.915 222.99 344.184 213.79C330.237 204.447 299.068 179.932 272.074 159.535C246.289 140.053 162.763 73.0513 155.391 67.1358C154.083 67.9375 150.813 69.9855 148.904 71.5756C148.563 71.8597 148.221 72.2159 147.999 72.4596Z" fill="url(#paint1_linear_260_3206)"/>
<path fill-rule="evenodd" clip-rule="evenodd" d="M419.325 263.869C419.63 263.414 421.257 258.143 433.402 267.496C447.774 278.564 474.529 299.116 474.529 299.116C474.529 299.116 512.003 327.117 523.936 346.442C535.869 365.767 540.838 381.736 540.838 381.736L568.688 461.136L582.181 495.477C582.181 495.477 587.281 507.256 588.699 520.149C590.118 533.043 586.044 555.06 586.044 555.06L563.353 559.314C563.353 559.314 549.615 538.994 547.021 531.837C544.428 524.679 535.413 445.4 535.413 445.4C535.413 445.4 531.265 365.583 499.312 337.23C467.359 308.876 438.605 290.116 438.605 290.116C438.605 290.116 430.629 284.286 426.758 281.658C423.208 279.249 415.574 274.303 414.543 271.844C413.916 270.345 417.307 266.876 419.325 263.869Z" fill="#3A5EBB" stroke="#3A5EBB" stroke-miterlimit="1.5" stroke-linecap="round" stroke-linejoin="round"/>
<path fill-rule="evenodd" clip-rule="evenodd" d="M681.099 366.06L681.112 366.001C689.505 372.977 714.903 398.092 714.903 398.092L703.11 417.495L699.883 422.154C685.724 416.14 676.65 431.208 674.488 435.319C674.274 435.726 673.731 436.646 673.374 437.244C673.367 437.281 673.363 437.299 673.363 437.299C673.363 437.299 673.318 437.361 673.236 437.476C673.117 437.676 673.04 437.804 673.04 437.804L673.046 437.744C671.996 439.222 668.637 443.993 667.493 446.098C666.13 448.606 663.04 449.286 659.669 450.027C656.298 450.768 644.448 441.74 644.448 441.74C644.448 441.74 658.159 415.02 660.326 395.402C660.597 359.121 632.478 337.031 557.39 295.52C556.886 295.252 556.394 294.964 555.883 294.723C532.414 283.647 502.65 272.519 485.336 272.629C449.382 272.855 437.823 297.504 437.823 297.504C418.118 289.435 425.484 274.714 430.204 267.576C433.595 262.447 439.272 249.657 446.878 249.754C470.236 250.051 500.393 251.391 567.949 285.428C635.505 319.465 664.271 351.867 681.094 365.954C681.096 365.989 681.097 366.025 681.099 366.06Z" fill="#3A5EBB" stroke="white" stroke-miterlimit="1.5" stroke-linecap="round" stroke-linejoin="round"/>
<path fill-rule="evenodd" clip-rule="evenodd" d="M680.11 379.362L678.165 404.617C678.165 404.617 700.513 415.71 702.758 417.403L700.358 421.756C700.358 421.756 705.438 424.622 707.538 424.941C709.638 425.26 710.067 425.79 711.403 423.701C712.74 421.611 719.041 411.56 719.041 411.56C719.041 411.56 721.584 409.986 714.043 405.163C706.504 400.34 701.013 396.316 701.013 396.316L680.11 379.362Z" fill="white" stroke="#3A5EBB" stroke-miterlimit="1.5" stroke-linecap="round" stroke-linejoin="round"/>
<path d="M684.11 394.722C685.967 395.909 688.447 395.347 689.65 393.465C690.854 391.584 690.325 389.096 688.468 387.909C686.612 386.721 684.132 387.284 682.928 389.166C681.725 391.047 682.254 393.535 684.11 394.722Z" stroke="#3A5EBB" stroke-miterlimit="1.5" stroke-linecap="round" stroke-linejoin="round"/>
<path d="M683.343 404.728C685.199 405.916 687.679 405.353 688.883 403.471C690.086 401.59 689.557 399.102 687.701 397.915C685.844 396.728 683.364 397.29 682.161 399.172C680.957 401.053 681.486 403.541 683.343 404.728Z" stroke="#3A5EBB" stroke-miterlimit="1.5" stroke-linecap="round" stroke-linejoin="round"/>
<path fill-rule="evenodd" clip-rule="evenodd" d="M342.525 220.431C342.797 219.414 343.843 218.809 344.86 219.08C345.878 219.352 346.483 220.398 346.211 221.416C346.211 221.416 333.54 269.264 272.333 294.085C237.042 308.397 206.898 312.985 181.516 303.137C158.273 297.093 118.376 267.806 101.265 239.137C84.0174 210.239 89.3024 181.315 91.9676 169.832C94.6024 158.482 103.711 118.038 116.225 99.1302C128.478 80.6183 129.51 78.3962 129.51 78.3962C129.946 77.4383 131.078 77.0141 132.036 77.4505C132.995 77.8869 133.418 79.0188 132.982 79.9771C132.982 79.9771 131.957 82.2732 119.407 101.236C107.118 119.802 98.2709 159.549 95.6842 170.695C93.1278 181.709 87.9963 209.462 104.541 237.182C121.195 265.085 160.006 293.66 182.577 299.471C182.65 299.49 182.723 299.513 182.794 299.54C207.42 309.139 236.645 304.441 270.899 290.55C330.101 266.542 342.525 220.431 342.525 220.431Z" fill="url(#paint2_linear_260_3206)"/>
<path fill-rule="evenodd" clip-rule="evenodd" d="M171.095 39.8465L171.143 39.8104C161.291 35.1157 127.841 22.5892 127.841 22.5892L115.171 41.4318L112.295 46.3152C123.692 56.6476 113.817 71.2036 110.992 74.8895C110.712 75.255 110.104 76.1333 109.71 76.7084C109.681 76.7302 109.666 76.7418 109.666 76.7418C109.666 76.7418 109.628 76.8085 109.558 76.9306C109.427 77.1232 109.343 77.2466 109.343 77.2466L109.395 77.2163C108.493 78.7888 105.57 83.8387 104.139 85.7603C102.433 88.0493 103.112 91.1396 103.853 94.5107C104.594 97.8815 117.759 104.853 117.759 104.853C117.759 104.853 136.267 81.2021 153.168 71.0089C185.992 55.549 217.837 71.8141 287.008 122.576C287.463 122.921 287.93 123.247 288.363 123.609C308.26 140.271 330.843 162.626 338.003 178.39C352.873 211.125 335.343 231.956 335.343 231.956C350.932 246.461 361.207 233.601 365.708 226.323C368.942 221.093 378.173 210.576 374.896 203.712C364.832 182.631 350.969 155.816 291.742 108.758C232.515 61.7003 191.037 49.1718 171.194 39.8069C171.161 39.8201 171.128 39.8333 171.095 39.8465Z" fill="#3A5EBB" stroke="white" stroke-miterlimit="1.5" stroke-linecap="round" stroke-linejoin="round"/>
<path fill-rule="evenodd" clip-rule="evenodd" d="M159.434 46.3223L137.322 58.6774C137.322 58.6774 117.88 43.0414 115.402 41.7125L112.456 45.7171C112.456 45.7171 107.725 42.3066 106.555 40.534C105.384 38.7611 104.723 38.5945 106.06 36.505C107.396 34.4154 113.879 24.4802 113.879 24.4802C113.879 24.4802 114.241 21.5119 121.782 26.3349C129.322 31.1576 135.277 34.4551 135.277 34.4551L159.434 46.3223Z" fill="white" stroke="#3A5EBB" stroke-miterlimit="1.5" stroke-linecap="round" stroke-linejoin="round"/>
<path d="M143.812 49.1313C141.956 47.9439 141.427 45.4562 142.63 43.5748C143.833 41.6934 146.314 41.1307 148.17 42.318C150.026 43.5053 150.556 45.9931 149.352 47.8745C148.149 49.756 145.668 50.3186 143.812 49.1313Z" stroke="#3A5EBB" stroke-miterlimit="1.5" stroke-linecap="round" stroke-linejoin="round"/>
<path d="M135.05 54.024C133.194 52.8366 132.664 50.3489 133.868 48.4675C135.071 46.5861 137.552 46.0234 139.408 47.2107C141.264 48.398 141.793 50.8858 140.59 52.7672C139.387 54.6487 136.906 55.2113 135.05 54.024Z" stroke="#3A5EBB" stroke-miterlimit="1.5" stroke-linecap="round" stroke-linejoin="round"/>
</g>
</g>
<defs>
<filter id="filter0_f_260_3206" x="40.979" y="21.8744" width="689.535" height="555.724" filterUnits="userSpaceOnUse" color-interpolation-filters="sRGB">
<feFlood flood-opacity="0" result="BackgroundImageFix"/>
<feBlend mode="normal" in="SourceGraphic" in2="BackgroundImageFix" result="shape"/>
<feGaussianBlur stdDeviation="4.5" result="effect1_foregroundBlur_260_3206"/>
</filter>
<filter id="filter1_dd_260_3206" x="-12" y="0" width="759.322" height="612.833" filterUnits="userSpaceOnUse" color-interpolation-filters="sRGB">
<feFlood flood-opacity="0" result="BackgroundImageFix"/>
<feColorMatrix in="SourceAlpha" type="matrix" values="0 0 0 0 0 0 0 0 0 0 0 0 0 0 0 0 0 0 127 0" result="hardAlpha"/>
<feMorphology radius="2" operator="erode" in="SourceAlpha" result="effect1_dropShadow_260_3206"/>
<feOffset dy="4"/>
<feGaussianBlur stdDeviation="3"/>
<feComposite in2="hardAlpha" operator="out"/>
<feColorMatrix type="matrix" values="0 0 0 0 0.0627451 0 0 0 0 0.0941176 0 0 0 0 0.156863 0 0 0 0.03 0"/>
<feBlend mode="normal" in2="BackgroundImageFix" result="effect1_dropShadow_260_3206"/>
<feColorMatrix in="SourceAlpha" type="matrix" values="0 0 0 0 0 0 0 0 0 0 0 0 0 0 0 0 0 0 127 0" result="hardAlpha"/>
<feMorphology radius="4" operator="erode" in="SourceAlpha" result="effect2_dropShadow_260_3206"/>
<feOffset dy="12"/>
<feGaussianBlur stdDeviation="8"/>
<feComposite in2="hardAlpha" operator="out"/>
<feColorMatrix type="matrix" values="0 0 0 0 0.0627451 0 0 0 0 0.0941176 0 0 0 0 0.156863 0 0 0 0.08 0"/>
<feBlend mode="normal" in2="effect1_dropShadow_260_3206" result="effect2_dropShadow_260_3206"/>
<feBlend mode="normal" in="SourceGraphic" in2="effect2_dropShadow_260_3206" result="shape"/>
</filter>
<linearGradient id="paint0_linear_260_3206" x1="301.034" y1="179.338" x2="397.154" y2="250.027" gradientUnits="userSpaceOnUse">
<stop stop-color="white"/>
<stop offset="1" stop-color="#3A5EBB"/>
</linearGradient>
<linearGradient id="paint1_linear_260_3206" x1="301.034" y1="179.338" x2="397.154" y2="250.027" gradientUnits="userSpaceOnUse">
<stop stop-color="white"/>
<stop offset="1" stop-color="#3A5EBB"/>
</linearGradient>
<linearGradient id="paint2_linear_260_3206" x1="65.9357" y1="121.378" x2="186.491" y2="282.92" gradientUnits="userSpaceOnUse">
<stop stop-color="white"/>
<stop offset="1" stop-color="#3A5EBB"/>
</linearGradient>
<clipPath id="clip0_260_3206">
<rect width="720.603" height="238.064" fill="white" transform="translate(128.277) rotate(32.6042)"/>
</clipPath>
</defs>
</svg>
