<svg width="340" height="252" viewBox="0 0 340 252" fill="none" xmlns="http://www.w3.org/2000/svg">
<mask id="path-1-inside-1_208_3115" fill="white">
<path d="M122.406 0C125.426 0.000155592 128.189 1.70096 129.549 4.39746L138.931 23H332C336.418 23 340 26.5817 340 31V244C340 248.418 336.418 252 332 252H8C3.58172 252 6.84544e-08 248.418 0 244V8C0 3.58172 3.58172 0 8 0H122.406Z"/>
</mask>
<path d="M122.406 0C125.426 0.000155592 128.189 1.70096 129.549 4.39746L138.931 23H332C336.418 23 340 26.5817 340 31V244C340 248.418 336.418 252 332 252H8C3.58172 252 6.84544e-08 248.418 0 244V8C0 3.58172 3.58172 0 8 0H122.406Z" fill="white"/>
<path d="M122.406 0L122.406 -1H122.406V0ZM129.549 4.39746L130.442 3.94716V3.94715L129.549 4.39746ZM138.931 23L138.038 23.4503L138.315 24H138.931V23ZM340 31H341H340ZM340 244H341V244H340ZM332 252V253V252ZM0 244H-1H0ZM122.406 0L122.406 1C125.049 1.00014 127.466 2.48835 128.656 4.84778L129.549 4.39746L130.442 3.94715C128.912 0.913576 125.804 -0.999825 122.406 -1L122.406 0ZM129.549 4.39746L128.656 4.84777L138.038 23.4503L138.931 23L139.824 22.5497L130.442 3.94716L129.549 4.39746ZM138.931 23V24H332V23V22H138.931V23ZM332 23V24C335.866 24 339 27.134 339 31H340H341C341 26.0294 336.971 22 332 22V23ZM340 31H339V244H340H341V31H340ZM340 244H339C339 247.866 335.866 251 332 251V252V253C336.971 253 341 248.971 341 244H340ZM332 252V251H8V252V253H332V252ZM8 252V251C4.13401 251 1 247.866 1 244H0H-1C-1 248.971 3.02944 253 8 253V252ZM0 244H1V8H0H-1V244H0ZM0 8H1C1 4.13401 4.13401 1 8 1V0V-1C3.02944 -1 -1 3.02944 -1 8H0ZM8 0V1H122.406V0V-1H8V0Z" fill="#B9C0D4" mask="url(#path-1-inside-1_208_3115)"/>
</svg>
