<svg width="80" height="23" viewBox="0 0 80 23" fill="none" xmlns="http://www.w3.org/2000/svg">
<path d="M76.3511 20.9407L76.0847 20.3546C76.1379 20.2303 76.1735 20.1326 76.1912 20.0615C76.209 19.9905 76.2356 19.8573 76.2711 19.6619C76.4132 19.3955 76.4665 19.2001 76.431 19.0758C76.3955 18.9515 76.3067 18.7916 76.1646 18.5962C76.2534 18.4719 76.2978 18.3476 76.2978 18.2232C76.2978 18.0811 76.2889 17.9657 76.2711 17.8769C76.2534 17.7881 76.2356 17.7259 76.2179 17.6904C76.2179 17.6371 76.2534 17.6282 76.3244 17.6637C76.2534 17.5039 76.2534 17.2996 76.3244 17.051C76.3955 16.8023 76.3688 16.5537 76.2445 16.305C76.3156 16.305 76.3511 16.2872 76.3511 16.2517C76.3511 16.1984 76.3422 16.1363 76.3244 16.0652C76.3244 15.9942 76.3333 15.9142 76.3511 15.8254C76.3688 15.7366 76.4399 15.6656 76.5642 15.6123C76.4577 15.559 76.3955 15.5057 76.3777 15.4524C76.36 15.3814 76.36 15.3104 76.3777 15.2393C76.3955 15.1505 76.4132 15.0528 76.431 14.9462C76.4665 14.8219 76.4754 14.6887 76.4576 14.5466C76.4221 14.44 76.3688 14.3246 76.2978 14.2003C76.2267 14.0582 76.2534 13.9427 76.3777 13.8539C76.4488 13.552 76.4665 13.3299 76.431 13.1879C76.3955 13.0458 76.36 12.8504 76.3244 12.6017C76.3955 12.6373 76.431 12.6284 76.431 12.5751C76.4488 12.5218 76.4488 12.4508 76.431 12.3619C76.4132 12.2731 76.3955 12.1843 76.3777 12.0955C76.36 12.0067 76.3511 11.9357 76.3511 11.8824C76.2623 11.7581 76.2267 11.5716 76.2445 11.3229C76.2623 11.0742 76.3156 10.8522 76.4044 10.6568C76.3866 10.6568 76.3422 10.568 76.2711 10.3904C76.2179 10.2128 76.2623 10.0086 76.4044 9.77766C76.3688 9.75989 76.3511 9.72437 76.3511 9.67109C76.3688 9.6178 76.3866 9.55564 76.4044 9.48459C76.4221 9.41355 76.431 9.3425 76.431 9.27145C76.431 9.18265 76.4044 9.08496 76.3511 8.97839C76.4044 8.96063 76.431 8.90734 76.431 8.81854C76.431 8.72973 76.4132 8.63204 76.3777 8.52547C76.36 8.40114 76.3333 8.28569 76.2978 8.17912C76.28 8.05479 76.2623 7.95711 76.2445 7.88606C76.2978 7.76173 76.3511 7.65516 76.4044 7.56635C76.4754 7.45978 76.5198 7.27329 76.5376 7.00687C76.3422 6.86478 76.2267 6.72268 76.1912 6.58059C76.1557 6.4385 76.1202 6.19872 76.0847 5.86125C76.2623 5.87901 76.3333 5.84349 76.2978 5.75468C76.28 5.66588 76.2534 5.45274 76.2179 5.11527C76.36 4.99094 76.4221 4.86661 76.4044 4.74228C76.3866 4.61795 76.3422 4.4581 76.2711 4.26272C76.3422 4.06734 76.3333 3.90749 76.2445 3.78316C76.1735 3.64107 76.1557 3.51674 76.1912 3.41017C76.2267 3.28584 76.2356 3.19703 76.2179 3.14375C76.2001 3.0727 76.1646 3.01054 76.1113 2.95725C76.0758 2.88621 76.0225 2.81516 75.9514 2.74411C75.8982 2.65531 75.8538 2.53098 75.8182 2.37112L76.1379 2.34448L75.7916 2.21127C75.8094 2.06918 75.8271 1.8738 75.8449 1.62514C75.8804 1.35872 75.9603 1.11894 76.0847 0.905803C76.2623 0.959087 76.4576 0.950206 76.6708 0.87916C76.9017 0.808115 77.0615 0.710427 77.1504 0.586096C77.4523 0.550574 77.6921 0.603858 77.8697 0.745949C78.0473 0.87028 78.1006 0.914683 78.0295 0.87916C78.296 1.02125 78.4381 1.15446 78.4558 1.27879C78.4913 1.40312 78.5002 1.53633 78.4825 1.67843C78.6246 1.98037 78.6867 2.22903 78.669 2.42441C78.6512 2.61978 78.6956 2.83292 78.8022 3.06382C78.8732 3.15263 78.8732 3.2592 78.8022 3.38353C78.7489 3.4901 78.7844 3.64107 78.9087 3.83644L78.7222 4.68899L78.9087 5.86125C78.8732 5.89677 78.8732 6.01222 78.9087 6.2076C78.962 6.38522 78.9709 6.50955 78.9354 6.58059C78.8999 6.63388 78.8821 6.79373 78.8821 7.06015C78.8821 7.32657 78.8999 7.51307 78.9354 7.61964C78.9887 7.65516 79.0064 7.70844 78.9887 7.77949C78.9887 7.85054 78.9709 7.93046 78.9354 8.01927C78.9176 8.09032 78.891 8.16136 78.8555 8.23241C78.8199 8.30345 78.8111 8.34786 78.8288 8.36562C78.8466 8.56099 78.8466 8.72973 78.8288 8.87182C78.8288 9.01391 78.8732 9.0672 78.962 9.03167C79.0153 9.28033 79.042 9.52011 79.042 9.75101C79.0597 9.98191 79.0153 10.1418 78.9087 10.2306C79.1219 10.6036 79.1396 10.8345 78.962 10.9233C79.0331 11.1186 79.0775 11.2519 79.0952 11.3229C79.113 11.3939 79.1663 11.4828 79.2551 11.5893C79.1663 11.7492 79.1041 11.8913 79.0686 12.0156C79.0331 12.1222 79.0064 12.2287 78.9887 12.3353C78.9887 12.4241 78.9887 12.5129 78.9887 12.6017C78.9887 12.6905 78.9887 12.7882 78.9887 12.8948C78.9176 12.9481 78.9087 13.0369 78.962 13.1612C79.0331 13.2855 78.9887 13.4454 78.8288 13.6408C78.9176 13.6941 78.9887 13.8006 79.042 13.9605C79.113 14.1026 79.1308 14.2979 79.0952 14.5466C79.0775 14.5644 79.0686 14.6443 79.0686 14.7864C79.0864 14.9285 79.113 15.0795 79.1485 15.2393C79.1663 15.3814 79.1396 15.5413 79.0686 15.7189C79.0153 15.8787 78.9975 15.9853 79.0153 16.0386C79.0508 16.2872 79.0686 16.4826 79.0686 16.6247C79.0864 16.7668 79.0952 16.8822 79.0952 16.9711C79.1308 16.9711 79.1308 17.0599 79.0952 17.2375C79.0775 17.3973 79.042 17.5394 78.9887 17.6637C79.042 17.7526 79.0597 17.8502 79.042 17.9568C79.0242 18.0634 78.9976 18.1877 78.962 18.3298C78.9443 18.4719 78.9265 18.6317 78.9087 18.8094C78.9087 18.987 78.9354 19.1735 78.9887 19.3688C78.9176 19.6175 78.8999 19.8839 78.9354 20.1681C78.9709 20.4701 78.9709 20.6654 78.9354 20.7542C78.7222 21.0207 78.5801 21.216 78.5091 21.3404C78.4558 21.4647 78.4114 21.5446 78.3759 21.5802C78.2338 21.5802 78.0917 21.6423 77.9496 21.7666C77.8075 21.9087 77.6654 21.9975 77.5233 22.0331C77.4345 21.9443 77.3102 21.8555 77.1504 21.7666C76.9905 21.6956 76.8662 21.6867 76.7774 21.74C76.2623 21.5446 76.0491 21.1983 76.1379 20.701L76.3511 20.9407ZM61.1916 18.1433L61.0317 17.5572L61.458 16.1984L61.165 15.4258L61.085 14.5999L61.4314 13.6408L61.0317 12.5218C61.1205 12.5396 61.165 12.5484 61.165 12.5484C61.1827 12.5307 61.1827 12.504 61.165 12.4685C61.1472 12.433 61.1294 12.3886 61.1117 12.3353C61.1117 12.282 61.1561 12.2287 61.2449 12.1755C61.1738 12.0156 61.1294 11.8913 61.1117 11.8025C61.1117 11.7137 61.1117 11.6426 61.1117 11.5893C61.1294 11.5183 61.1383 11.4472 61.1383 11.3762C61.1561 11.3051 61.1561 11.2163 61.1383 11.1098C61.2449 11.092 61.3159 11.0476 61.3514 10.9766C61.387 10.9055 61.4136 10.8256 61.4314 10.7368C61.4491 10.6302 61.4669 10.5414 61.4847 10.4704C61.5024 10.3815 61.5291 10.3283 61.5646 10.3105C61.7244 10.2395 61.9287 10.1684 62.1774 10.0974C62.4438 10.0086 62.648 9.99079 62.7901 10.0441L63.6693 10.4171L64.9215 10.124L65.6409 10.3105L66.8931 10.4171C66.8753 10.3993 66.8664 10.3638 66.8664 10.3105C66.8842 10.2395 67.0085 10.1329 67.2394 9.99079C67.1684 10.0796 67.124 10.124 67.1062 10.124C67.1062 10.124 67.1062 10.1062 67.1062 10.0707C67.1062 10.0174 67.1062 9.96415 67.1062 9.91087C67.124 9.83982 67.1151 9.77766 67.0795 9.72437V9.21817L67.1062 7.77949V6.82037L67.0529 6.0211L67.0795 4.79556C67.1151 4.67123 67.1062 4.59131 67.0529 4.55578C66.9996 4.5025 66.9641 4.52026 66.9463 4.60907L65.5876 4.55578L64.7084 4.66235L63.989 4.47586L62.6569 4.66235C62.5503 4.59131 62.4349 4.5469 62.3106 4.52914C62.204 4.49362 62.0885 4.41369 61.9642 4.28936C61.7333 4.0407 61.5912 3.85421 61.5379 3.72988C61.5024 3.60555 61.5024 3.55226 61.5379 3.57002C61.4314 3.44569 61.3959 3.25032 61.4314 2.9839C61.4669 2.71747 61.5468 2.57538 61.6712 2.55762C61.9376 2.34448 62.133 2.18463 62.2573 2.07806C62.3816 1.97149 62.4704 1.97149 62.5237 2.07806L63.696 1.99813L64.6018 1.97149L65.2945 1.89156L66.6 1.86492L67.2927 2.21127C67.4881 2.1047 67.6834 2.02477 67.8788 1.97149C68.0742 1.91821 68.3406 1.90933 68.6781 1.94485C68.7669 2.06918 68.8202 2.18463 68.8379 2.2912C68.8557 2.38 68.9445 2.45105 69.1044 2.50434C69.2287 2.753 69.3441 2.98389 69.4507 3.19703C69.575 3.39241 69.5928 3.60555 69.504 3.83644C69.6461 3.81868 69.7438 3.94301 69.7971 4.20944C69.8503 4.47586 69.8592 4.74228 69.8237 5.0087C69.7527 5.06199 69.6994 5.14191 69.6639 5.24848C69.6283 5.33729 69.6106 5.43498 69.6106 5.54154C69.6283 5.64811 69.655 5.7458 69.6905 5.83461C69.7438 5.90566 69.8237 5.94118 69.9303 5.94118C69.8059 6.29641 69.7171 6.58947 69.6639 6.82037C69.6106 7.05127 69.6639 7.18448 69.8237 7.22L69.7704 8.4189L69.7971 9.2981L69.7704 9.32474L70.623 9.24481L72.2748 9.43131C72.3103 9.28922 72.2926 9.12936 72.2215 8.95175C72.1505 8.77413 72.0617 8.561 71.9551 8.31233C72.1682 8.25905 72.2748 8.21465 72.2748 8.17912C72.2748 8.12584 72.2659 8.02815 72.2482 7.88606C72.2659 7.72621 72.2304 7.55747 72.1416 7.37986C72.0528 7.18448 71.964 6.97134 71.8752 6.74044C71.9285 6.63388 71.9373 6.52731 71.9018 6.42074C71.884 6.29641 71.8752 6.07439 71.8752 5.75468C71.9462 5.7014 71.9817 5.63923 71.9817 5.56819C71.9995 5.49714 71.9995 5.4261 71.9817 5.35505C71.964 5.26624 71.9551 5.17744 71.9551 5.08863C71.9729 4.98206 72.0173 4.87549 72.0883 4.76892C72.0528 4.69788 72.0173 4.60907 71.9817 4.5025C71.9462 4.39593 71.9196 4.28936 71.9018 4.18279C71.9018 4.07622 71.9107 3.98742 71.9285 3.91637C71.9462 3.82756 71.9906 3.77428 72.0617 3.75652C72.1327 3.5789 72.1505 3.36577 72.1149 3.11711C72.0972 2.85068 71.9906 2.69971 71.7952 2.66419L72.1416 2.2912L71.9018 2.1047C71.9729 1.92709 72.0261 1.81164 72.0617 1.75835C72.0972 1.68731 72.0617 1.52745 71.9551 1.27879C72.1327 1.20775 72.2659 1.11006 72.3547 0.985729C72.4435 0.843638 72.6123 0.75483 72.8609 0.719307C73.1096 0.843638 73.3227 0.950207 73.5003 1.03901C73.678 1.12782 73.8911 1.18999 74.1398 1.22551C74.193 1.27879 74.2375 1.40312 74.273 1.5985C74.3085 1.79388 74.3351 1.99813 74.3529 2.21127C74.3529 2.30008 74.3795 2.41553 74.4328 2.55762C74.4861 2.69971 74.4684 2.89509 74.3795 3.14375C74.3795 3.17927 74.3795 3.2592 74.3795 3.38353C74.3973 3.50786 74.4506 3.74764 74.5394 4.10287C74.5216 4.24496 74.5483 4.38705 74.6193 4.52914C74.6904 4.65347 74.7348 4.76004 74.7525 4.84885C74.6637 5.04422 74.6193 5.18632 74.6193 5.27512C74.6193 5.36393 74.6193 5.4261 74.6193 5.46162C74.6371 5.49714 74.646 5.52378 74.646 5.54154C74.646 5.55931 74.6193 5.59483 74.566 5.64811C74.6548 5.82573 74.6993 5.96782 74.6993 6.07439C74.717 6.1632 74.717 6.24312 74.6993 6.31417C74.6993 6.38522 74.6993 6.46514 74.6993 6.55395C74.717 6.64276 74.7703 6.76709 74.8591 6.92694V7.06015C74.8591 7.18448 74.8769 7.28217 74.9124 7.35322C74.8058 7.51307 74.7348 7.65516 74.6993 7.77949C74.6815 7.90382 74.6726 8.00151 74.6726 8.07255C74.6726 8.1436 74.6726 8.20577 74.6726 8.25905C74.6904 8.29457 74.6815 8.31233 74.646 8.31233C74.6637 8.66756 74.6992 8.90734 74.7525 9.03167C74.8058 9.13824 74.7881 9.18265 74.6993 9.16488C74.717 9.30698 74.7259 9.42243 74.7259 9.51123C74.7259 9.58228 74.7259 9.66221 74.7259 9.75101C74.7259 9.82206 74.7348 9.91087 74.7525 10.0174C74.7703 10.1062 74.8058 10.2306 74.8591 10.3904C74.8769 10.3727 74.8857 10.3993 74.8857 10.4704C74.8857 10.5236 74.8769 10.5947 74.8591 10.6835C74.8413 10.7723 74.8236 10.87 74.8058 10.9766C74.7881 11.0654 74.7792 11.1364 74.7792 11.1897C74.7792 11.1897 74.7703 11.2252 74.7525 11.2963C74.7525 11.3673 74.7525 11.4561 74.7525 11.5627C74.7525 11.6693 74.7703 11.7758 74.8058 11.8824C74.8413 11.989 74.9124 12.0778 75.019 12.1488C74.8413 12.1133 74.7348 12.1577 74.6993 12.282C74.6637 12.4064 74.6904 12.5928 74.7792 12.8415C74.8502 12.8593 74.8502 12.957 74.7792 13.1346C74.7259 13.3122 74.7437 13.5076 74.8325 13.7207C74.7969 13.8628 74.7703 13.9782 74.7525 14.067C74.7348 14.1381 74.7703 14.2091 74.8591 14.2802C74.8058 14.3512 74.7703 14.4489 74.7525 14.5733C74.7348 14.6798 74.7259 14.7864 74.7259 14.893C74.7437 14.9995 74.7703 15.0883 74.8058 15.1594C74.8413 15.2304 74.8946 15.2659 74.9657 15.2659C74.9302 15.3015 74.8857 15.3636 74.8325 15.4524C74.7969 15.5235 74.7614 15.6123 74.7259 15.7189C74.7081 15.8077 74.6993 15.8965 74.6993 15.9853C74.6993 16.0563 74.7259 16.1007 74.7792 16.1185C74.8858 16.4027 74.9213 16.5981 74.8857 16.7046C74.868 16.8112 74.8147 16.9977 74.7259 17.2641C74.7614 17.2464 74.7792 17.2641 74.7792 17.3174C74.7792 17.3529 74.7792 17.4151 74.7792 17.5039C74.7792 17.5749 74.7881 17.6549 74.8058 17.7437C74.8236 17.8325 74.868 17.9035 74.939 17.9568C74.7969 18.0634 74.6993 18.2765 74.646 18.5962C74.6104 18.9159 74.6637 19.2534 74.8058 19.6086C74.6282 19.7507 74.5128 19.9461 74.4595 20.1948C74.4239 20.4434 74.3618 20.7098 74.273 20.994C74.3263 21.296 74.2641 21.5357 74.0865 21.7134C73.9266 21.891 73.5803 21.9443 73.0474 21.8732C72.9586 22.0508 72.8521 22.113 72.7277 22.0597C72.6034 22.0064 72.559 21.8288 72.5945 21.5269C72.3991 21.4203 72.2482 21.3048 72.1416 21.1805C72.035 21.0562 72.0528 21.0118 72.1949 21.0473C72.2126 20.923 72.2038 20.8075 72.1682 20.701C72.1505 20.6122 72.1327 20.5233 72.1149 20.4345C72.0972 20.3635 72.0883 20.2924 72.0883 20.2214C72.1061 20.1681 72.1682 20.1148 72.2748 20.0615C72.186 19.9727 72.1682 19.8484 72.2215 19.6886C72.2926 19.5287 72.3014 19.3511 72.2482 19.1557C72.2126 18.907 72.186 18.7472 72.1682 18.6762C72.1682 18.5873 72.115 18.4719 72.0084 18.3298C72.0261 18.241 72.0261 18.1167 72.0084 17.9568C71.9906 17.797 72.0528 17.6726 72.1949 17.5838C72.1949 17.2464 72.2126 17.0066 72.2482 16.8645C72.3014 16.7224 72.3458 16.6069 72.3814 16.5181C72.2748 16.3228 72.2038 16.1185 72.1682 15.9054C72.1327 15.6745 72.1327 15.5146 72.1682 15.4258C72.257 15.4258 72.3103 15.3459 72.3281 15.186C72.3636 15.0262 72.3636 14.813 72.3281 14.5466C72.3458 14.4756 72.3458 14.3956 72.3281 14.3068C72.3103 14.2003 72.2926 14.1115 72.2748 14.0404C72.257 13.9516 72.257 13.8806 72.2748 13.8273C72.2926 13.7562 72.3458 13.7207 72.4347 13.7207C72.3991 13.5964 72.337 13.4543 72.2482 13.2944C72.1593 13.1168 72.1593 13.0102 72.2482 12.9747C72.2837 12.7793 72.2926 12.6373 72.2748 12.5484C72.2748 12.4419 72.2659 12.3708 72.2482 12.3353C72.2304 12.282 72.2038 12.2376 72.1682 12.2021C72.1505 12.1666 72.1327 12.1222 72.1149 12.0689L71.1025 11.6693L70.1168 12.0156L69.7438 12.0955L69.7171 11.6959C69.5573 11.7847 69.433 11.8646 69.3441 11.9357C69.2553 12.0067 69.1843 12.0689 69.131 12.1222C69.0777 12.1577 69.0244 12.2021 68.9712 12.2554C68.9179 12.2909 68.8557 12.3264 68.7847 12.3619C68.4117 12.5751 68.1008 12.6728 67.8522 12.655C67.6035 12.6195 67.3815 12.6017 67.1861 12.6017L66.4668 12.5484L64.9748 12.8682L63.989 12.7616L63.6693 12.655L63.7759 12.8682L64.1489 13.3477L63.7493 14.2535L64.0423 14.6532L63.9091 15.559L63.7759 16.5981L63.8025 17.4773C63.8025 17.5838 63.8203 17.6637 63.8558 17.717C63.9091 17.7526 63.9624 17.7881 64.0157 17.8236C64.069 17.8414 64.1222 17.8591 64.1755 17.8769C64.2288 17.8946 64.2555 17.9124 64.2555 17.9302C64.3087 18.0012 64.3709 18.0456 64.442 18.0634C64.5308 18.0634 64.6018 18.0634 64.6551 18.0634C64.7261 18.0634 64.7883 18.0811 64.8416 18.1167C64.8949 18.1522 64.9215 18.2232 64.9215 18.3298C65.259 18.2943 65.5254 18.2676 65.7208 18.2499C65.9339 18.2144 66.1293 18.1522 66.3069 18.0634C66.3957 18.0279 66.4757 18.019 66.5467 18.0367C66.6355 18.0367 66.7243 18.0545 66.8131 18.09C66.9019 18.1078 66.9996 18.1344 67.1062 18.1699C67.2305 18.1877 67.3726 18.2055 67.5325 18.2232C67.5502 18.0634 67.6302 17.9657 67.7722 17.9302C67.9143 17.8769 68.1097 17.7881 68.3584 17.6637L68.9179 17.797C69.131 17.9213 69.2997 17.9746 69.4241 17.9568C69.5662 17.939 69.7438 17.9746 69.9569 18.0634C70.0635 18.0634 70.1168 18.1699 70.1168 18.3831C70.1345 18.5785 70.0635 18.8271 69.9036 19.1291C69.9569 19.1468 69.9836 19.2268 69.9836 19.3688C69.9836 19.4932 69.9125 19.5731 69.7704 19.6086C69.6816 19.875 69.5839 20.026 69.4774 20.0615C69.3885 20.1148 69.2731 20.2214 69.131 20.3813C69.06 20.3102 68.9712 20.2658 68.8646 20.248C68.7758 20.248 68.687 20.248 68.5982 20.248C68.5094 20.2658 68.4383 20.2658 68.385 20.248C68.3317 20.248 68.3051 20.2125 68.3051 20.1415C68.2163 20.1592 68.1097 20.1859 67.9854 20.2214C67.8611 20.2569 67.7456 20.2924 67.639 20.328C67.5325 20.3635 67.4348 20.3901 67.346 20.4079C67.2749 20.4257 67.2305 20.4257 67.2128 20.4079C67.1062 20.3901 66.9463 20.4168 66.7332 20.4878C66.5378 20.5589 66.3158 20.6388 66.0671 20.7276C65.9073 20.5855 65.7918 20.4878 65.7208 20.4345C65.6497 20.3813 65.4899 20.399 65.2412 20.4878C64.9926 20.399 64.8061 20.328 64.6817 20.2747C64.5752 20.2392 64.5396 20.2569 64.5752 20.328C64.2732 20.3635 64.0601 20.399 63.9358 20.4345C63.8114 20.4878 63.6516 20.5056 63.4562 20.4878C63.4029 20.4701 63.323 20.4345 63.2164 20.3813C63.1098 20.3457 62.9944 20.3102 62.8701 20.2747C62.7635 20.2569 62.6569 20.248 62.5504 20.248C62.4615 20.2658 62.3994 20.3102 62.3639 20.3813C62.2573 20.2214 62.1862 20.1415 62.1507 20.1415C62.133 20.1415 62.0885 20.0971 62.0175 20.0083C61.7688 19.8484 61.6179 19.7241 61.5646 19.6353C61.5291 19.5287 61.4314 19.431 61.2715 19.3422C61.2715 19.0935 61.2804 18.8804 61.2982 18.7028C61.3337 18.5074 61.307 18.3653 61.2182 18.2765L61.1916 18.1433Z" fill="#4A5578"/>
<path d="M41.9468 6.5007C41.7691 6.34084 41.6537 6.19875 41.6004 6.07442C41.5471 5.95009 41.5205 5.84352 41.5205 5.75472C41.5205 5.64815 41.5383 5.55046 41.5738 5.46165C41.6093 5.37284 41.6359 5.28404 41.6537 5.19523L41.2541 4.07626L41.5205 3.03721L41.2274 1.94488L41.6537 1.97152L41.3873 1.8916L41.8668 1.30547C41.8313 1.1989 41.8668 1.08345 41.9734 0.959119C42.08 0.817027 42.1155 0.648294 42.08 0.452918C42.2043 0.399633 42.302 0.372991 42.373 0.372991C42.4618 0.372991 42.524 0.372991 42.5595 0.372991C42.6128 0.372991 42.6572 0.36411 42.6928 0.346349C42.7283 0.310826 42.7638 0.23978 42.7993 0.133211C42.8881 0.186496 42.9769 0.213138 43.0657 0.213138C43.1723 0.195377 43.2611 0.177615 43.3322 0.159854C43.421 0.142092 43.5009 0.133211 43.5719 0.133211C43.643 0.133211 43.6963 0.168734 43.7318 0.23978C44.0337 0.204258 44.238 0.168734 44.3446 0.133211C44.4689 0.0976883 44.5755 0.0976883 44.6643 0.133211C44.7886 0.0799271 44.8952 0.0621658 44.984 0.079927C45.0906 0.0976883 45.1882 0.124331 45.2771 0.159854C45.3659 0.195377 45.4547 0.222019 45.5435 0.23978C45.65 0.257541 45.7566 0.24866 45.8632 0.213138C46.0408 0.159853 46.2007 0.177614 46.3428 0.266422C46.5026 0.337468 46.6003 0.328587 46.6358 0.23978C46.6358 0.222019 46.7335 0.195377 46.9289 0.159854C47.142 0.106569 47.3196 0.133212 47.4617 0.23978C47.4617 0.186496 47.4884 0.168735 47.5417 0.186496C47.5949 0.186496 47.6482 0.204258 47.7015 0.23978C47.7726 0.275304 47.8347 0.310826 47.888 0.346349C47.9591 0.36411 48.0212 0.36411 48.0745 0.346349C48.5008 0.293064 48.7761 0.390752 48.9004 0.639412C49.0425 0.870312 49.0958 1.11897 49.0603 1.3854C49.0603 1.66958 49.078 1.85607 49.1136 1.94488C49.1491 2.01593 49.1136 2.06921 49.007 2.10473C48.8827 2.35339 48.7139 2.53101 48.5008 2.63758C48.2876 2.74415 48.1278 2.75303 48.0212 2.66422C47.7548 2.64646 47.5683 2.65534 47.4617 2.69086C47.3729 2.70862 47.2575 2.73527 47.1154 2.77079C47.0088 2.69974 46.92 2.66422 46.849 2.66422C46.7779 2.64646 46.6891 2.64646 46.5825 2.66422C46.4937 2.66422 46.3872 2.6731 46.2628 2.69086C46.1563 2.69086 46.0142 2.6731 45.8365 2.63758C45.5346 2.53101 45.3215 2.54877 45.1971 2.69086C45.1794 2.70862 45.1261 2.7175 45.0373 2.7175C44.9662 2.69974 44.8774 2.69086 44.7709 2.69086C44.6643 2.6731 44.5577 2.66422 44.4511 2.66422C44.3446 2.64646 44.2558 2.63758 44.1847 2.63758L44.0515 2.42444L44.1581 2.82407H44.2114L44.0782 3.96969C44.0604 4.18283 44.0515 4.35156 44.0515 4.47589C44.0693 4.60022 44.0959 4.69791 44.1314 4.76895C44.1847 4.84 44.2558 4.89328 44.3446 4.92881C44.4511 4.96433 44.6021 4.99985 44.7975 5.03538C45.0284 5.15971 45.2149 5.16859 45.357 5.06202C45.5168 4.95545 45.7122 4.87552 45.9431 4.82224C45.9964 4.84 46.0408 4.87552 46.0763 4.92881C46.1296 4.98209 46.1829 5.0265 46.2362 5.06202C46.2895 5.07978 46.3516 5.08866 46.4227 5.08866C46.4937 5.0709 46.5736 5.01761 46.6625 4.92881C46.9466 4.98209 47.1687 4.98209 47.3285 4.92881C47.5061 4.87552 47.5949 4.94657 47.5949 5.14195L48.0745 4.87552C48.1811 4.92881 48.261 4.97321 48.3143 5.00873C48.3676 5.04426 48.4209 5.0709 48.4741 5.08866C48.5274 5.10642 48.5807 5.1153 48.634 5.1153C48.705 5.09754 48.8027 5.06202 48.9271 5.00873C48.9448 5.15083 48.9715 5.27516 49.007 5.38173C49.0425 5.47053 49.0691 5.55934 49.0869 5.64815C49.1047 5.71919 49.1136 5.808 49.1136 5.91457C49.1313 6.02114 49.1224 6.15435 49.0869 6.3142C49.158 6.27868 49.1846 6.27868 49.1668 6.3142C49.1668 6.34972 49.1402 6.41189 49.0869 6.5007C49.0514 6.57174 49.007 6.66055 48.9537 6.76712C48.9182 6.87369 48.9093 6.98914 48.9271 7.11347C48.9271 7.2378 48.8294 7.32661 48.634 7.37989C48.4564 7.41541 48.2699 7.41541 48.0745 7.37989L47.3552 7.45982L46.0763 7.43317L45.357 7.27332L44.8241 7.40653L43.8384 7.53974C43.5364 7.50422 43.2966 7.45982 43.119 7.40653C42.9592 7.33549 42.7105 7.16675 42.373 6.90033C42.373 6.93585 42.2931 6.87369 42.1333 6.71384C41.9734 6.53622 41.8313 6.38525 41.707 6.26092L41.9468 6.5007ZM49.673 6.39413C49.5487 6.25204 49.4155 6.10106 49.2734 5.94121C49.1313 5.78136 49.0514 5.71031 49.0336 5.72807L48.9803 5.00873C49.1757 4.83112 49.2823 4.6535 49.3 4.47589C49.3356 4.29828 49.3622 4.03185 49.38 3.67662C49.2556 3.6411 49.1757 3.56117 49.1402 3.43684C49.1047 3.31251 49.1668 3.0905 49.3267 2.77079C49.3089 2.77079 49.2912 2.74415 49.2734 2.69086C49.2556 2.63758 49.2379 2.56653 49.2201 2.47772C49.2024 2.38892 49.1846 2.30899 49.1668 2.23794C49.1668 2.14914 49.1668 2.07809 49.1668 2.02481L49.2201 1.81167H49.1668L49.1402 1.67846C49.2645 1.55413 49.3533 1.43868 49.4066 1.33211C49.4599 1.22554 49.5132 1.12785 49.5665 1.03905C49.6198 0.932477 49.6819 0.84367 49.753 0.772625C49.8418 0.701579 49.9572 0.648294 50.0993 0.61277C50.1526 0.595009 50.1881 0.568367 50.2059 0.532845C50.2414 0.497321 50.2769 0.470679 50.3125 0.452918C50.348 0.417395 50.4101 0.399634 50.499 0.399634C50.5878 0.381872 50.7121 0.381872 50.8719 0.399634C50.9963 0.310826 51.1206 0.23978 51.2449 0.186496C51.3693 0.133211 51.4758 0.195376 51.5646 0.372991C51.7067 0.319707 51.8932 0.23978 52.1241 0.133211C52.3728 0.0266423 52.6215 0.0444042 52.8701 0.186496C52.9234 0.168735 52.9767 0.168735 53.03 0.186496C53.101 0.204257 53.1721 0.213138 53.2431 0.213138C53.3142 0.213138 53.3674 0.204257 53.403 0.186496C53.4385 0.150973 53.4563 0.0888072 53.4563 0C53.8292 0.195377 54.0779 0.284184 54.2022 0.266422C54.3266 0.230899 54.3887 0.150972 54.3887 0.0266416C54.6729 0.0976876 54.9038 0.133211 55.0814 0.133211C55.2591 0.133211 55.49 0.106569 55.7741 0.0532854C55.8629 0.0355231 55.9695 0.0532839 56.0938 0.106569C56.2182 0.142092 56.3603 0.257542 56.5201 0.452918C56.8576 0.48844 57.0796 0.60389 57.1862 0.799266C57.2927 0.994642 57.3638 1.1545 57.3993 1.27883C57.4348 1.38539 57.4615 1.55413 57.4792 1.78503C57.497 2.01593 57.3904 2.15802 57.1595 2.2113C57.0885 2.26459 57.0174 2.32675 56.9464 2.3978C56.8753 2.46884 56.7954 2.53101 56.7066 2.58429C56.6178 2.61982 56.529 2.64646 56.4402 2.66422C56.3514 2.66422 56.2626 2.61982 56.1738 2.53101C56.0672 2.58429 55.9873 2.6287 55.934 2.66422C55.8985 2.69974 55.8541 2.7175 55.8008 2.7175C55.7653 2.7175 55.712 2.69974 55.6409 2.66422C55.5876 2.61094 55.4988 2.53989 55.3745 2.45108C55.3567 2.53989 55.3123 2.59317 55.2413 2.61094C55.188 2.6287 55.1258 2.63758 55.0548 2.63758C54.9837 2.63758 54.9127 2.64646 54.8417 2.66422C54.7706 2.68198 54.7173 2.73527 54.6818 2.82407C54.5397 2.7175 54.4243 2.64646 54.3354 2.61094C54.2644 2.55765 54.1934 2.52213 54.1223 2.50437C54.0513 2.48661 53.9802 2.47772 53.9092 2.47772C53.8559 2.45996 53.7848 2.42444 53.696 2.37116C53.5539 2.4422 53.4474 2.49549 53.3763 2.53101C53.3053 2.56653 53.2342 2.60206 53.1632 2.63758C53.1099 2.65534 53.0477 2.6731 52.9767 2.69086C52.9056 2.69086 52.7902 2.69086 52.6303 2.69086C52.6126 2.69086 52.5771 2.68198 52.5238 2.66422C52.4705 2.64646 52.4261 2.6287 52.3906 2.61094C52.355 2.59317 52.3284 2.59317 52.3106 2.61094C52.2929 2.61094 52.3018 2.63758 52.3373 2.69086H51.9376L51.7511 2.79743C51.8044 2.77967 51.8222 2.77079 51.8044 2.77079C51.7867 2.77079 51.76 2.77967 51.7245 2.79743C51.7067 2.79743 51.6801 2.80631 51.6446 2.82407C51.6268 2.84183 51.6446 2.86848 51.6979 2.904L51.911 4.04961L51.9376 4.39596L51.8577 4.7956C51.911 4.7956 51.9643 4.83112 52.0176 4.90216C52.0886 4.95545 52.1508 5.00873 52.2041 5.06202C52.2573 5.1153 52.3106 5.15083 52.3639 5.16859C52.435 5.18635 52.4971 5.15083 52.5504 5.06202C52.5859 5.07978 52.6925 5.08866 52.8701 5.08866C53.0655 5.08866 53.2786 5.03538 53.5095 4.92881C53.7582 5.15971 53.9358 5.26627 54.0424 5.24851C54.1667 5.23075 54.22 5.13307 54.2022 4.95545C54.3266 5.04426 54.4331 5.10642 54.5219 5.14195C54.6108 5.15971 54.6907 5.16859 54.7617 5.16859C54.8505 5.15083 54.9482 5.1153 55.0548 5.06202C55.1614 5.00873 55.3035 4.95545 55.4811 4.90216C55.5876 4.8844 55.6942 4.91993 55.8008 5.00873C55.9251 5.07978 56.0317 5.17747 56.1205 5.3018C56.2803 5.19523 56.4136 5.14195 56.5201 5.14195C56.6267 5.12418 56.7155 5.13306 56.7865 5.16859C56.8753 5.18635 56.9464 5.21299 56.9997 5.24851C57.053 5.26627 57.1063 5.27516 57.1595 5.27516C57.1418 5.52382 57.1773 5.75472 57.2661 5.96785C57.3549 6.16323 57.3371 6.35861 57.2128 6.55398C57.2661 6.64279 57.275 6.74048 57.2395 6.84705C57.2039 6.93585 57.1329 7.02466 57.0263 7.11347C56.9375 7.20227 56.8221 7.2822 56.68 7.35325C56.5379 7.40653 56.3869 7.43317 56.2271 7.43317L55.5344 7.72624L54.6818 7.43317L53.6427 7.72624L52.3373 7.67295L51.4314 7.5131C51.1472 7.54862 50.9075 7.57527 50.7121 7.59303C50.5167 7.59303 50.4634 7.53086 50.5522 7.40653C50.2858 7.37101 50.0904 7.29108 49.9661 7.16675C49.8418 7.02466 49.6819 6.80264 49.4865 6.5007L49.673 6.39413ZM41.4672 21.2871C41.3784 21.2516 41.3606 21.1273 41.4139 20.9141C41.485 20.7188 41.6004 20.5411 41.7603 20.3813C41.6004 20.2037 41.5116 19.9994 41.4938 19.7685C41.4938 19.5199 41.4494 19.3067 41.3606 19.1291C41.2008 18.7561 41.2452 18.4009 41.4938 18.0634C41.4583 17.9924 41.4761 17.8947 41.5471 17.7703C41.6359 17.6283 41.5915 17.4862 41.4139 17.3441C41.485 17.2197 41.6359 17.1132 41.8668 17.0244C42.1155 16.9356 42.2487 16.8201 42.2665 16.678C42.3553 16.6247 42.4885 16.5981 42.6661 16.5981C42.8615 16.5803 43.0125 16.5004 43.119 16.3583L43.3855 16.7579C43.4387 16.7047 43.5009 16.6603 43.5719 16.6247C43.6608 16.5892 43.7407 16.5714 43.8117 16.5714C43.8828 16.5537 43.9361 16.5626 43.9716 16.5981C44.0071 16.6159 44.016 16.6603 43.9982 16.7313C44.2469 16.6958 44.4778 16.7047 44.6909 16.7579C44.9041 16.8112 44.984 16.8379 44.9307 16.8379C45.1083 16.6958 45.3126 16.6247 45.5435 16.6247C45.7921 16.607 45.9254 16.678 45.9431 16.8379C46.0319 16.8379 46.1829 16.829 46.396 16.8112C46.6269 16.7935 46.8223 16.7402 46.9822 16.6514C47.0355 16.7935 47.1243 16.8556 47.2486 16.8379C47.3729 16.8201 47.5061 16.7579 47.6482 16.6514C47.8258 16.7402 47.959 16.7935 48.0479 16.8112C48.1367 16.829 48.2166 16.8379 48.2876 16.8379C48.3764 16.8379 48.4653 16.8468 48.5541 16.8645C48.6429 16.8645 48.7761 16.9 48.9537 16.9711C48.9359 16.829 49.0159 16.7757 49.1935 16.8112C49.3889 16.8468 49.5576 16.9089 49.6997 16.9977C49.7885 16.7846 49.9217 16.6958 50.0993 16.7313C50.2769 16.7668 50.4368 16.8023 50.5789 16.8379C50.6855 16.7491 50.8098 16.7224 50.9519 16.7579C51.1117 16.7935 51.2805 16.7757 51.4581 16.7047C51.6535 16.6159 51.7778 16.5981 51.8311 16.6514C51.8844 16.6869 51.9465 16.7935 52.0176 16.9711C52.1774 16.829 52.355 16.7757 52.5504 16.8112C52.7636 16.8468 52.9945 16.8468 53.2431 16.8112C53.2609 16.8112 53.2875 16.7935 53.323 16.7579C53.3586 16.7047 53.4118 16.6514 53.4829 16.5981C53.5539 16.5448 53.6427 16.5004 53.7493 16.4649C53.8736 16.4294 54.0157 16.4205 54.1756 16.4382C54.3177 16.527 54.4065 16.5626 54.442 16.5448C54.4953 16.527 54.5131 16.385 54.4953 16.1185L54.3887 15.9587L54.6552 15.5058C54.4065 15.4347 54.291 15.417 54.3088 15.4525C54.3443 15.488 54.3887 15.4702 54.442 15.3992L53.8292 15.266C53.7404 15.3015 53.6694 15.3459 53.6161 15.3992C53.5628 15.4525 53.5095 15.4969 53.4563 15.5324C53.403 15.5502 53.3319 15.559 53.2431 15.559C53.1543 15.5413 53.03 15.488 52.8701 15.3992C52.7636 15.559 52.6215 15.6123 52.4438 15.559C52.2662 15.5058 52.1064 15.4969 51.9643 15.5324C51.8577 15.5679 51.7423 15.5857 51.6179 15.5857C51.5114 15.5857 51.4048 15.5857 51.2982 15.5857C51.2094 15.5679 51.1206 15.5679 51.0318 15.5857C50.9608 15.5857 50.9075 15.6212 50.8719 15.6923C50.7121 15.71 50.5611 15.71 50.419 15.6923C50.2769 15.6567 50.0727 15.6745 49.8063 15.7455C49.6464 15.71 49.5398 15.7011 49.4865 15.7189C49.451 15.7367 49.3977 15.7189 49.3267 15.6656C49.0247 15.6834 48.7938 15.7011 48.634 15.7189C48.4741 15.7367 48.2255 15.7633 47.888 15.7988C47.817 15.6745 47.7193 15.5946 47.5949 15.559C47.4884 15.5058 47.3108 15.488 47.0621 15.5058C47.0266 15.5768 46.9022 15.6212 46.6891 15.639C46.476 15.639 46.2806 15.559 46.103 15.3992C46.1207 15.4525 46.0941 15.488 46.023 15.5058C45.952 15.5058 45.8632 15.4969 45.7566 15.4791C45.65 15.4614 45.5524 15.4436 45.4636 15.4258C45.3747 15.4081 45.3303 15.3992 45.3303 15.3992C45.135 15.5235 44.9396 15.6034 44.7442 15.639C44.5666 15.6745 44.3535 15.7367 44.1048 15.8255C44.016 15.7367 43.9272 15.6834 43.8384 15.6656C43.7496 15.6301 43.6519 15.6034 43.5453 15.5857C43.4565 15.5679 43.3499 15.5502 43.2256 15.5324C43.119 15.5146 43.0036 15.4614 42.8792 15.3726C42.8615 15.2837 42.6572 15.1328 42.2665 14.9196C42.1777 14.7598 42.0889 14.6443 42.0001 14.5733C41.929 14.4845 41.9379 14.3157 42.0267 14.0671C41.8668 13.9428 41.8402 13.8362 41.9468 13.7474C42.0711 13.6586 42.1777 13.5431 42.2665 13.401C42.2842 13.3655 42.3553 13.2767 42.4796 13.1346C42.6039 12.9748 42.7549 12.9037 42.9325 12.9215C43.0036 13.0813 43.1101 13.1612 43.2522 13.1612C43.3943 13.1612 43.492 13.1168 43.5453 13.028C43.7229 12.9748 43.865 12.957 43.9716 12.9748C44.0959 12.9748 44.1936 12.9836 44.2647 13.0014C44.3357 13.0192 44.389 13.028 44.4245 13.028C44.46 13.028 44.4956 12.9925 44.5311 12.9215C44.7265 12.957 44.8774 12.9836 44.984 13.0014C45.1083 13.0192 45.3215 13.0103 45.6234 12.9748C45.6945 13.0813 45.7655 13.1524 45.8365 13.1879C45.9076 13.2057 45.9786 13.2234 46.0497 13.2412C46.1385 13.2412 46.2273 13.2501 46.3161 13.2678C46.4227 13.2856 46.547 13.3211 46.6891 13.3744C46.9378 13.3744 47.1331 13.3566 47.2752 13.3211C47.4173 13.2856 47.6393 13.2145 47.9413 13.108C47.9058 13.0014 47.8791 12.9126 47.8614 12.8415C47.8436 12.7705 47.8258 12.6994 47.8081 12.6284C47.8081 12.5574 47.7903 12.4774 47.7548 12.3886C47.7193 12.2821 47.6749 12.1488 47.6216 11.989L47.9146 11.0832C47.6305 11.0654 47.3996 11.0565 47.2219 11.0565C47.0443 11.0388 46.9555 11.0743 46.9555 11.1631C46.7957 11.1986 46.6003 11.2075 46.3694 11.1897C46.1385 11.1542 46.023 11.1542 46.023 11.1897C45.8809 11.2075 45.7566 11.2252 45.6501 11.243C45.5612 11.2608 45.4724 11.2785 45.3836 11.2963C45.3126 11.3141 45.2327 11.3229 45.1438 11.3229C45.055 11.3229 44.9485 11.3052 44.8241 11.2697C44.7353 11.2519 44.6199 11.243 44.4778 11.243C44.3357 11.243 44.2025 11.2075 44.0782 11.1364C43.7762 11.0832 43.5364 11.0476 43.3588 11.0299C43.199 10.9943 42.9947 11.0743 42.746 11.2697C42.7638 11.1631 42.7549 11.092 42.7194 11.0565C42.6839 11.021 42.6217 10.9943 42.5329 10.9766C42.4619 10.9588 42.3642 10.9499 42.2398 10.9499C42.1155 10.9322 41.9734 10.9055 41.8136 10.87C41.8313 10.9588 41.8047 11.0032 41.7336 11.0032C41.6626 11.0032 41.5738 10.9766 41.4672 10.9233C41.3606 10.8523 41.2541 10.7723 41.1475 10.6835C41.0409 10.5947 40.9699 10.5148 40.9344 10.4437C41.0054 10.497 41.0409 10.5148 41.0409 10.497C41.0409 10.4793 41.0232 10.4437 40.9876 10.3905C40.9699 10.3372 40.9432 10.275 40.9077 10.204C40.89 10.1329 40.89 10.0619 40.9077 9.99083C40.9965 9.75993 40.9965 9.56455 40.9077 9.4047C40.8367 9.22708 40.8456 9.13827 40.9344 9.13827C41.0587 8.9429 41.2363 8.79193 41.4672 8.68536C41.7159 8.56103 41.9556 8.51662 42.1865 8.55215C42.2931 8.53439 42.3642 8.54327 42.3997 8.57879C42.453 8.59655 42.4974 8.62319 42.5329 8.65872C42.5862 8.69424 42.6306 8.72976 42.6661 8.76528C42.7194 8.80081 42.7993 8.80969 42.9059 8.79193C43.1546 8.77417 43.3677 8.7564 43.5453 8.73864C43.7229 8.72088 43.9094 8.7564 44.1048 8.84521C44.3179 8.88073 44.4511 8.90738 44.5044 8.92514C44.5577 8.92514 44.6732 8.90738 44.8508 8.87185C45.0462 8.72976 45.1971 8.65872 45.3037 8.65872C45.428 8.64095 45.579 8.61431 45.7566 8.57879C46.0408 8.77417 46.2539 8.87185 46.396 8.87185C46.5559 8.85409 46.769 8.82745 47.0355 8.79193L47.8081 9.00506L49.007 8.87185L49.9661 8.65872L50.6055 9.00506L51.7245 8.68536C51.9376 8.64983 52.0975 8.64983 52.2041 8.68536C52.3284 8.70312 52.4705 8.76528 52.6303 8.87185C52.6836 8.85409 52.7636 8.83633 52.8701 8.81857C52.9767 8.78305 53.0921 8.76528 53.2165 8.76528C53.3408 8.74752 53.4563 8.7564 53.5628 8.79193C53.6872 8.82745 53.7937 8.8985 53.8825 9.00506C53.8825 8.88073 53.9713 8.77417 54.149 8.68536C54.3443 8.59655 54.5486 8.56991 54.7617 8.60543C54.7972 8.69424 54.9216 8.72976 55.1347 8.712C55.3656 8.69424 55.6054 8.61431 55.8541 8.47222C55.9073 8.56103 55.9606 8.60543 56.0139 8.60543C56.085 8.60543 56.1471 8.59655 56.2004 8.57879C56.2715 8.56103 56.3336 8.55215 56.3869 8.55215C56.4402 8.53439 56.4935 8.55215 56.5468 8.60543C56.7244 8.69424 56.8665 8.74752 56.973 8.76528C57.0796 8.78305 57.1862 8.77417 57.2927 8.73864C57.5414 8.91626 57.6746 9.08499 57.6924 9.24484C57.7279 9.4047 57.7279 9.60007 57.6924 9.83097C57.9233 9.8665 57.9943 9.98194 57.9055 10.1773C57.8167 10.3549 57.6302 10.4704 57.346 10.5237C57.4348 10.577 57.3904 10.648 57.2128 10.7368C57.0352 10.8079 56.8842 10.8611 56.7599 10.8967C56.7421 11.0743 56.6356 11.1453 56.4402 11.1098C56.2626 11.0565 56.0494 11.0565 55.8008 11.1098C55.6942 11.092 55.6143 11.0832 55.561 11.0832C55.5077 11.0654 55.4544 11.0654 55.4011 11.0832C55.3479 11.1009 55.2768 11.1276 55.188 11.1631C55.0992 11.1808 54.9749 11.2164 54.815 11.2697C54.6552 11.2519 54.5486 11.2608 54.4953 11.2963C54.442 11.3141 54.3443 11.3318 54.2022 11.3496C54.0779 11.2963 53.9181 11.2874 53.7227 11.3229C53.5273 11.3407 53.3852 11.3673 53.2964 11.4029C53.2076 11.3141 53.0655 11.2963 52.8701 11.3496C52.6925 11.3851 52.4705 11.4206 52.2041 11.4561C52.1863 11.3496 52.1419 11.2874 52.0708 11.2697C51.9998 11.2519 51.911 11.2608 51.8044 11.2963C51.7156 11.3141 51.6268 11.3407 51.538 11.3762C51.467 11.394 51.4137 11.4029 51.3781 11.4029C51.3249 11.2963 51.2538 11.2341 51.165 11.2164C51.094 11.1986 51.0052 11.1986 50.8986 11.2164C50.8098 11.2164 50.721 11.2252 50.6322 11.243C50.5611 11.243 50.499 11.2164 50.4457 11.1631L50.1526 11.9623L50.2858 12.7883L50.6055 13.028L51.5114 12.9748L52.5504 13.0014C52.7813 12.9126 52.9856 12.8771 53.1632 12.8948C53.3586 12.9126 53.6072 12.957 53.9092 13.028C54.0513 12.9037 54.2111 12.8593 54.3887 12.8948C54.5841 12.9303 54.7262 12.9303 54.815 12.8948C54.8683 12.8771 55.0193 12.9037 55.2679 12.9748C55.5344 13.028 55.7653 13.0636 55.9606 13.0813C56.1027 13.0991 56.2004 13.1701 56.2537 13.2945C56.3247 13.401 56.4757 13.4632 56.7066 13.481C56.7066 13.6053 56.7066 13.703 56.7066 13.774C56.7244 13.8273 56.7421 13.8806 56.7599 13.9339C56.7777 13.9694 56.7954 14.0138 56.8132 14.0671C56.8309 14.1204 56.8487 14.2092 56.8665 14.3335C56.8309 14.6887 56.8221 14.9996 56.8398 15.266C56.8576 15.5324 56.8132 15.71 56.7066 15.7988C56.7599 15.9942 56.8132 16.1629 56.8665 16.305C56.9198 16.4471 56.9553 16.5981 56.973 16.7579C56.9908 16.9 56.973 17.0599 56.9198 17.2375C56.8842 17.3974 56.8043 17.5927 56.68 17.8236C56.7155 18.0545 56.6622 18.2233 56.5201 18.3298C56.378 18.4186 56.2803 18.4808 56.2271 18.5163C56.1205 18.5519 56.0317 18.5963 55.9606 18.6495C55.8896 18.7028 55.8097 18.7472 55.7208 18.7828C55.6498 18.8183 55.5521 18.8538 55.4278 18.8893C55.3212 18.9071 55.1614 18.9071 54.9482 18.8893C54.9305 18.836 54.8949 18.8094 54.8417 18.8094C54.7884 18.8094 54.7173 18.8183 54.6285 18.836C54.5575 18.836 54.4687 18.836 54.3621 18.836C54.2555 18.836 54.1401 18.8005 54.0157 18.7295C54.0157 18.8183 53.9802 18.8804 53.9092 18.916C53.8381 18.9515 53.7404 18.9692 53.6161 18.9692C53.5095 18.9692 53.3852 18.9604 53.2431 18.9426C53.101 18.9071 52.9589 18.8893 52.8168 18.8893C52.7813 18.9959 52.6481 19.0492 52.4172 19.0492C52.2041 19.0314 52.0176 19.1113 51.8577 19.289C51.6979 19.1469 51.5114 19.0847 51.2982 19.1025C51.1028 19.1202 50.9341 19.2001 50.792 19.3422C50.5434 19.3422 50.3835 19.3245 50.3125 19.289C50.2592 19.2357 50.1171 19.1113 49.8862 18.916C49.7263 19.0048 49.5931 19.0669 49.4865 19.1025C49.3977 19.1202 49.3356 19.0581 49.3 18.916C49.158 19.0048 49.0336 19.0669 48.9271 19.1025C48.8382 19.138 48.7494 19.1557 48.6606 19.1557C48.5896 19.1557 48.5097 19.1469 48.4209 19.1291C48.3498 19.1113 48.2521 19.0936 48.1278 19.0758C47.9857 19.0048 47.8436 18.9781 47.7015 18.9959C47.5772 19.0137 47.4173 19.0225 47.2219 19.0225C46.92 19.1291 46.698 19.1557 46.5559 19.1025C46.4316 19.0492 46.4138 19.0225 46.5026 19.0225C46.4138 19.0581 46.2983 19.0847 46.1563 19.1025C46.0319 19.1025 45.8987 19.0936 45.7566 19.0758C45.6323 19.0403 45.5168 19.0048 45.4103 18.9692C45.3037 18.916 45.2238 18.8538 45.1705 18.7828C45.0462 18.8538 44.9485 18.8627 44.8774 18.8094C44.8241 18.7561 44.7531 18.7472 44.6643 18.7828C44.4867 18.9604 44.3801 19.0758 44.3446 19.1291C44.3091 19.1824 44.2735 19.2446 44.238 19.3156H44.2913L43.9449 19.9816C43.9272 19.9994 43.9449 20.0172 43.9982 20.0349C44.0515 20.0705 44.1226 20.0882 44.2114 20.0882C44.3002 20.106 44.389 20.1149 44.4778 20.1149C44.5844 20.1149 44.6732 20.0971 44.7442 20.0616C44.8153 20.2037 44.9129 20.2658 45.0373 20.2481C45.1616 20.2481 45.2859 20.2658 45.4103 20.3014C45.4813 20.3724 45.5435 20.4079 45.5968 20.4079C45.6678 20.4257 45.73 20.4257 45.7833 20.4079C45.8543 20.3902 45.9254 20.3724 45.9964 20.3546C46.0674 20.3369 46.1474 20.328 46.2362 20.328C46.396 20.4701 46.5559 20.5234 46.7157 20.4879C46.8934 20.4523 47.1154 20.479 47.3818 20.5678C47.3818 20.5855 47.4351 20.5855 47.5417 20.5678C47.6482 20.5678 47.8791 20.5145 48.2344 20.4079C48.2876 20.479 48.3587 20.5323 48.4475 20.5678C48.5363 20.6211 48.7139 20.6655 48.9803 20.701L49.8329 20.3014C49.9395 20.3724 50.0194 20.4079 50.0727 20.4079C50.1437 20.4079 50.197 20.399 50.2325 20.3813C50.2858 20.3635 50.3302 20.3458 50.3657 20.328C50.4013 20.328 50.4457 20.3546 50.499 20.4079C50.7121 20.4434 50.943 20.4879 51.1917 20.5411C51.4581 20.6122 51.7067 20.6211 51.9376 20.5678C51.9554 20.3724 52.0531 20.2836 52.2307 20.3014C52.4261 20.3191 52.5593 20.3546 52.6303 20.4079C52.808 20.4434 52.9589 20.4434 53.0833 20.4079C53.2076 20.3902 53.3142 20.3635 53.403 20.328C53.4918 20.3102 53.5717 20.3014 53.6427 20.3014C53.7138 20.3014 53.7937 20.3458 53.8825 20.4346L55.3212 20.0083L55.5876 20.1948L55.9873 20.1681C56.0761 20.1149 56.1915 20.0705 56.3336 20.0349C56.4935 19.9994 56.751 20.0793 57.1063 20.2747C57.1418 20.5411 57.1773 20.7454 57.2128 20.8875C57.2483 21.0473 57.3194 21.1539 57.426 21.2072C57.3371 21.6335 57.1862 21.9443 56.973 22.1397C56.7777 22.3528 56.5556 22.3883 56.307 22.2462C56.2359 22.4594 56.1116 22.5482 55.934 22.5127C55.7564 22.4771 55.561 22.4505 55.3479 22.4327C55.2058 22.415 55.0637 22.4594 54.9216 22.5659C54.7972 22.6725 54.6285 22.7169 54.4154 22.6992C54.3976 22.6814 54.3354 22.6459 54.2289 22.5926C54.1223 22.5571 54.0246 22.5571 53.9358 22.5926C53.8115 22.6814 53.6427 22.708 53.4296 22.6725C53.2165 22.6548 53.03 22.6459 52.8701 22.6459C52.6037 22.6103 52.435 22.6015 52.3639 22.6192C52.2929 22.637 52.2041 22.6548 52.0975 22.6725C52.0087 22.8146 51.8311 22.8679 51.5646 22.8324C51.2982 22.8146 51.094 22.8501 50.9519 22.9389C50.8631 22.8679 50.7743 22.8324 50.6854 22.8324C50.6144 22.8324 50.5522 22.8412 50.499 22.859C50.4457 22.8768 50.4101 22.8945 50.3924 22.9123C50.3746 22.9478 50.3924 22.9478 50.4457 22.9123C50.1082 22.8768 49.8507 22.8501 49.673 22.8324C49.4954 22.8146 49.3178 22.7702 49.1402 22.6992C49.1047 22.788 49.0691 22.8412 49.0336 22.859C48.9981 22.8945 48.9537 22.9034 48.9004 22.8857C48.8649 22.8857 48.8027 22.859 48.7139 22.8057C48.6429 22.7702 48.5452 22.7347 48.4209 22.6992C48.1722 22.7347 47.9768 22.7524 47.8347 22.7524C47.7104 22.7702 47.5239 22.7791 47.2752 22.7791C47.2042 22.6903 47.1243 22.6814 47.0355 22.7524C46.9644 22.8235 46.8312 22.788 46.6358 22.6459C46.4404 22.6281 46.2539 22.6281 46.0763 22.6459C45.8987 22.6636 45.7655 22.7436 45.6767 22.8857C45.5879 22.8857 45.4724 22.8679 45.3303 22.8324C45.206 22.8146 45.0728 22.7968 44.9307 22.7791C44.8064 22.7613 44.682 22.7613 44.5577 22.7791C44.4334 22.7968 44.3268 22.859 44.238 22.9656C44.2025 22.9656 44.1314 22.9301 44.0249 22.859C43.9183 22.8057 43.8117 22.7524 43.7052 22.6992C43.6519 22.7347 43.5808 22.7347 43.492 22.6992C43.4032 22.6636 43.3055 22.6281 43.199 22.5926C43.1101 22.5571 43.0125 22.5393 42.9059 22.5393C42.8171 22.5393 42.7372 22.5837 42.6661 22.6725C42.5595 22.6015 42.4796 22.5393 42.4263 22.486C42.3908 22.4505 42.3464 22.4061 42.2931 22.3528C42.2576 22.2995 42.2043 22.2285 42.1333 22.1397C42.0622 22.0686 41.9468 21.9532 41.7869 21.7933C41.8224 21.8111 41.8224 21.7489 41.7869 21.6068C41.7514 21.4647 41.6892 21.3404 41.6004 21.2338L41.4672 21.2871Z" fill="#4A5578"/>
<path d="M35.4907 20.9407L35.2243 20.3546C35.2776 20.2303 35.3131 20.1326 35.3309 20.0615C35.3486 19.9905 35.3753 19.8573 35.4108 19.6619C35.5529 19.3955 35.6062 19.2001 35.5707 19.0758C35.5351 18.9515 35.4463 18.7916 35.3042 18.5962C35.393 18.4719 35.4374 18.3476 35.4374 18.2232C35.4374 18.0811 35.4286 17.9657 35.4108 17.8769C35.393 17.7881 35.3753 17.7259 35.3575 17.6904C35.3575 17.6371 35.393 17.6282 35.4641 17.6637C35.393 17.5039 35.393 17.2996 35.4641 17.051C35.5351 16.8023 35.5085 16.5537 35.3842 16.305C35.4552 16.305 35.4907 16.2872 35.4907 16.2517C35.4907 16.1984 35.4818 16.1363 35.4641 16.0652C35.4641 15.9942 35.473 15.9142 35.4907 15.8254C35.5085 15.7366 35.5795 15.6656 35.7039 15.6123C35.5973 15.559 35.5351 15.5057 35.5174 15.4524C35.4996 15.3814 35.4996 15.3104 35.5174 15.2393C35.5351 15.1505 35.5529 15.0528 35.5707 14.9462C35.6062 14.8219 35.6151 14.6887 35.5973 14.5466C35.5618 14.44 35.5085 14.3246 35.4374 14.2003C35.3664 14.0582 35.393 13.9427 35.5174 13.8539C35.5884 13.552 35.6062 13.3299 35.5707 13.1879C35.5351 13.0458 35.4996 12.8504 35.4641 12.6017C35.5351 12.6373 35.5707 12.6284 35.5707 12.5751C35.5884 12.5218 35.5884 12.4508 35.5707 12.3619C35.5529 12.2731 35.5351 12.1843 35.5174 12.0955C35.4996 12.0067 35.4907 11.9357 35.4907 11.8824C35.4019 11.7581 35.3664 11.5716 35.3842 11.3229C35.4019 11.0742 35.4552 10.8522 35.544 10.6568C35.5263 10.6568 35.4818 10.568 35.4108 10.3904C35.3575 10.2128 35.4019 10.0086 35.544 9.77766C35.5085 9.75989 35.4907 9.72437 35.4907 9.67109C35.5085 9.6178 35.5263 9.55564 35.544 9.48459C35.5618 9.41355 35.5707 9.3425 35.5707 9.27145C35.5707 9.18265 35.544 9.08496 35.4907 8.97839C35.544 8.96063 35.5707 8.90734 35.5707 8.81854C35.5707 8.72973 35.5529 8.63204 35.5174 8.52547C35.4996 8.40114 35.473 8.28569 35.4374 8.17912C35.4197 8.05479 35.4019 7.95711 35.3842 7.88606C35.4374 7.76173 35.4907 7.65516 35.544 7.56635C35.6151 7.45978 35.6595 7.27329 35.6772 7.00687C35.4818 6.86478 35.3664 6.72268 35.3309 6.58059C35.2954 6.4385 35.2598 6.19872 35.2243 5.86125C35.4019 5.87901 35.473 5.84349 35.4374 5.75468C35.4197 5.66588 35.393 5.45274 35.3575 5.11527C35.4996 4.99094 35.5618 4.86661 35.544 4.74228C35.5263 4.61795 35.4818 4.4581 35.4108 4.26272C35.4818 4.06734 35.473 3.90749 35.3842 3.78316C35.3131 3.64107 35.2954 3.51674 35.3309 3.41017C35.3664 3.28584 35.3753 3.19703 35.3575 3.14375C35.3398 3.0727 35.3042 3.01054 35.2509 2.95725C35.2154 2.88621 35.1621 2.81516 35.0911 2.74411C35.0378 2.65531 34.9934 2.53098 34.9579 2.37112L35.2776 2.34448L34.9312 2.21127C34.949 2.06918 34.9668 1.8738 34.9845 1.62514C35.02 1.35872 35.1 1.11894 35.2243 0.905803C35.4019 0.959087 35.5973 0.950206 35.8104 0.87916C36.0413 0.808115 36.2012 0.710427 36.29 0.586096C36.5919 0.550574 36.8317 0.603858 37.0093 0.745949C37.187 0.87028 37.2402 0.914683 37.1692 0.87916C37.4356 1.02125 37.5777 1.15446 37.5955 1.27879C37.631 1.40312 37.6399 1.53633 37.6221 1.67843C37.7642 1.98037 37.8264 2.22903 37.8086 2.42441C37.7908 2.61978 37.8353 2.83292 37.9418 3.06382C38.0129 3.15263 38.0129 3.2592 37.9418 3.38353C37.8885 3.4901 37.9241 3.64107 38.0484 3.83644L37.8619 4.68899L38.0484 5.86125C38.0129 5.89677 38.0129 6.01222 38.0484 6.2076C38.1017 6.38522 38.1106 6.50955 38.075 6.58059C38.0395 6.63388 38.0217 6.79373 38.0217 7.06015C38.0217 7.32657 38.0395 7.51307 38.075 7.61964C38.1283 7.65516 38.1461 7.70844 38.1283 7.77949C38.1283 7.85054 38.1106 7.93046 38.075 8.01927C38.0573 8.09032 38.0306 8.16136 37.9951 8.23241C37.9596 8.30345 37.9507 8.34786 37.9685 8.36562C37.9862 8.56099 37.9862 8.72973 37.9685 8.87182C37.9685 9.01391 38.0129 9.0672 38.1017 9.03167C38.155 9.28033 38.1816 9.52011 38.1816 9.75101C38.1994 9.98191 38.155 10.1418 38.0484 10.2306C38.2615 10.6036 38.2793 10.8345 38.1017 10.9233C38.1727 11.1186 38.2171 11.2519 38.2349 11.3229C38.2526 11.3939 38.3059 11.4828 38.3947 11.5893C38.3059 11.7492 38.2438 11.8913 38.2082 12.0156C38.1727 12.1222 38.1461 12.2287 38.1283 12.3353C38.1283 12.4241 38.1283 12.5129 38.1283 12.6017C38.1283 12.6905 38.1283 12.7882 38.1283 12.8948C38.0573 12.9481 38.0484 13.0369 38.1017 13.1612C38.1727 13.2855 38.1283 13.4454 37.9685 13.6408C38.0573 13.6941 38.1283 13.8006 38.1816 13.9605C38.2526 14.1026 38.2704 14.2979 38.2349 14.5466C38.2171 14.5644 38.2082 14.6443 38.2082 14.7864C38.226 14.9285 38.2526 15.0795 38.2882 15.2393C38.3059 15.3814 38.2793 15.5413 38.2082 15.7189C38.155 15.8787 38.1372 15.9853 38.155 16.0386C38.1905 16.2872 38.2082 16.4826 38.2082 16.6247C38.226 16.7668 38.2349 16.8822 38.2349 16.9711C38.2704 16.9711 38.2704 17.0599 38.2349 17.2375C38.2171 17.3973 38.1816 17.5394 38.1283 17.6637C38.1816 17.7526 38.1994 17.8502 38.1816 17.9568C38.1638 18.0634 38.1372 18.1877 38.1017 18.3298C38.0839 18.4719 38.0662 18.6317 38.0484 18.8094C38.0484 18.987 38.075 19.1735 38.1283 19.3688C38.0573 19.6175 38.0395 19.8839 38.075 20.1681C38.1106 20.4701 38.1106 20.6654 38.075 20.7542C37.8619 21.0207 37.7198 21.216 37.6488 21.3404C37.5955 21.4647 37.5511 21.5446 37.5155 21.5802C37.3735 21.5802 37.2314 21.6423 37.0893 21.7666C36.9472 21.9087 36.8051 21.9975 36.663 22.0331C36.5742 21.9443 36.4498 21.8555 36.29 21.7666C36.1301 21.6956 36.0058 21.6867 35.917 21.74C35.4019 21.5446 35.1888 21.1983 35.2776 20.701L35.4907 20.9407ZM20.3312 18.1433L20.1714 17.5572L20.5977 16.1984L20.3046 15.4258L20.2247 14.5999L20.571 13.6408L20.1714 12.5218C20.2602 12.5396 20.3046 12.5484 20.3046 12.5484C20.3224 12.5307 20.3224 12.504 20.3046 12.4685C20.2868 12.433 20.2691 12.3886 20.2513 12.3353C20.2513 12.282 20.2957 12.2287 20.3845 12.1755C20.3135 12.0156 20.2691 11.8913 20.2513 11.8025C20.2513 11.7137 20.2513 11.6426 20.2513 11.5893C20.2691 11.5183 20.278 11.4472 20.278 11.3762C20.2957 11.3051 20.2957 11.2163 20.278 11.1098C20.3845 11.092 20.4556 11.0476 20.4911 10.9766C20.5266 10.9055 20.5533 10.8256 20.571 10.7368C20.5888 10.6302 20.6065 10.5414 20.6243 10.4704C20.6421 10.3815 20.6687 10.3283 20.7042 10.3105C20.8641 10.2395 21.0683 10.1684 21.317 10.0974C21.5834 10.0086 21.7877 9.99079 21.9298 10.0441L22.809 10.4171L24.0612 10.124L24.7805 10.3105L26.0327 10.4171C26.0149 10.3993 26.0061 10.3638 26.0061 10.3105C26.0238 10.2395 26.1481 10.1329 26.379 9.99079C26.308 10.0796 26.2636 10.124 26.2458 10.124C26.2458 10.124 26.2458 10.1062 26.2458 10.0707C26.2458 10.0174 26.2458 9.96415 26.2458 9.91087C26.2636 9.83982 26.2547 9.77766 26.2192 9.72437V9.21817L26.2458 7.77949V6.82037L26.1926 6.0211L26.2192 4.79556C26.2547 4.67123 26.2458 4.59131 26.1926 4.55578C26.1393 4.5025 26.1037 4.52026 26.086 4.60907L24.7272 4.55578L23.848 4.66235L23.1287 4.47586L21.7966 4.66235C21.69 4.59131 21.5745 4.5469 21.4502 4.52914C21.3436 4.49362 21.2282 4.41369 21.1039 4.28936C20.873 4.0407 20.7309 3.85421 20.6776 3.72988C20.6421 3.60555 20.6421 3.55226 20.6776 3.57002C20.571 3.44569 20.5355 3.25032 20.571 2.9839C20.6065 2.71747 20.6865 2.57538 20.8108 2.55762C21.0772 2.34448 21.2726 2.18463 21.3969 2.07806C21.5213 1.97149 21.6101 1.97149 21.6634 2.07806L22.8356 1.99813L23.7415 1.97149L24.4342 1.89156L25.7396 1.86492L26.4323 2.21127C26.6277 2.1047 26.8231 2.02477 27.0185 1.97149C27.2138 1.91821 27.4803 1.90933 27.8177 1.94485C27.9065 2.06918 27.9598 2.18463 27.9776 2.2912C27.9954 2.38 28.0842 2.45105 28.244 2.50434C28.3683 2.753 28.4838 2.98389 28.5904 3.19703C28.7147 3.39241 28.7325 3.60555 28.6436 3.83644C28.7857 3.81868 28.8834 3.94301 28.9367 4.20944C28.99 4.47586 28.9989 4.74228 28.9634 5.0087C28.8923 5.06199 28.839 5.14191 28.8035 5.24848C28.768 5.33729 28.7502 5.43498 28.7502 5.54154C28.768 5.64811 28.7946 5.7458 28.8301 5.83461C28.8834 5.90566 28.9634 5.94118 29.0699 5.94118C28.9456 6.29641 28.8568 6.58947 28.8035 6.82037C28.7502 7.05127 28.8035 7.18448 28.9634 7.22L28.9101 8.4189L28.9367 9.2981L28.9101 9.32474L29.7626 9.24481L31.4144 9.43131C31.45 9.28922 31.4322 9.12936 31.3612 8.95175C31.2901 8.77413 31.2013 8.561 31.0947 8.31233C31.3079 8.25905 31.4144 8.21465 31.4144 8.17912C31.4144 8.12584 31.4056 8.02815 31.3878 7.88606C31.4056 7.72621 31.37 7.55747 31.2812 7.37986C31.1924 7.18448 31.1036 6.97134 31.0148 6.74044C31.0681 6.63388 31.077 6.52731 31.0415 6.42074C31.0237 6.29641 31.0148 6.07439 31.0148 5.75468C31.0859 5.7014 31.1214 5.63923 31.1214 5.56819C31.1391 5.49714 31.1391 5.4261 31.1214 5.35505C31.1036 5.26624 31.0947 5.17744 31.0947 5.08863C31.1125 4.98206 31.1569 4.87549 31.228 4.76892C31.1924 4.69788 31.1569 4.60907 31.1214 4.5025C31.0859 4.39593 31.0592 4.28936 31.0415 4.18279C31.0415 4.07622 31.0503 3.98742 31.0681 3.91637C31.0859 3.82756 31.1303 3.77428 31.2013 3.75652C31.2724 3.5789 31.2901 3.36577 31.2546 3.11711C31.2368 2.85068 31.1303 2.69971 30.9349 2.66419L31.2812 2.2912L31.0415 2.1047C31.1125 1.92709 31.1658 1.81164 31.2013 1.75835C31.2368 1.68731 31.2013 1.52745 31.0947 1.27879C31.2724 1.20775 31.4056 1.11006 31.4944 0.985729C31.5832 0.843638 31.7519 0.75483 32.0006 0.719307C32.2492 0.843638 32.4624 0.950207 32.64 1.03901C32.8176 1.12782 33.0308 1.18999 33.2794 1.22551C33.3327 1.27879 33.3771 1.40312 33.4126 1.5985C33.4481 1.79388 33.4748 1.99813 33.4926 2.21127C33.4926 2.30008 33.5192 2.41553 33.5725 2.55762C33.6258 2.69971 33.608 2.89509 33.5192 3.14375C33.5192 3.17927 33.5192 3.2592 33.5192 3.38353C33.537 3.50786 33.5902 3.74764 33.679 4.10287C33.6613 4.24496 33.6879 4.38705 33.759 4.52914C33.83 4.65347 33.8744 4.76004 33.8922 4.84885C33.8034 5.04422 33.759 5.18632 33.759 5.27512C33.759 5.36393 33.759 5.4261 33.759 5.46162C33.7767 5.49714 33.7856 5.52378 33.7856 5.54154C33.7856 5.55931 33.759 5.59483 33.7057 5.64811C33.7945 5.82573 33.8389 5.96782 33.8389 6.07439C33.8567 6.1632 33.8567 6.24312 33.8389 6.31417C33.8389 6.38522 33.8389 6.46514 33.8389 6.55395C33.8567 6.64276 33.9099 6.76709 33.9988 6.92694V7.06015C33.9988 7.18448 34.0165 7.28217 34.052 7.35322C33.9455 7.51307 33.8744 7.65516 33.8389 7.77949C33.8211 7.90382 33.8123 8.00151 33.8123 8.07255C33.8123 8.1436 33.8123 8.20577 33.8123 8.25905C33.83 8.29457 33.8211 8.31233 33.7856 8.31233C33.8034 8.66756 33.8389 8.90734 33.8922 9.03167C33.9455 9.13824 33.9277 9.18265 33.8389 9.16488C33.8567 9.30698 33.8655 9.42243 33.8655 9.51123C33.8655 9.58228 33.8655 9.66221 33.8655 9.75101C33.8655 9.82206 33.8744 9.91087 33.8922 10.0174C33.9099 10.1062 33.9455 10.2306 33.9988 10.3904C34.0165 10.3727 34.0254 10.3993 34.0254 10.4704C34.0254 10.5236 34.0165 10.5947 33.9988 10.6835C33.981 10.7723 33.9632 10.87 33.9455 10.9766C33.9277 11.0654 33.9188 11.1364 33.9188 11.1897C33.9188 11.1897 33.9099 11.2252 33.8922 11.2963C33.8922 11.3673 33.8922 11.4561 33.8922 11.5627C33.8922 11.6693 33.9099 11.7758 33.9455 11.8824C33.981 11.989 34.052 12.0778 34.1586 12.1488C33.981 12.1133 33.8744 12.1577 33.8389 12.282C33.8034 12.4064 33.83 12.5928 33.9188 12.8415C33.9899 12.8593 33.9899 12.957 33.9188 13.1346C33.8655 13.3122 33.8833 13.5076 33.9721 13.7207C33.9366 13.8628 33.9099 13.9782 33.8922 14.067C33.8744 14.1381 33.9099 14.2091 33.9988 14.2802C33.9455 14.3512 33.9099 14.4489 33.8922 14.5733C33.8744 14.6798 33.8655 14.7864 33.8655 14.893C33.8833 14.9995 33.9099 15.0883 33.9455 15.1594C33.981 15.2304 34.0343 15.2659 34.1053 15.2659C34.0698 15.3015 34.0254 15.3636 33.9721 15.4524C33.9366 15.5235 33.9011 15.6123 33.8655 15.7189C33.8478 15.8077 33.8389 15.8965 33.8389 15.9853C33.8389 16.0563 33.8655 16.1007 33.9188 16.1185C34.0254 16.4027 34.0609 16.5981 34.0254 16.7046C34.0076 16.8112 33.9544 16.9977 33.8655 17.2641C33.9011 17.2464 33.9188 17.2641 33.9188 17.3174C33.9188 17.3529 33.9188 17.4151 33.9188 17.5039C33.9188 17.5749 33.9277 17.6549 33.9455 17.7437C33.9632 17.8325 34.0076 17.9035 34.0787 17.9568C33.9366 18.0634 33.8389 18.2765 33.7856 18.5962C33.7501 18.9159 33.8034 19.2534 33.9455 19.6086C33.7679 19.7507 33.6524 19.9461 33.5991 20.1948C33.5636 20.4434 33.5014 20.7098 33.4126 20.994C33.4659 21.296 33.4037 21.5357 33.2261 21.7134C33.0663 21.891 32.7199 21.9443 32.1871 21.8732C32.0983 22.0508 31.9917 22.113 31.8674 22.0597C31.743 22.0064 31.6986 21.8288 31.7342 21.5269C31.5388 21.4203 31.3878 21.3048 31.2812 21.1805C31.1747 21.0562 31.1924 21.0118 31.3345 21.0473C31.3523 20.923 31.3434 20.8075 31.3079 20.701C31.2901 20.6122 31.2724 20.5233 31.2546 20.4345C31.2368 20.3635 31.228 20.2924 31.228 20.2214C31.2457 20.1681 31.3079 20.1148 31.4144 20.0615C31.3256 19.9727 31.3079 19.8484 31.3612 19.6886C31.4322 19.5287 31.4411 19.3511 31.3878 19.1557C31.3523 18.907 31.3256 18.7472 31.3079 18.6762C31.3079 18.5873 31.2546 18.4719 31.148 18.3298C31.1658 18.241 31.1658 18.1167 31.148 17.9568C31.1303 17.797 31.1924 17.6726 31.3345 17.5838C31.3345 17.2464 31.3523 17.0066 31.3878 16.8645C31.4411 16.7224 31.4855 16.6069 31.521 16.5181C31.4144 16.3228 31.3434 16.1185 31.3079 15.9054C31.2724 15.6745 31.2724 15.5146 31.3079 15.4258C31.3967 15.4258 31.45 15.3459 31.4677 15.186C31.5033 15.0262 31.5033 14.813 31.4677 14.5466C31.4855 14.4756 31.4855 14.3956 31.4677 14.3068C31.45 14.2003 31.4322 14.1115 31.4144 14.0404C31.3967 13.9516 31.3967 13.8806 31.4144 13.8273C31.4322 13.7562 31.4855 13.7207 31.5743 13.7207C31.5388 13.5964 31.4766 13.4543 31.3878 13.2944C31.299 13.1168 31.299 13.0102 31.3878 12.9747C31.4233 12.7793 31.4322 12.6373 31.4144 12.5484C31.4144 12.4419 31.4056 12.3708 31.3878 12.3353C31.37 12.282 31.3434 12.2376 31.3079 12.2021C31.2901 12.1666 31.2724 12.1222 31.2546 12.0689L30.2422 11.6693L29.2564 12.0156L28.8834 12.0955L28.8568 11.6959C28.6969 11.7847 28.5726 11.8646 28.4838 11.9357C28.395 12.0067 28.3239 12.0689 28.2707 12.1222C28.2174 12.1577 28.1641 12.2021 28.1108 12.2554C28.0575 12.2909 27.9954 12.3264 27.9243 12.3619C27.5513 12.5751 27.2405 12.6728 26.9918 12.655C26.7432 12.6195 26.5211 12.6017 26.3258 12.6017L25.6064 12.5484L24.1145 12.8682L23.1287 12.7616L22.809 12.655L22.9155 12.8682L23.2885 13.3477L22.8889 14.2535L23.182 14.6532L23.0488 15.559L22.9155 16.5981L22.9422 17.4773C22.9422 17.5838 22.9599 17.6637 22.9955 17.717C23.0488 17.7526 23.102 17.7881 23.1553 17.8236C23.2086 17.8414 23.2619 17.8591 23.3152 17.8769C23.3685 17.8946 23.3951 17.9124 23.3951 17.9302C23.4484 18.0012 23.5106 18.0456 23.5816 18.0634C23.6704 18.0634 23.7415 18.0634 23.7947 18.0634C23.8658 18.0634 23.928 18.0811 23.9812 18.1167C24.0345 18.1522 24.0612 18.2232 24.0612 18.3298C24.3986 18.2943 24.6651 18.2676 24.8604 18.2499C25.0736 18.2144 25.269 18.1522 25.4466 18.0634C25.5354 18.0279 25.6153 18.019 25.6863 18.0367C25.7752 18.0367 25.864 18.0545 25.9528 18.09C26.0416 18.1078 26.1393 18.1344 26.2458 18.1699C26.3702 18.1877 26.5123 18.2055 26.6721 18.2232C26.6899 18.0634 26.7698 17.9657 26.9119 17.9302C27.054 17.8769 27.2494 17.7881 27.498 17.6637L28.0575 17.797C28.2707 17.9213 28.4394 17.9746 28.5637 17.9568C28.7058 17.939 28.8834 17.9746 29.0966 18.0634C29.2031 18.0634 29.2564 18.1699 29.2564 18.3831C29.2742 18.5785 29.2031 18.8271 29.0433 19.1291C29.0966 19.1468 29.1232 19.2268 29.1232 19.3688C29.1232 19.4932 29.0522 19.5731 28.9101 19.6086C28.8213 19.875 28.7236 20.026 28.617 20.0615C28.5282 20.1148 28.4127 20.2214 28.2707 20.3813C28.1996 20.3102 28.1108 20.2658 28.0042 20.248C27.9154 20.248 27.8266 20.248 27.7378 20.248C27.649 20.2658 27.578 20.2658 27.5247 20.248C27.4714 20.248 27.4447 20.2125 27.4447 20.1415C27.3559 20.1592 27.2494 20.1859 27.125 20.2214C27.0007 20.2569 26.8853 20.2924 26.7787 20.328C26.6721 20.3635 26.5744 20.3901 26.4856 20.4079C26.4146 20.4257 26.3702 20.4257 26.3524 20.4079C26.2458 20.3901 26.086 20.4168 25.8728 20.4878C25.6775 20.5589 25.4554 20.6388 25.2068 20.7276C25.0469 20.5855 24.9315 20.4878 24.8604 20.4345C24.7894 20.3813 24.6295 20.399 24.3809 20.4878C24.1322 20.399 23.9457 20.328 23.8214 20.2747C23.7148 20.2392 23.6793 20.2569 23.7148 20.328C23.4129 20.3635 23.1997 20.399 23.0754 20.4345C22.9511 20.4878 22.7912 20.5056 22.5958 20.4878C22.5426 20.4701 22.4626 20.4345 22.3561 20.3813C22.2495 20.3457 22.134 20.3102 22.0097 20.2747C21.9031 20.2569 21.7966 20.248 21.69 20.248C21.6012 20.2658 21.539 20.3102 21.5035 20.3813C21.3969 20.2214 21.3259 20.1415 21.2904 20.1415C21.2726 20.1415 21.2282 20.0971 21.1572 20.0083C20.9085 19.8484 20.7575 19.7241 20.7042 19.6353C20.6687 19.5287 20.571 19.431 20.4112 19.3422C20.4112 19.0935 20.42 18.8804 20.4378 18.7028C20.4733 18.5074 20.4467 18.3653 20.3579 18.2765L20.3312 18.1433Z" fill="#4A5578"/>
<path d="M1.08641 6.5007C0.908799 6.34084 0.793349 6.19875 0.740065 6.07442C0.68678 5.95009 0.660138 5.84352 0.660138 5.75472C0.660138 5.64815 0.677899 5.55046 0.713422 5.46165C0.748945 5.37284 0.775588 5.28404 0.793349 5.19523L0.393714 4.07626L0.660138 3.03721L0.367072 1.94488L0.793349 1.97152L0.526926 1.8916L1.00649 1.30547C0.970965 1.1989 1.00649 1.08345 1.11306 0.959119C1.21963 0.817027 1.25515 0.648294 1.21963 0.452918C1.34396 0.399633 1.44165 0.372991 1.51269 0.372991C1.6015 0.372991 1.66367 0.372991 1.69919 0.372991C1.75247 0.372991 1.79688 0.36411 1.8324 0.346349C1.86792 0.310826 1.90345 0.23978 1.93897 0.133211C2.02778 0.186496 2.11659 0.213138 2.20539 0.213138C2.31196 0.195377 2.40077 0.177615 2.47182 0.159854C2.56062 0.142092 2.64055 0.133211 2.7116 0.133211C2.78264 0.133211 2.83593 0.168734 2.87145 0.23978C3.1734 0.204258 3.37765 0.168734 3.48422 0.133211C3.60856 0.0976883 3.71512 0.0976883 3.80393 0.133211C3.92826 0.0799271 4.03483 0.0621658 4.12364 0.079927C4.23021 0.0976883 4.3279 0.124331 4.41671 0.159854C4.50551 0.195377 4.59432 0.222019 4.68313 0.23978C4.7897 0.257541 4.89627 0.24866 5.00284 0.213138C5.18045 0.159853 5.34031 0.177614 5.4824 0.266422C5.64225 0.337468 5.73994 0.328587 5.77547 0.23978C5.77547 0.222019 5.87315 0.195377 6.06853 0.159854C6.28167 0.106569 6.45928 0.133212 6.60138 0.23978C6.60138 0.186496 6.62802 0.168735 6.6813 0.186496C6.73459 0.186496 6.78787 0.204258 6.84116 0.23978C6.9122 0.275304 6.97437 0.310826 7.02765 0.346349C7.0987 0.36411 7.16087 0.36411 7.21415 0.346349C7.64043 0.293064 7.91573 0.390752 8.04006 0.639412C8.18215 0.870312 8.23544 1.11897 8.19992 1.3854C8.19992 1.66958 8.21768 1.85607 8.2532 1.94488C8.28872 2.01593 8.2532 2.06921 8.14663 2.10473C8.0223 2.35339 7.85357 2.53101 7.64043 2.63758C7.42729 2.74415 7.26744 2.75303 7.16087 2.66422C6.89444 2.64646 6.70795 2.65534 6.60138 2.69086C6.51257 2.70862 6.39712 2.73527 6.25503 2.77079C6.14846 2.69974 6.05965 2.66422 5.9886 2.66422C5.91756 2.64646 5.82875 2.64646 5.72218 2.66422C5.63337 2.66422 5.5268 2.6731 5.40247 2.69086C5.2959 2.69086 5.15381 2.6731 4.97619 2.63758C4.67425 2.53101 4.46111 2.54877 4.33678 2.69086C4.31902 2.70862 4.26573 2.7175 4.17692 2.7175C4.10588 2.69974 4.01707 2.69086 3.9105 2.69086C3.80393 2.6731 3.69736 2.66422 3.59079 2.66422C3.48422 2.64646 3.39542 2.63758 3.32437 2.63758L3.19116 2.42444L3.29773 2.82407H3.35101L3.2178 3.96969C3.20004 4.18283 3.19116 4.35156 3.19116 4.47589C3.20892 4.60022 3.23556 4.69791 3.27109 4.76895C3.32437 4.84 3.39542 4.89328 3.48422 4.92881C3.59079 4.96433 3.74177 4.99985 3.93714 5.03538C4.16804 5.15971 4.35454 5.16859 4.49663 5.06202C4.65649 4.95545 4.85186 4.87552 5.08276 4.82224C5.13605 4.84 5.18045 4.87552 5.21598 4.92881C5.26926 4.98209 5.32255 5.0265 5.37583 5.06202C5.42911 5.07978 5.49128 5.08866 5.56233 5.08866C5.63337 5.0709 5.7133 5.01761 5.80211 4.92881C6.08629 4.98209 6.30831 4.98209 6.46817 4.92881C6.64578 4.87552 6.73459 4.94657 6.73459 5.14195L7.21415 4.87552C7.32072 4.92881 7.40065 4.97321 7.45393 5.00873C7.50722 5.04426 7.5605 5.0709 7.61378 5.08866C7.66707 5.10642 7.72036 5.1153 7.77364 5.1153C7.84469 5.09754 7.94237 5.06202 8.06671 5.00873C8.08447 5.15083 8.11111 5.27516 8.14663 5.38173C8.18215 5.47053 8.2088 5.55934 8.22656 5.64815C8.24432 5.71919 8.2532 5.808 8.2532 5.91457C8.27096 6.02114 8.26208 6.15435 8.22656 6.3142C8.2976 6.27868 8.32425 6.27868 8.30649 6.3142C8.30649 6.34972 8.27984 6.41189 8.22656 6.5007C8.19104 6.57174 8.14663 6.66055 8.09335 6.76712C8.05782 6.87369 8.04894 6.98914 8.06671 7.11347C8.06671 7.2378 7.96902 7.32661 7.77364 7.37989C7.59602 7.41541 7.40953 7.41541 7.21415 7.37989L6.49481 7.45982L5.21598 7.43317L4.49663 7.27332L3.96379 7.40653L2.97802 7.53974C2.67607 7.50422 2.43629 7.45982 2.25868 7.40653C2.09882 7.33549 1.85016 7.16675 1.51269 6.90033C1.51269 6.93585 1.43277 6.87369 1.27291 6.71384C1.11306 6.53622 0.970965 6.38525 0.846634 6.26092L1.08641 6.5007ZM8.81269 6.39413C8.68836 6.25204 8.55515 6.10106 8.41305 5.94121C8.27096 5.78136 8.19104 5.71031 8.17327 5.72807L8.11999 5.00873C8.31537 4.83112 8.42194 4.6535 8.4397 4.47589C8.47522 4.29828 8.50186 4.03185 8.51962 3.67662C8.39529 3.6411 8.31537 3.56117 8.27984 3.43684C8.24432 3.31251 8.30649 3.0905 8.46634 2.77079C8.44858 2.77079 8.43082 2.74415 8.41305 2.69086C8.39529 2.63758 8.37753 2.56653 8.35977 2.47772C8.34201 2.38892 8.32425 2.30899 8.30649 2.23794C8.30649 2.14914 8.30649 2.07809 8.30649 2.02481L8.35977 1.81167H8.30649L8.27984 1.67846C8.40417 1.55413 8.49298 1.43868 8.54627 1.33211C8.59955 1.22554 8.65284 1.12785 8.70612 1.03905C8.75941 0.932477 8.82157 0.84367 8.89262 0.772625C8.98142 0.701579 9.09687 0.648294 9.23897 0.61277C9.29225 0.595009 9.32778 0.568367 9.34554 0.532845C9.38106 0.497321 9.41658 0.470679 9.4521 0.452918C9.48763 0.417395 9.54979 0.399634 9.6386 0.399634C9.72741 0.381872 9.85174 0.381872 10.0116 0.399634C10.1359 0.310826 10.2603 0.23978 10.3846 0.186496C10.5089 0.133211 10.6155 0.195376 10.7043 0.372991C10.8464 0.319707 11.0329 0.23978 11.2638 0.133211C11.5124 0.0266423 11.7611 0.0444042 12.0098 0.186496C12.0631 0.168735 12.1163 0.168735 12.1696 0.186496C12.2407 0.204257 12.3117 0.213138 12.3828 0.213138C12.4538 0.213138 12.5071 0.204257 12.5426 0.186496C12.5781 0.150973 12.5959 0.0888072 12.5959 0C12.9689 0.195377 13.2176 0.284184 13.3419 0.266422C13.4662 0.230899 13.5284 0.150972 13.5284 0.0266416C13.8126 0.0976876 14.0435 0.133211 14.2211 0.133211C14.3987 0.133211 14.6296 0.106569 14.9138 0.0532854C15.0026 0.0355231 15.1092 0.0532839 15.2335 0.106569C15.3578 0.142092 15.4999 0.257542 15.6598 0.452918C15.9972 0.48844 16.2193 0.60389 16.3258 0.799266C16.4324 0.994642 16.5034 1.1545 16.539 1.27883C16.5745 1.38539 16.6011 1.55413 16.6189 1.78503C16.6367 2.01593 16.5301 2.15802 16.2992 2.2113C16.2281 2.26459 16.1571 2.32675 16.086 2.3978C16.015 2.46884 15.9351 2.53101 15.8463 2.58429C15.7575 2.61982 15.6686 2.64646 15.5798 2.66422C15.491 2.66422 15.4022 2.61982 15.3134 2.53101C15.2068 2.58429 15.1269 2.6287 15.0736 2.66422C15.0381 2.69974 14.9937 2.7175 14.9404 2.7175C14.9049 2.7175 14.8516 2.69974 14.7806 2.66422C14.7273 2.61094 14.6385 2.53989 14.5141 2.45108C14.4964 2.53989 14.452 2.59317 14.3809 2.61094C14.3277 2.6287 14.2655 2.63758 14.1944 2.63758C14.1234 2.63758 14.0523 2.64646 13.9813 2.66422C13.9103 2.68198 13.857 2.73527 13.8214 2.82407C13.6794 2.7175 13.5639 2.64646 13.4751 2.61094C13.4041 2.55765 13.333 2.52213 13.262 2.50437C13.1909 2.48661 13.1199 2.47772 13.0488 2.47772C12.9955 2.45996 12.9245 2.42444 12.8357 2.37116C12.6936 2.4422 12.587 2.49549 12.516 2.53101C12.4449 2.56653 12.3739 2.60206 12.3028 2.63758C12.2495 2.65534 12.1874 2.6731 12.1163 2.69086C12.0453 2.69086 11.9298 2.69086 11.77 2.69086C11.7522 2.69086 11.7167 2.68198 11.6634 2.66422C11.6101 2.64646 11.5657 2.6287 11.5302 2.61094C11.4947 2.59317 11.468 2.59317 11.4503 2.61094C11.4325 2.61094 11.4414 2.63758 11.4769 2.69086H11.0773L10.8908 2.79743C10.9441 2.77967 10.9618 2.77079 10.9441 2.77079C10.9263 2.77079 10.8997 2.77967 10.8641 2.79743C10.8464 2.79743 10.8197 2.80631 10.7842 2.82407C10.7665 2.84183 10.7842 2.86848 10.8375 2.904L11.0506 4.04961L11.0773 4.39596L10.9974 4.7956C11.0506 4.7956 11.1039 4.83112 11.1572 4.90216C11.2283 4.95545 11.2904 5.00873 11.3437 5.06202C11.397 5.1153 11.4503 5.15083 11.5036 5.16859C11.5746 5.18635 11.6368 5.15083 11.6901 5.06202C11.7256 5.07978 11.8322 5.08866 12.0098 5.08866C12.2051 5.08866 12.4183 5.03538 12.6492 4.92881C12.8978 5.15971 13.0755 5.26627 13.182 5.24851C13.3064 5.23075 13.3596 5.13307 13.3419 4.95545C13.4662 5.04426 13.5728 5.10642 13.6616 5.14195C13.7504 5.15971 13.8303 5.16859 13.9014 5.16859C13.9902 5.15083 14.0879 5.1153 14.1944 5.06202C14.301 5.00873 14.4431 4.95545 14.6207 4.90216C14.7273 4.8844 14.8339 4.91993 14.9404 5.00873C15.0648 5.07978 15.1713 5.17747 15.2601 5.3018C15.42 5.19523 15.5532 5.14195 15.6598 5.14195C15.7663 5.12418 15.8551 5.13306 15.9262 5.16859C16.015 5.18635 16.086 5.21299 16.1393 5.24851C16.1926 5.26627 16.2459 5.27516 16.2992 5.27516C16.2814 5.52382 16.3169 5.75472 16.4058 5.96785C16.4946 6.16323 16.4768 6.35861 16.3525 6.55398C16.4058 6.64279 16.4146 6.74048 16.3791 6.84705C16.3436 6.93585 16.2725 7.02466 16.166 7.11347C16.0772 7.20227 15.9617 7.2822 15.8196 7.35325C15.6775 7.40653 15.5266 7.43317 15.3667 7.43317L14.674 7.72624L13.8214 7.43317L12.7824 7.72624L11.4769 7.67295L10.5711 7.5131C10.2869 7.54862 10.0471 7.57527 9.85174 7.59303C9.65636 7.59303 9.60308 7.53086 9.69189 7.40653C9.42546 7.37101 9.23009 7.29108 9.10576 7.16675C8.98142 7.02466 8.82157 6.80264 8.62619 6.5007L8.81269 6.39413ZM0.606853 21.2871C0.518045 21.2516 0.500284 21.1273 0.553568 20.9141C0.624615 20.7188 0.740065 20.5411 0.899919 20.3813C0.740065 20.2037 0.651257 19.9994 0.633495 19.7685C0.633495 19.5199 0.589091 19.3067 0.500284 19.1291C0.34043 18.7561 0.384834 18.4009 0.633495 18.0634C0.597972 17.9924 0.615734 17.8947 0.68678 17.7703C0.775588 17.6283 0.731184 17.4862 0.553568 17.3441C0.624615 17.2197 0.775588 17.1132 1.00649 17.0244C1.25515 16.9356 1.38836 16.8201 1.40612 16.678C1.49493 16.6247 1.62814 16.5981 1.80576 16.5981C2.00113 16.5803 2.15211 16.5004 2.25868 16.3583L2.5251 16.7579C2.57839 16.7047 2.64055 16.6603 2.7116 16.6247C2.8004 16.5892 2.88033 16.5714 2.95138 16.5714C3.02242 16.5537 3.07571 16.5626 3.11123 16.5981C3.14675 16.6159 3.15564 16.6603 3.13787 16.7313C3.38654 16.6958 3.61744 16.7047 3.83057 16.7579C4.04371 16.8112 4.12364 16.8379 4.07036 16.8379C4.24797 16.6958 4.45223 16.6247 4.68313 16.6247C4.93179 16.607 5.065 16.678 5.08276 16.8379C5.17157 16.8379 5.32255 16.829 5.53568 16.8112C5.76658 16.7935 5.96196 16.7402 6.12181 16.6514C6.1751 16.7935 6.26391 16.8556 6.38824 16.8379C6.51257 16.8201 6.64578 16.7579 6.78787 16.6514C6.96549 16.7402 7.0987 16.7935 7.18751 16.8112C7.27632 16.829 7.35624 16.8379 7.42729 16.8379C7.5161 16.8379 7.6049 16.8468 7.69371 16.8645C7.78252 16.8645 7.91573 16.9 8.09335 16.9711C8.07559 16.829 8.15551 16.7757 8.33313 16.8112C8.52851 16.8468 8.69724 16.9089 8.83933 16.9977C8.92814 16.7846 9.06135 16.6958 9.23897 16.7313C9.41658 16.7668 9.57644 16.8023 9.71853 16.8379C9.8251 16.7491 9.94943 16.7224 10.0915 16.7579C10.2514 16.7935 10.4201 16.7757 10.5977 16.7047C10.7931 16.6159 10.9174 16.5981 10.9707 16.6514C11.024 16.6869 11.0862 16.7935 11.1572 16.9711C11.3171 16.829 11.4947 16.7757 11.6901 16.8112C11.9032 16.8468 12.1341 16.8468 12.3828 16.8112C12.4005 16.8112 12.4272 16.7935 12.4627 16.7579C12.4982 16.7047 12.5515 16.6514 12.6225 16.5981C12.6936 16.5448 12.7824 16.5004 12.889 16.4649C13.0133 16.4294 13.1554 16.4205 13.3152 16.4382C13.4573 16.527 13.5461 16.5626 13.5817 16.5448C13.6349 16.527 13.6527 16.385 13.6349 16.1185L13.5284 15.9587L13.7948 15.5058C13.5461 15.4347 13.4307 15.417 13.4485 15.4525C13.484 15.488 13.5284 15.4702 13.5817 15.3992L12.9689 15.266C12.8801 15.3015 12.809 15.3459 12.7558 15.3992C12.7025 15.4525 12.6492 15.4969 12.5959 15.5324C12.5426 15.5502 12.4716 15.559 12.3828 15.559C12.294 15.5413 12.1696 15.488 12.0098 15.3992C11.9032 15.559 11.7611 15.6123 11.5835 15.559C11.4059 15.5058 11.246 15.4969 11.1039 15.5324C10.9974 15.5679 10.8819 15.5857 10.7576 15.5857C10.651 15.5857 10.5444 15.5857 10.4379 15.5857C10.3491 15.5679 10.2603 15.5679 10.1714 15.5857C10.1004 15.5857 10.0471 15.6212 10.0116 15.6923C9.85174 15.71 9.70077 15.71 9.55867 15.6923C9.41658 15.6567 9.21233 15.6745 8.9459 15.7455C8.78605 15.71 8.67948 15.7011 8.62619 15.7189C8.59067 15.7367 8.53738 15.7189 8.46634 15.6656C8.16439 15.6834 7.93349 15.7011 7.77364 15.7189C7.61379 15.7367 7.36512 15.7633 7.02765 15.7988C6.95661 15.6745 6.85892 15.5946 6.73459 15.559C6.62802 15.5058 6.4504 15.488 6.20174 15.5058C6.16622 15.5768 6.04189 15.6212 5.82875 15.639C5.61561 15.639 5.42023 15.559 5.24262 15.3992C5.26038 15.4525 5.23374 15.488 5.16269 15.5058C5.09165 15.5058 5.00284 15.4969 4.89627 15.4791C4.7897 15.4614 4.69201 15.4436 4.6032 15.4258C4.51439 15.4081 4.46999 15.3992 4.46999 15.3992C4.27461 15.5235 4.07924 15.6034 3.88386 15.639C3.70624 15.6745 3.49311 15.7367 3.24444 15.8255C3.15564 15.7367 3.06683 15.6834 2.97802 15.6656C2.88921 15.6301 2.79152 15.6034 2.68495 15.5857C2.59615 15.5679 2.48958 15.5502 2.36525 15.5324C2.25868 15.5146 2.14323 15.4614 2.0189 15.3726C2.00113 15.2837 1.79688 15.1328 1.40612 14.9196C1.31732 14.7598 1.22851 14.6443 1.1397 14.5733C1.06865 14.4845 1.07753 14.3157 1.16634 14.0671C1.00649 13.9428 0.979846 13.8362 1.08641 13.7474C1.21075 13.6586 1.31732 13.5431 1.40612 13.401C1.42388 13.3655 1.49493 13.2767 1.61926 13.1346C1.74359 12.9748 1.89457 12.9037 2.07218 12.9215C2.14323 13.0813 2.2498 13.1612 2.39189 13.1612C2.53398 13.1612 2.63167 13.1168 2.68495 13.028C2.86257 12.9748 3.00466 12.957 3.11123 12.9748C3.23556 12.9748 3.33325 12.9836 3.4043 13.0014C3.47534 13.0192 3.52863 13.028 3.56415 13.028C3.59967 13.028 3.6352 12.9925 3.67072 12.9215C3.8661 12.957 4.01707 12.9836 4.12364 13.0014C4.24797 13.0192 4.46111 13.0103 4.76306 12.9748C4.8341 13.0813 4.90515 13.1524 4.97619 13.1879C5.04724 13.2057 5.11829 13.2234 5.18933 13.2412C5.27814 13.2412 5.36695 13.2501 5.45576 13.2678C5.56233 13.2856 5.68666 13.3211 5.82875 13.3744C6.07741 13.3744 6.27279 13.3566 6.41488 13.3211C6.55697 13.2856 6.77899 13.2145 7.08094 13.108C7.04542 13.0014 7.01877 12.9126 7.00101 12.8415C6.98325 12.7705 6.96549 12.6994 6.94773 12.6284C6.94773 12.5574 6.92997 12.4774 6.89444 12.3886C6.85892 12.2821 6.81452 12.1488 6.76123 11.989L7.0543 11.0832C6.77011 11.0654 6.53921 11.0565 6.3616 11.0565C6.18398 11.0388 6.09517 11.0743 6.09517 11.1631C5.93532 11.1986 5.73994 11.2075 5.50904 11.1897C5.27814 11.1542 5.16269 11.1542 5.16269 11.1897C5.0206 11.2075 4.89627 11.2252 4.7897 11.243C4.70089 11.2608 4.61208 11.2785 4.52327 11.2963C4.45223 11.3141 4.3723 11.3229 4.28349 11.3229C4.19469 11.3229 4.08812 11.3052 3.96379 11.2697C3.87498 11.2519 3.75953 11.243 3.61744 11.243C3.47534 11.243 3.34213 11.2075 3.2178 11.1364C2.91585 11.0832 2.67607 11.0476 2.49846 11.0299C2.3386 10.9943 2.13435 11.0743 1.88568 11.2697C1.90345 11.1631 1.89457 11.092 1.85904 11.0565C1.82352 11.021 1.76135 10.9943 1.67255 10.9766C1.6015 10.9588 1.50381 10.9499 1.37948 10.9499C1.25515 10.9322 1.11306 10.9055 0.953203 10.87C0.970965 10.9588 0.944323 11.0032 0.873276 11.0032C0.80223 11.0032 0.713422 10.9766 0.606853 10.9233C0.500284 10.8523 0.393714 10.7723 0.287145 10.6835C0.180576 10.5947 0.10953 10.5148 0.0740065 10.4437C0.145053 10.497 0.180576 10.5148 0.180576 10.497C0.180576 10.4793 0.162814 10.4437 0.127291 10.3905C0.10953 10.3372 0.0828872 10.275 0.0473641 10.204C0.0296025 10.1329 0.0296025 10.0619 0.0473641 9.99083C0.136172 9.75993 0.136172 9.56455 0.0473641 9.4047C-0.0236821 9.22708 -0.0148012 9.13827 0.0740065 9.13827C0.198337 8.9429 0.375953 8.79193 0.606853 8.68536C0.855515 8.56103 1.0953 8.51662 1.3262 8.55215C1.43277 8.53439 1.50381 8.54327 1.53933 8.57879C1.59262 8.59655 1.63702 8.62319 1.67255 8.65872C1.72583 8.69424 1.77023 8.72976 1.80576 8.76528C1.85904 8.80081 1.93897 8.80969 2.04554 8.79193C2.2942 8.77417 2.50734 8.7564 2.68495 8.73864C2.86257 8.72088 3.04907 8.7564 3.24444 8.84521C3.45758 8.88073 3.59079 8.90738 3.64408 8.92514C3.69736 8.92514 3.81281 8.90738 3.99043 8.87185C4.18581 8.72976 4.33678 8.65872 4.44335 8.65872C4.56768 8.64095 4.71865 8.61431 4.89627 8.57879C5.18045 8.77417 5.39359 8.87185 5.53568 8.87185C5.69554 8.85409 5.90868 8.82745 6.1751 8.79193L6.94773 9.00506L8.14663 8.87185L9.10576 8.65872L9.74517 9.00506L10.8641 8.68536C11.0773 8.64983 11.2371 8.64983 11.3437 8.68536C11.468 8.70312 11.6101 8.76528 11.77 8.87185C11.8233 8.85409 11.9032 8.83633 12.0098 8.81857C12.1163 8.78305 12.2318 8.76528 12.3561 8.76528C12.4804 8.74752 12.5959 8.7564 12.7025 8.79193C12.8268 8.82745 12.9334 8.8985 13.0222 9.00506C13.0222 8.88073 13.111 8.77417 13.2886 8.68536C13.484 8.59655 13.6882 8.56991 13.9014 8.60543C13.9369 8.69424 14.0612 8.72976 14.2744 8.712C14.5053 8.69424 14.745 8.61431 14.9937 8.47222C15.047 8.56103 15.1003 8.60543 15.1536 8.60543C15.2246 8.60543 15.2868 8.59655 15.3401 8.57879C15.4111 8.56103 15.4733 8.55215 15.5266 8.55215C15.5798 8.53439 15.6331 8.55215 15.6864 8.60543C15.864 8.69424 16.0061 8.74752 16.1127 8.76528C16.2193 8.78305 16.3258 8.77417 16.4324 8.73864C16.6811 8.91626 16.8143 9.08499 16.832 9.24484C16.8676 9.4047 16.8676 9.60007 16.832 9.83097C17.0629 9.8665 17.134 9.98194 17.0452 10.1773C16.9564 10.3549 16.7699 10.4704 16.4857 10.5237C16.5745 10.577 16.5301 10.648 16.3525 10.7368C16.1749 10.8079 16.0239 10.8611 15.8995 10.8967C15.8818 11.0743 15.7752 11.1453 15.5798 11.1098C15.4022 11.0565 15.1891 11.0565 14.9404 11.1098C14.8339 11.092 14.7539 11.0832 14.7006 11.0832C14.6474 11.0654 14.5941 11.0654 14.5408 11.0832C14.4875 11.1009 14.4165 11.1276 14.3277 11.1631C14.2388 11.1808 14.1145 11.2164 13.9547 11.2697C13.7948 11.2519 13.6882 11.2608 13.6349 11.2963C13.5817 11.3141 13.484 11.3318 13.3419 11.3496C13.2176 11.2963 13.0577 11.2874 12.8623 11.3229C12.6669 11.3407 12.5249 11.3673 12.436 11.4029C12.3472 11.3141 12.2051 11.2963 12.0098 11.3496C11.8322 11.3851 11.6101 11.4206 11.3437 11.4561C11.3259 11.3496 11.2815 11.2874 11.2105 11.2697C11.1395 11.2519 11.0506 11.2608 10.9441 11.2963C10.8553 11.3141 10.7665 11.3407 10.6777 11.3762C10.6066 11.394 10.5533 11.4029 10.5178 11.4029C10.4645 11.2963 10.3935 11.2341 10.3047 11.2164C10.2336 11.1986 10.1448 11.1986 10.0382 11.2164C9.94943 11.2164 9.86062 11.2252 9.77181 11.243C9.70077 11.243 9.6386 11.2164 9.58532 11.1631L9.29225 11.9623L9.42546 12.7883L9.74517 13.028L10.651 12.9748L11.6901 13.0014C11.921 12.9126 12.1252 12.8771 12.3028 12.8948C12.4982 12.9126 12.7469 12.957 13.0488 13.028C13.1909 12.9037 13.3508 12.8593 13.5284 12.8948C13.7238 12.9303 13.8659 12.9303 13.9547 12.8948C14.0079 12.8771 14.1589 12.9037 14.4076 12.9748C14.674 13.028 14.9049 13.0636 15.1003 13.0813C15.2424 13.0991 15.3401 13.1701 15.3933 13.2945C15.4644 13.401 15.6154 13.4632 15.8463 13.481C15.8463 13.6053 15.8463 13.703 15.8463 13.774C15.864 13.8273 15.8818 13.8806 15.8995 13.9339C15.9173 13.9694 15.9351 14.0138 15.9528 14.0671C15.9706 14.1204 15.9884 14.2092 16.0061 14.3335C15.9706 14.6887 15.9617 14.9996 15.9795 15.266C15.9972 15.5324 15.9528 15.71 15.8463 15.7988C15.8995 15.9942 15.9528 16.1629 16.0061 16.305C16.0594 16.4471 16.0949 16.5981 16.1127 16.7579C16.1304 16.9 16.1127 17.0599 16.0594 17.2375C16.0239 17.3974 15.944 17.5927 15.8196 17.8236C15.8551 18.0545 15.8019 18.2233 15.6598 18.3298C15.5177 18.4186 15.42 18.4808 15.3667 18.5163C15.2601 18.5519 15.1713 18.5963 15.1003 18.6495C15.0292 18.7028 14.9493 18.7472 14.8605 18.7828C14.7895 18.8183 14.6918 18.8538 14.5674 18.8893C14.4609 18.9071 14.301 18.9071 14.0879 18.8893C14.0701 18.836 14.0346 18.8094 13.9813 18.8094C13.928 18.8094 13.857 18.8183 13.7682 18.836C13.6971 18.836 13.6083 18.836 13.5017 18.836C13.3952 18.836 13.2797 18.8005 13.1554 18.7295C13.1554 18.8183 13.1199 18.8804 13.0488 18.916C12.9778 18.9515 12.8801 18.9692 12.7558 18.9692C12.6492 18.9692 12.5249 18.9604 12.3828 18.9426C12.2407 18.9071 12.0986 18.8893 11.9565 18.8893C11.921 18.9959 11.7877 19.0492 11.5568 19.0492C11.3437 19.0314 11.1572 19.1113 10.9974 19.289C10.8375 19.1469 10.651 19.0847 10.4379 19.1025C10.2425 19.1202 10.0738 19.2001 9.93167 19.3422C9.68301 19.3422 9.52315 19.3245 9.4521 19.289C9.39882 19.2357 9.25673 19.1113 9.02583 18.916C8.86598 19.0048 8.73276 19.0669 8.62619 19.1025C8.53739 19.1202 8.47522 19.0581 8.4397 18.916C8.2976 19.0048 8.17327 19.0669 8.06671 19.1025C7.9779 19.138 7.88909 19.1557 7.80028 19.1557C7.72924 19.1557 7.64931 19.1469 7.5605 19.1291C7.48945 19.1113 7.39177 19.0936 7.26744 19.0758C7.12534 19.0048 6.98325 18.9781 6.84116 18.9959C6.71683 19.0137 6.55697 19.0225 6.3616 19.0225C6.05965 19.1291 5.83763 19.1557 5.69554 19.1025C5.57121 19.0492 5.55345 19.0225 5.64225 19.0225C5.55345 19.0581 5.438 19.0847 5.2959 19.1025C5.17157 19.1025 5.03836 19.0936 4.89627 19.0758C4.77194 19.0403 4.65649 19.0048 4.54992 18.9692C4.44335 18.916 4.36342 18.8538 4.31014 18.7828C4.18581 18.8538 4.08812 18.8627 4.01707 18.8094C3.96379 18.7561 3.89274 18.7472 3.80393 18.7828C3.62632 18.9604 3.51975 19.0758 3.48422 19.1291C3.4487 19.1824 3.41318 19.2446 3.37766 19.3156H3.43094L3.08459 19.9816C3.06683 19.9994 3.08459 20.0172 3.13787 20.0349C3.19116 20.0705 3.2622 20.0882 3.35101 20.0882C3.43982 20.106 3.52863 20.1149 3.61744 20.1149C3.72401 20.1149 3.81281 20.0971 3.88386 20.0616C3.95491 20.2037 4.05259 20.2658 4.17692 20.2481C4.30126 20.2481 4.42559 20.2658 4.54992 20.3014C4.62096 20.3724 4.68313 20.4079 4.73641 20.4079C4.80746 20.4257 4.86963 20.4257 4.92291 20.4079C4.99396 20.3902 5.065 20.3724 5.13605 20.3546C5.2071 20.3369 5.28702 20.328 5.37583 20.328C5.53568 20.4701 5.69554 20.5234 5.85539 20.4879C6.03301 20.4523 6.25503 20.479 6.52145 20.5678C6.52145 20.5855 6.57473 20.5855 6.6813 20.5678C6.78787 20.5678 7.01877 20.5145 7.374 20.4079C7.42729 20.479 7.49834 20.5323 7.58714 20.5678C7.67595 20.6211 7.85357 20.6655 8.11999 20.701L8.97254 20.3014C9.07911 20.3724 9.15904 20.4079 9.21232 20.4079C9.28337 20.4079 9.33666 20.399 9.37218 20.3813C9.42546 20.3635 9.46987 20.3458 9.50539 20.328C9.54091 20.328 9.58532 20.3546 9.6386 20.4079C9.85174 20.4434 10.0826 20.4879 10.3313 20.5411C10.5977 20.6122 10.8464 20.6211 11.0773 20.5678C11.095 20.3724 11.1927 20.2836 11.3704 20.3014C11.5657 20.3191 11.6989 20.3546 11.77 20.4079C11.9476 20.4434 12.0986 20.4434 12.2229 20.4079C12.3472 20.3902 12.4538 20.3635 12.5426 20.328C12.6314 20.3102 12.7113 20.3014 12.7824 20.3014C12.8534 20.3014 12.9334 20.3458 13.0222 20.4346L14.4609 20.0083L14.7273 20.1948L15.1269 20.1681C15.2157 20.1149 15.3312 20.0705 15.4733 20.0349C15.6331 19.9994 15.8907 20.0793 16.2459 20.2747C16.2814 20.5411 16.3169 20.7454 16.3525 20.8875C16.388 21.0473 16.459 21.1539 16.5656 21.2072C16.4768 21.6335 16.3258 21.9443 16.1127 22.1397C15.9173 22.3528 15.6953 22.3883 15.4466 22.2462C15.3756 22.4594 15.2513 22.5482 15.0736 22.5127C14.896 22.4771 14.7006 22.4505 14.4875 22.4327C14.3454 22.415 14.2033 22.4594 14.0612 22.5659C13.9369 22.6725 13.7682 22.7169 13.555 22.6992C13.5373 22.6814 13.4751 22.6459 13.3685 22.5926C13.262 22.5571 13.1643 22.5571 13.0755 22.5926C12.9511 22.6814 12.7824 22.708 12.5693 22.6725C12.3561 22.6548 12.1696 22.6459 12.0098 22.6459C11.7433 22.6103 11.5746 22.6015 11.5036 22.6192C11.4325 22.637 11.3437 22.6548 11.2371 22.6725C11.1483 22.8146 10.9707 22.8679 10.7043 22.8324C10.4379 22.8146 10.2336 22.8501 10.0915 22.9389C10.0027 22.8679 9.91391 22.8324 9.8251 22.8324C9.75405 22.8324 9.69189 22.8412 9.6386 22.859C9.58532 22.8768 9.54979 22.8945 9.53203 22.9123C9.51427 22.9478 9.53203 22.9478 9.58532 22.9123C9.24785 22.8768 8.99031 22.8501 8.81269 22.8324C8.63507 22.8146 8.45746 22.7702 8.27984 22.6992C8.24432 22.788 8.2088 22.8412 8.17327 22.859C8.13775 22.8945 8.09335 22.9034 8.04006 22.8857C8.00454 22.8857 7.94237 22.859 7.85357 22.8057C7.78252 22.7702 7.68483 22.7347 7.5605 22.6992C7.31184 22.7347 7.11646 22.7524 6.97437 22.7524C6.85004 22.7702 6.66354 22.7791 6.41488 22.7791C6.34383 22.6903 6.26391 22.6814 6.1751 22.7524C6.10405 22.8235 5.97084 22.788 5.77547 22.6459C5.58009 22.6281 5.39359 22.6281 5.21598 22.6459C5.03836 22.6636 4.90515 22.7436 4.81634 22.8857C4.72753 22.8857 4.61208 22.8679 4.46999 22.8324C4.34566 22.8146 4.21245 22.7968 4.07036 22.7791C3.94602 22.7613 3.82169 22.7613 3.69736 22.7791C3.57303 22.7968 3.46646 22.859 3.37766 22.9656C3.34213 22.9656 3.27109 22.9301 3.16452 22.859C3.05795 22.8057 2.95138 22.7524 2.84481 22.6992C2.79152 22.7347 2.72048 22.7347 2.63167 22.6992C2.54286 22.6636 2.44517 22.6281 2.3386 22.5926C2.2498 22.5571 2.15211 22.5393 2.04554 22.5393C1.95673 22.5393 1.8768 22.5837 1.80576 22.6725C1.69919 22.6015 1.61926 22.5393 1.56598 22.486C1.53045 22.4505 1.48605 22.4061 1.43277 22.3528C1.39724 22.2995 1.34396 22.2285 1.27291 22.1397C1.20186 22.0686 1.08641 21.9532 0.926561 21.7933C0.962084 21.8111 0.962084 21.7489 0.926561 21.6068C0.891038 21.4647 0.828872 21.3404 0.740065 21.2338L0.606853 21.2871Z" fill="#4A5578"/>
</svg>
