<svg width="280" height="82" viewBox="0 0 280 82" fill="none" xmlns="http://www.w3.org/2000/svg">
<path d="M4.04207 23.03C3.41541 22.466 3.00807 21.9647 2.82007 21.526C2.63207 21.0873 2.53807 20.7113 2.53807 20.398C2.53807 20.022 2.60074 19.6773 2.72607 19.364C2.8514 19.0507 2.9454 18.7374 3.00807 18.424L1.59807 14.476L2.53807 10.81L1.50407 6.95601L3.00807 7.05001L2.06807 6.76802L3.76007 4.70002C3.63474 4.32402 3.76007 3.91668 4.13607 3.47801C4.51207 2.97668 4.6374 2.38135 4.51207 1.69201C4.95074 1.50401 5.29541 1.41001 5.54607 1.41001C5.8594 1.41001 6.07874 1.41001 6.20407 1.41001C6.39207 1.41001 6.54874 1.37868 6.67407 1.31601C6.7994 1.19068 6.92474 0.940015 7.05007 0.564012C7.36341 0.752014 7.67674 0.846014 7.99007 0.846014C8.36607 0.783348 8.67941 0.720683 8.93007 0.658017C9.24341 0.595347 9.52541 0.564012 9.77607 0.564012C10.0267 0.564012 10.2147 0.689346 10.3401 0.940013C11.4054 0.814681 12.1261 0.689348 12.5021 0.564012C12.9407 0.438681 13.3167 0.438681 13.6301 0.564012C14.0687 0.376015 14.4447 0.313349 14.7581 0.376015C15.1341 0.438681 15.4787 0.532681 15.7921 0.658017C16.1054 0.783348 16.4187 0.877347 16.7321 0.940013C17.1081 1.00268 17.4841 0.971346 17.8601 0.846014C18.4867 0.658013 19.0507 0.720679 19.5521 1.03401C20.1161 1.28468 20.4607 1.25335 20.5861 0.940013C20.5861 0.877347 20.9307 0.783348 21.6201 0.658017C22.3721 0.470015 22.9987 0.564014 23.5001 0.940013C23.5001 0.752015 23.5941 0.68935 23.7821 0.752015C23.9701 0.752015 24.1581 0.814681 24.3461 0.940013C24.5967 1.06535 24.8161 1.19068 25.0041 1.31601C25.2547 1.37868 25.4741 1.37868 25.6621 1.31601C27.1661 1.12801 28.1374 1.47268 28.5761 2.35001C29.0774 3.16468 29.2654 4.04201 29.1401 4.98202C29.1401 5.98468 29.2027 6.64268 29.3281 6.95601C29.4534 7.20668 29.3281 7.39468 28.9521 7.52001C28.5134 8.39735 27.9181 9.02401 27.1661 9.40002C26.4141 9.77602 25.8501 9.80735 25.4741 9.49401C24.5341 9.43135 23.8761 9.46268 23.5001 9.58801C23.1867 9.65068 22.7794 9.74468 22.2781 9.87002C21.9021 9.61935 21.5887 9.49401 21.3381 9.49401C21.0874 9.43135 20.7741 9.43135 20.3981 9.49401C20.0847 9.49401 19.7087 9.52535 19.2701 9.58801C18.8941 9.58801 18.3927 9.52535 17.7661 9.40002C16.7007 9.02401 15.9487 9.08668 15.5101 9.58801C15.4474 9.65068 15.2594 9.68201 14.9461 9.68201C14.6954 9.61935 14.3821 9.58801 14.0061 9.58801C13.6301 9.52535 13.2541 9.49401 12.8781 9.49401C12.5021 9.43135 12.1887 9.40002 11.9381 9.40002L11.4681 8.64801L11.8441 10.058H12.0321L11.5621 14.1C11.4994 14.852 11.4681 15.4473 11.4681 15.886C11.5307 16.3247 11.6247 16.6693 11.7501 16.92C11.9381 17.1707 12.1887 17.3587 12.5021 17.484C12.8781 17.6093 13.4107 17.7347 14.1001 17.86C14.9147 18.2987 15.5727 18.33 16.0741 17.954C16.6381 17.578 17.3274 17.296 18.1421 17.108C18.3301 17.1707 18.4867 17.296 18.6121 17.484C18.8001 17.672 18.9881 17.8287 19.1761 17.954C19.3641 18.0167 19.5834 18.048 19.8341 18.048C20.0847 17.9853 20.3667 17.7973 20.6801 17.484C21.6827 17.672 22.4661 17.672 23.0301 17.484C23.6567 17.296 23.9701 17.5467 23.9701 18.236L25.6621 17.296C26.0381 17.484 26.3201 17.6407 26.5081 17.766C26.6961 17.8913 26.8841 17.9853 27.0721 18.048C27.2601 18.1107 27.4481 18.142 27.6361 18.142C27.8867 18.0793 28.2314 17.954 28.6701 17.766C28.7327 18.2673 28.8267 18.706 28.9521 19.082C29.0774 19.3953 29.1714 19.7087 29.2341 20.022C29.2967 20.2727 29.3281 20.586 29.3281 20.962C29.3907 21.338 29.3594 21.808 29.2341 22.372C29.4847 22.2467 29.5787 22.2467 29.5161 22.372C29.5161 22.4973 29.4221 22.7167 29.2341 23.03C29.1087 23.2807 28.9521 23.594 28.7641 23.97C28.6387 24.346 28.6074 24.7533 28.6701 25.192C28.6701 25.6307 28.3254 25.944 27.6361 26.132C27.0094 26.2574 26.3514 26.2574 25.6621 26.132L23.1241 26.414L18.6121 26.32L16.0741 25.756L14.1941 26.226L10.7161 26.696C9.65074 26.5707 8.80474 26.414 8.17807 26.226C7.61407 25.9753 6.73674 25.38 5.54607 24.44C5.54607 24.5653 5.26407 24.346 4.70007 23.782C4.13607 23.1553 3.63474 22.6227 3.19607 22.184L4.04207 23.03ZM31.3021 22.654C30.8634 22.1527 30.3934 21.62 29.8921 21.056C29.3907 20.492 29.1087 20.2414 29.0461 20.304L28.8581 17.766C29.5474 17.1393 29.9234 16.5127 29.9861 15.886C30.1114 15.2594 30.2054 14.3193 30.2681 13.066C29.8294 12.9407 29.5474 12.6587 29.4221 12.22C29.2967 11.7813 29.5161 10.998 30.0801 9.87002C30.0174 9.87002 29.9547 9.77602 29.8921 9.58801C29.8294 9.40002 29.7667 9.14935 29.7041 8.83601C29.6414 8.52268 29.5787 8.24068 29.5161 7.99001C29.5161 7.67668 29.5161 7.42601 29.5161 7.23802L29.7041 6.48601H29.5161L29.4221 6.01601C29.8607 5.57735 30.1741 5.17001 30.3621 4.79401C30.5501 4.41801 30.7381 4.07335 30.9261 3.76002C31.1141 3.38401 31.3334 3.07068 31.5841 2.82002C31.8974 2.56935 32.3047 2.38135 32.8061 2.25601C32.9941 2.19335 33.1194 2.09935 33.1821 1.97402C33.3074 1.84868 33.4327 1.75468 33.5581 1.69201C33.6834 1.56668 33.9027 1.50402 34.2161 1.50402C34.5294 1.44135 34.9681 1.44135 35.5321 1.50402C35.9707 1.19068 36.4094 0.940013 36.8481 0.752015C37.2867 0.564014 37.6627 0.783347 37.9761 1.41001C38.4774 1.22202 39.1354 0.940015 39.9501 0.564012C40.8274 0.188013 41.7047 0.250681 42.5821 0.752015C42.7701 0.68935 42.9581 0.68935 43.1461 0.752015C43.3967 0.814681 43.6474 0.846014 43.8981 0.846014C44.1487 0.846014 44.3367 0.814681 44.4621 0.752015C44.5874 0.62668 44.6501 0.407346 44.6501 0.0940127C45.9661 0.783348 46.8434 1.09668 47.2821 1.03401C47.7207 0.90868 47.9401 0.62668 47.9401 0.188012C48.9427 0.438679 49.7574 0.564012 50.3841 0.564012C51.0107 0.564012 51.8254 0.470013 52.8281 0.282016C53.1414 0.219346 53.5174 0.282012 53.9561 0.470013C54.3947 0.595349 54.8961 1.00268 55.4601 1.69201C56.6507 1.81735 57.4341 2.22468 57.8101 2.91402C58.1861 3.60335 58.4367 4.16735 58.5621 4.60602C58.6874 4.98202 58.7814 5.57735 58.8441 6.39202C58.9067 7.20668 58.5307 7.70802 57.7161 7.89601C57.4654 8.08401 57.2147 8.30335 56.9641 8.55402C56.7134 8.80468 56.4314 9.02402 56.1181 9.21201C55.8047 9.33735 55.4914 9.43135 55.1781 9.49401C54.8647 9.49401 54.5514 9.33735 54.2381 9.02402C53.8621 9.21202 53.5801 9.36868 53.3921 9.49401C53.2667 9.61935 53.1101 9.68201 52.9221 9.68201C52.7967 9.68201 52.6087 9.61935 52.3581 9.49401C52.1701 9.30601 51.8567 9.05535 51.4181 8.74201C51.3554 9.05535 51.1987 9.24335 50.9481 9.30602C50.7601 9.36868 50.5407 9.40002 50.2901 9.40002C50.0394 9.40002 49.7887 9.43135 49.5381 9.49401C49.2874 9.55668 49.0994 9.74468 48.9741 10.058C48.4727 9.68201 48.0654 9.43135 47.7521 9.30602C47.5014 9.11802 47.2507 8.99268 47.0001 8.93002C46.7494 8.86735 46.4987 8.83601 46.2481 8.83601C46.0601 8.77335 45.8094 8.64801 45.4961 8.46002C44.9947 8.71068 44.6187 8.89868 44.3681 9.02402C44.1174 9.14935 43.8667 9.27468 43.6161 9.40002C43.4281 9.46268 43.2087 9.52535 42.9581 9.58801C42.7074 9.58801 42.3001 9.58801 41.7361 9.58801C41.6734 9.58801 41.5481 9.55668 41.3601 9.49401C41.1721 9.43135 41.0154 9.36868 40.8901 9.30602C40.7647 9.24335 40.6707 9.24335 40.6081 9.30602C40.5454 9.30602 40.5767 9.40002 40.7021 9.58801H39.2921L38.6341 9.96401C38.8221 9.90135 38.8847 9.87002 38.8221 9.87002C38.7594 9.87002 38.6654 9.90135 38.5401 9.96401C38.4774 9.96401 38.3834 9.99535 38.2581 10.058C38.1954 10.1207 38.2581 10.2147 38.4461 10.34L39.1981 14.382L39.2921 15.604L39.0101 17.014C39.1981 17.014 39.3861 17.1393 39.5741 17.39C39.8247 17.578 40.0441 17.766 40.2321 17.954C40.4201 18.142 40.6081 18.2673 40.7961 18.33C41.0467 18.3927 41.2661 18.2673 41.4541 17.954C41.5794 18.0167 41.9554 18.048 42.5821 18.048C43.2714 18.048 44.0234 17.86 44.8381 17.484C45.7154 18.2987 46.3421 18.6747 46.7181 18.612C47.1567 18.5493 47.3447 18.2047 47.2821 17.578C47.7207 17.8914 48.0967 18.1107 48.4101 18.236C48.7234 18.2987 49.0054 18.33 49.2561 18.33C49.5694 18.2673 49.9141 18.142 50.2901 17.954C50.6661 17.766 51.1674 17.578 51.7941 17.39C52.1701 17.3273 52.5461 17.4527 52.9221 17.766C53.3607 18.0167 53.7367 18.3613 54.0501 18.8C54.6141 18.424 55.0841 18.236 55.4601 18.236C55.8361 18.1733 56.1494 18.2047 56.4001 18.33C56.7134 18.3927 56.9641 18.4867 57.1521 18.612C57.3401 18.6747 57.5281 18.706 57.7161 18.706C57.6534 19.5833 57.7787 20.398 58.0921 21.15C58.4054 21.8393 58.3427 22.5287 57.9041 23.218C58.0921 23.5313 58.1234 23.876 57.9981 24.252C57.8727 24.5653 57.6221 24.8787 57.2461 25.192C56.9327 25.5053 56.5254 25.7873 56.0241 26.038C55.5227 26.226 54.9901 26.32 54.4261 26.32L51.9821 27.354L48.9741 26.32L45.3081 27.354L40.7021 27.166L37.5061 26.602C36.5034 26.7273 35.6574 26.8213 34.9681 26.884C34.2787 26.884 34.0907 26.6647 34.4041 26.226C33.4641 26.1007 32.7747 25.8187 32.3361 25.38C31.8974 24.8787 31.3334 24.0953 30.6441 23.03L31.3021 22.654ZM2.35007 75.2C2.03674 75.0747 1.97407 74.636 2.16207 73.884C2.41274 73.1947 2.82007 72.568 3.38407 72.004C2.82007 71.3774 2.50674 70.6567 2.44407 69.842C2.44407 68.9647 2.2874 68.2127 1.97407 67.586C1.41007 66.27 1.56674 65.0167 2.44407 63.826C2.31874 63.5754 2.3814 63.2307 2.63207 62.792C2.94541 62.2907 2.78874 61.7894 2.16207 61.288C2.41274 60.8494 2.9454 60.4734 3.76007 60.16C4.6374 59.8467 5.1074 59.4394 5.17007 58.938C5.4834 58.75 5.9534 58.656 6.58007 58.656C7.2694 58.5934 7.80207 58.3114 8.17807 57.81L9.11807 59.22C9.30607 59.032 9.52541 58.8754 9.77607 58.75C10.0894 58.6247 10.3714 58.562 10.6221 58.562C10.8727 58.4994 11.0607 58.5307 11.1861 58.656C11.3114 58.7187 11.3427 58.8754 11.2801 59.126C12.1574 59.0007 12.9721 59.032 13.7241 59.22C14.4761 59.408 14.7581 59.502 14.5701 59.502C15.1967 59.0007 15.9174 58.75 16.7321 58.75C17.6094 58.6874 18.0794 58.938 18.1421 59.502C18.4554 59.502 18.9881 59.4707 19.7401 59.408C20.5547 59.3454 21.2441 59.1574 21.8081 58.844C21.9961 59.3454 22.3094 59.5647 22.7481 59.502C23.1867 59.4394 23.6567 59.22 24.1581 58.844C24.7847 59.1574 25.2547 59.3454 25.5681 59.408C25.8814 59.4707 26.1634 59.502 26.4141 59.502C26.7274 59.502 27.0407 59.5334 27.3541 59.596C27.6674 59.596 28.1374 59.7214 28.7641 59.972C28.7014 59.4707 28.9834 59.2827 29.6101 59.408C30.2994 59.5334 30.8947 59.7527 31.3961 60.066C31.7094 59.314 32.1794 59.0007 32.8061 59.126C33.4327 59.2514 33.9967 59.3767 34.4981 59.502C34.8741 59.1887 35.3127 59.0947 35.8141 59.22C36.3781 59.3454 36.9734 59.2827 37.6001 59.032C38.2894 58.7187 38.7281 58.656 38.9161 58.844C39.1041 58.9694 39.3234 59.3454 39.5741 59.972C40.1381 59.4707 40.7647 59.2827 41.4541 59.408C42.2061 59.5334 43.0207 59.5334 43.8981 59.408C43.9607 59.408 44.0547 59.3454 44.1801 59.22C44.3054 59.032 44.4934 58.844 44.7441 58.656C44.9947 58.468 45.3081 58.3114 45.6841 58.186C46.1227 58.0607 46.6241 58.0294 47.1881 58.092C47.6894 58.4054 48.0027 58.5307 48.1281 58.468C48.3161 58.4054 48.3787 57.904 48.3161 56.964L47.9401 56.4L48.8801 54.802C48.0027 54.5513 47.5954 54.4887 47.6581 54.614C47.7834 54.7394 47.9401 54.6767 48.1281 54.426L45.9661 53.956C45.6527 54.0814 45.4021 54.238 45.2141 54.426C45.0261 54.614 44.8381 54.7707 44.6501 54.896C44.4621 54.9587 44.2114 54.99 43.8981 54.99C43.5847 54.9274 43.1461 54.7394 42.5821 54.426C42.2061 54.99 41.7047 55.178 41.0781 54.99C40.4514 54.802 39.8874 54.7707 39.3861 54.896C39.0101 55.0213 38.6027 55.084 38.1641 55.084C37.7881 55.084 37.4121 55.084 37.0361 55.084C36.7227 55.0214 36.4094 55.0214 36.0961 55.084C35.8454 55.084 35.6574 55.2093 35.5321 55.46C34.9681 55.5227 34.4354 55.5227 33.9341 55.46C33.4327 55.3347 32.7121 55.3974 31.7721 55.648C31.2081 55.5227 30.8321 55.4914 30.6441 55.554C30.5187 55.6167 30.3307 55.554 30.0801 55.366C29.0147 55.4287 28.2001 55.4914 27.6361 55.554C27.0721 55.6167 26.1947 55.7107 25.0041 55.836C24.7534 55.3973 24.4087 55.1154 23.9701 54.99C23.5941 54.802 22.9674 54.7394 22.0901 54.802C21.9647 55.0527 21.5261 55.2093 20.7741 55.272C20.0221 55.272 19.3327 54.99 18.7061 54.426C18.7687 54.614 18.6747 54.7394 18.4241 54.802C18.1734 54.802 17.8601 54.7707 17.4841 54.708C17.1081 54.6454 16.7634 54.5827 16.4501 54.52C16.1367 54.4573 15.9801 54.426 15.9801 54.426C15.2907 54.8647 14.6014 55.1467 13.9121 55.272C13.2854 55.3974 12.5334 55.6167 11.6561 55.93C11.3427 55.6167 11.0294 55.4287 10.7161 55.366C10.4027 55.2407 10.0581 55.1467 9.68207 55.084C9.36874 55.0214 8.99274 54.9587 8.55407 54.896C8.17807 54.8334 7.77074 54.6454 7.33207 54.332C7.26941 54.0187 6.54874 53.486 5.17007 52.734C4.85674 52.17 4.5434 51.7627 4.23007 51.512C3.9794 51.1987 4.01074 50.6033 4.32407 49.726C3.76007 49.2874 3.66607 48.9114 4.04207 48.598C4.48074 48.2847 4.85674 47.8773 5.17007 47.376C5.23274 47.2507 5.4834 46.9373 5.92207 46.436C6.36074 45.872 6.89341 45.6213 7.52007 45.684C7.77074 46.248 8.14674 46.53 8.64807 46.53C9.14941 46.53 9.49407 46.3734 9.68207 46.06C10.3087 45.872 10.8101 45.8093 11.1861 45.872C11.6247 45.872 11.9694 45.9034 12.2201 45.966C12.4707 46.0287 12.6587 46.06 12.7841 46.06C12.9094 46.06 13.0347 45.9347 13.1601 45.684C13.8494 45.8094 14.3821 45.9034 14.7581 45.966C15.1967 46.0287 15.9487 45.9974 17.0141 45.872C17.2647 46.248 17.5154 46.4987 17.7661 46.624C18.0167 46.6867 18.2674 46.7494 18.5181 46.812C18.8314 46.812 19.1447 46.8433 19.4581 46.906C19.8341 46.9687 20.2727 47.094 20.7741 47.282C21.6514 47.282 22.3407 47.2193 22.8421 47.094C23.3434 46.9687 24.1267 46.718 25.1921 46.342C25.0667 45.966 24.9727 45.6527 24.9101 45.402C24.8474 45.1514 24.7847 44.9007 24.7221 44.65C24.7221 44.3993 24.6594 44.1173 24.5341 43.804C24.4087 43.428 24.2521 42.958 24.0641 42.394L25.0981 39.198C24.0954 39.1353 23.2807 39.104 22.6541 39.104C22.0274 39.0413 21.7141 39.1667 21.7141 39.48C21.1501 39.6053 20.4607 39.6367 19.6461 39.574C18.8314 39.4487 18.4241 39.4487 18.4241 39.574C17.9227 39.6367 17.4841 39.6993 17.1081 39.762C16.7947 39.8247 16.4814 39.8873 16.1681 39.95C15.9174 40.0127 15.6354 40.044 15.3221 40.044C15.0087 40.044 14.6327 39.9813 14.1941 39.856C13.8807 39.7934 13.4734 39.762 12.9721 39.762C12.4707 39.762 12.0007 39.6367 11.5621 39.386C10.4967 39.198 9.65074 39.0727 9.02407 39.01C8.46007 38.8847 7.73941 39.1667 6.86207 39.856C6.92474 39.48 6.8934 39.2293 6.76807 39.104C6.64274 38.9787 6.42341 38.8847 6.11007 38.822C5.8594 38.7593 5.51474 38.728 5.07607 38.728C4.6374 38.6653 4.13607 38.5713 3.57207 38.446C3.63474 38.7593 3.54074 38.916 3.29007 38.916C3.0394 38.916 2.72607 38.822 2.35007 38.634C1.97407 38.3833 1.59807 38.1013 1.22207 37.788C0.846071 37.4747 0.595404 37.1927 0.470071 36.942C0.720738 37.13 0.846071 37.1927 0.846071 37.13C0.846071 37.0673 0.783405 36.942 0.658071 36.754C0.595405 36.566 0.501405 36.3467 0.376071 36.096C0.313405 35.8453 0.313405 35.5947 0.376071 35.344C0.689405 34.5294 0.689405 33.84 0.376071 33.276C0.125405 32.6493 0.156738 32.336 0.470071 32.336C0.908738 31.6467 1.5354 31.114 2.35007 30.738C3.2274 30.2993 4.0734 30.1427 4.88807 30.268C5.26407 30.2053 5.51474 30.2367 5.64007 30.362C5.82807 30.4247 5.98474 30.5187 6.11007 30.644C6.29807 30.7693 6.45474 30.8947 6.58007 31.02C6.76807 31.1453 7.05007 31.1767 7.42607 31.114C8.30341 31.0513 9.05541 30.9887 9.68207 30.926C10.3087 30.8633 10.9667 30.9887 11.6561 31.302C12.4081 31.4273 12.8781 31.5213 13.0661 31.584C13.2541 31.584 13.6614 31.5213 14.2881 31.396C14.9774 30.8947 15.5101 30.644 15.8861 30.644C16.3247 30.5813 16.8574 30.4873 17.4841 30.362C18.4867 31.0513 19.2387 31.396 19.7401 31.396C20.3041 31.3333 21.0561 31.2393 21.9961 31.114L24.7221 31.866L28.9521 31.396L32.3361 30.644L34.5921 31.866L38.5401 30.738C39.2921 30.6127 39.8561 30.6127 40.2321 30.738C40.6707 30.8007 41.1721 31.02 41.7361 31.396C41.9241 31.3333 42.2061 31.2707 42.5821 31.208C42.9581 31.0827 43.3654 31.02 43.8041 31.02C44.2427 30.9573 44.6501 30.9887 45.0261 31.114C45.4647 31.2393 45.8407 31.49 46.1541 31.866C46.1541 31.4273 46.4674 31.0513 47.0941 30.738C47.7834 30.4247 48.5041 30.3307 49.2561 30.456C49.3814 30.7693 49.8201 30.8947 50.5721 30.832C51.3867 30.7693 52.2327 30.4873 53.1101 29.986C53.2981 30.2993 53.4861 30.456 53.6741 30.456C53.9247 30.456 54.1441 30.4247 54.3321 30.362C54.5827 30.2993 54.8021 30.268 54.9901 30.268C55.1781 30.2053 55.3661 30.268 55.5541 30.456C56.1807 30.7693 56.6821 30.9573 57.0581 31.02C57.4341 31.0827 57.8101 31.0513 58.1861 30.926C59.0634 31.5527 59.5334 32.148 59.5961 32.712C59.7214 33.276 59.7214 33.9653 59.5961 34.78C60.4107 34.9053 60.6614 35.3127 60.3481 36.002C60.0347 36.6287 59.3767 37.036 58.3741 37.224C58.6874 37.412 58.5307 37.6627 57.9041 37.976C57.2774 38.2267 56.7447 38.4147 56.3061 38.54C56.2434 39.1667 55.8674 39.4173 55.1781 39.292C54.5514 39.104 53.7994 39.104 52.9221 39.292C52.5461 39.2293 52.2641 39.198 52.0761 39.198C51.8881 39.1353 51.7001 39.1353 51.5121 39.198C51.3241 39.2607 51.0734 39.3547 50.7601 39.48C50.4467 39.5427 50.0081 39.668 49.4441 39.856C48.8801 39.7934 48.5041 39.8247 48.3161 39.95C48.1281 40.0127 47.7834 40.0753 47.2821 40.138C46.8434 39.95 46.2794 39.9187 45.5901 40.044C44.9007 40.1067 44.3994 40.2007 44.0861 40.326C43.7727 40.0127 43.2714 39.95 42.5821 40.138C41.9554 40.2633 41.1721 40.3887 40.2321 40.514C40.1694 40.138 40.0127 39.9187 39.7621 39.856C39.5114 39.7934 39.1981 39.8247 38.8221 39.95C38.5087 40.0127 38.1954 40.1067 37.8821 40.232C37.6314 40.2947 37.4434 40.326 37.3181 40.326C37.1301 39.95 36.8794 39.7307 36.5661 39.668C36.3154 39.6054 36.0021 39.6054 35.6261 39.668C35.3127 39.668 34.9994 39.6993 34.6861 39.762C34.4354 39.762 34.2161 39.668 34.0281 39.48L32.9941 42.3L33.4641 45.214L34.5921 46.06L37.7881 45.872L41.4541 45.966C42.2687 45.6527 42.9894 45.5273 43.6161 45.59C44.3054 45.6527 45.1827 45.8094 46.2481 46.06C46.7494 45.6214 47.3134 45.4647 47.9401 45.59C48.6294 45.7153 49.1307 45.7153 49.4441 45.59C49.6321 45.5273 50.1647 45.6214 51.0421 45.872C51.9821 46.06 52.7967 46.1853 53.4861 46.248C53.9874 46.3107 54.3321 46.5614 54.5201 47C54.7707 47.376 55.3034 47.5953 56.1181 47.658C56.1181 48.0967 56.1181 48.4413 56.1181 48.692C56.1807 48.88 56.2434 49.068 56.3061 49.256C56.3687 49.3813 56.4314 49.538 56.4941 49.726C56.5567 49.914 56.6194 50.2274 56.6821 50.666C56.5567 51.9194 56.5254 53.016 56.5881 53.956C56.6507 54.896 56.4941 55.5227 56.1181 55.836C56.3061 56.5254 56.4941 57.1207 56.6821 57.622C56.8701 58.1234 56.9954 58.656 57.0581 59.22C57.1207 59.7214 57.0581 60.2854 56.8701 60.912C56.7447 61.476 56.4627 62.1654 56.0241 62.98C56.1494 63.7947 55.9614 64.39 55.4601 64.766C54.9587 65.0794 54.6141 65.2987 54.4261 65.424C54.0501 65.5494 53.7367 65.706 53.4861 65.894C53.2354 66.082 52.9534 66.2387 52.6401 66.364C52.3894 66.4894 52.0447 66.6147 51.6061 66.74C51.2301 66.8027 50.6661 66.8027 49.9141 66.74C49.8514 66.552 49.7261 66.458 49.5381 66.458C49.3501 66.458 49.0994 66.4894 48.7861 66.552C48.5354 66.552 48.2221 66.552 47.8461 66.552C47.4701 66.552 47.0627 66.4267 46.6241 66.176C46.6241 66.4894 46.4987 66.7087 46.2481 66.834C45.9974 66.9594 45.6527 67.022 45.2141 67.022C44.8381 67.022 44.3994 66.9907 43.8981 66.928C43.3967 66.8027 42.8954 66.74 42.3941 66.74C42.2687 67.116 41.7987 67.304 40.9841 67.304C40.2321 67.2414 39.5741 67.5234 39.0101 68.15C38.4461 67.6487 37.7881 67.4294 37.0361 67.492C36.3467 67.5547 35.7514 67.8367 35.2501 68.338C34.3727 68.338 33.8087 68.2754 33.5581 68.15C33.3701 67.962 32.8687 67.5234 32.0541 66.834C31.4901 67.1474 31.0201 67.3667 30.6441 67.492C30.3307 67.5547 30.1114 67.3354 29.9861 66.834C29.4847 67.1474 29.0461 67.3667 28.6701 67.492C28.3567 67.6174 28.0434 67.68 27.7301 67.68C27.4794 67.68 27.1974 67.6487 26.8841 67.586C26.6334 67.5234 26.2887 67.4607 25.8501 67.398C25.3487 67.1474 24.8474 67.0534 24.3461 67.116C23.9074 67.1787 23.3434 67.21 22.6541 67.21C21.5887 67.586 20.8054 67.68 20.3041 67.492C19.8654 67.304 19.8027 67.21 20.1161 67.21C19.8027 67.3354 19.3954 67.4294 18.8941 67.492C18.4554 67.492 17.9854 67.4607 17.4841 67.398C17.0454 67.2727 16.6381 67.1474 16.2621 67.022C15.8861 66.834 15.6041 66.6147 15.4161 66.364C14.9774 66.6147 14.6327 66.646 14.3821 66.458C14.1941 66.27 13.9434 66.2387 13.6301 66.364C13.0034 66.9907 12.6274 67.398 12.5021 67.586C12.3767 67.774 12.2514 67.9934 12.1261 68.244H12.3141L11.0921 70.594C11.0294 70.6567 11.0921 70.7194 11.2801 70.782C11.4681 70.9074 11.7187 70.97 12.0321 70.97C12.3454 71.0327 12.6587 71.064 12.9721 71.064C13.3481 71.064 13.6614 71.0014 13.9121 70.876C14.1627 71.3774 14.5074 71.5967 14.9461 71.534C15.3847 71.534 15.8234 71.5967 16.2621 71.722C16.5127 71.9727 16.7321 72.098 16.9201 72.098C17.1707 72.1607 17.3901 72.1607 17.5781 72.098C17.8287 72.0354 18.0794 71.9727 18.3301 71.91C18.5807 71.8474 18.8627 71.816 19.1761 71.816C19.7401 72.3174 20.3041 72.5054 20.8681 72.38C21.4947 72.2547 22.2781 72.3487 23.2181 72.662C23.2181 72.7247 23.4061 72.7247 23.7821 72.662C24.1581 72.662 24.9727 72.474 26.2261 72.098C26.4141 72.3487 26.6647 72.5367 26.9781 72.662C27.2914 72.85 27.9181 73.0067 28.8581 73.132L31.8661 71.722C32.2421 71.9727 32.5241 72.098 32.7121 72.098C32.9627 72.098 33.1507 72.0667 33.2761 72.004C33.4641 71.9414 33.6207 71.8787 33.7461 71.816C33.8714 71.816 34.0281 71.91 34.2161 72.098C34.9681 72.2234 35.7827 72.38 36.6601 72.568C37.6001 72.8187 38.4774 72.85 39.2921 72.662C39.3547 71.9727 39.6994 71.6594 40.3261 71.722C41.0154 71.7847 41.4854 71.91 41.7361 72.098C42.3627 72.2234 42.8954 72.2234 43.3341 72.098C43.7727 72.0354 44.1487 71.9414 44.4621 71.816C44.7754 71.7534 45.0574 71.722 45.3081 71.722C45.5587 71.722 45.8407 71.8787 46.1541 72.192L51.2301 70.688L52.1701 71.346L53.5801 71.252C53.8934 71.064 54.3007 70.9074 54.8021 70.782C55.3661 70.6567 56.2747 70.9387 57.5281 71.628C57.6534 72.568 57.7787 73.2887 57.9041 73.79C58.0294 74.354 58.2801 74.73 58.6561 74.918C58.3427 76.422 57.8101 77.5187 57.0581 78.208C56.3687 78.96 55.5854 79.0854 54.7081 78.584C54.4574 79.336 54.0187 79.6494 53.3921 79.524C52.7654 79.3987 52.0761 79.3047 51.3241 79.242C50.8227 79.1794 50.3214 79.336 49.8201 79.712C49.3814 80.088 48.7861 80.2447 48.0341 80.182C47.9714 80.1194 47.7521 79.994 47.3761 79.806C47.0001 79.6807 46.6554 79.6807 46.3421 79.806C45.9034 80.1194 45.3081 80.2134 44.5561 80.088C43.8041 80.0254 43.1461 79.994 42.5821 79.994C41.6421 79.8687 41.0467 79.8374 40.7961 79.9C40.5454 79.9627 40.2321 80.0254 39.8561 80.088C39.5427 80.5894 38.9161 80.7774 37.9761 80.652C37.0361 80.5894 36.3154 80.7147 35.8141 81.028C35.5007 80.7774 35.1874 80.652 34.8741 80.652C34.6234 80.652 34.4041 80.6834 34.2161 80.746C34.0281 80.8087 33.9027 80.8714 33.8401 80.934C33.7774 81.0594 33.8401 81.0594 34.0281 80.934C32.8374 80.8087 31.9287 80.7147 31.3021 80.652C30.6754 80.5894 30.0487 80.4327 29.4221 80.182C29.2967 80.4954 29.1714 80.6834 29.0461 80.746C28.9207 80.8714 28.7641 80.9027 28.5761 80.84C28.4507 80.84 28.2314 80.746 27.9181 80.558C27.6674 80.4327 27.3227 80.3074 26.8841 80.182C26.0067 80.3074 25.3174 80.37 24.8161 80.37C24.3774 80.4327 23.7194 80.464 22.8421 80.464C22.5914 80.1507 22.3094 80.1194 21.9961 80.37C21.7454 80.6207 21.2754 80.4954 20.5861 79.994C19.8967 79.9314 19.2387 79.9314 18.6121 79.994C17.9854 80.0567 17.5154 80.3387 17.2021 80.84C16.8887 80.84 16.4814 80.7774 15.9801 80.652C15.5414 80.5894 15.0714 80.5267 14.5701 80.464C14.1314 80.4014 13.6927 80.4014 13.2541 80.464C12.8154 80.5267 12.4394 80.746 12.1261 81.122C12.0007 81.122 11.7501 80.9967 11.3741 80.746C10.9981 80.558 10.6221 80.37 10.2461 80.182C10.0581 80.3074 9.80741 80.3074 9.49407 80.182C9.18074 80.0567 8.83607 79.9314 8.46007 79.806C8.14674 79.6807 7.80207 79.618 7.42607 79.618C7.11274 79.618 6.83074 79.7747 6.58007 80.088C6.20407 79.8374 5.92207 79.618 5.73407 79.43C5.60874 79.3047 5.45207 79.148 5.26407 78.96C5.13874 78.772 4.95074 78.5214 4.70007 78.208C4.4494 77.9574 4.04207 77.55 3.47807 76.986C3.6034 77.0487 3.6034 76.8294 3.47807 76.328C3.35274 75.8267 3.1334 75.388 2.82007 75.012L2.35007 75.2ZM125.428 73.978L124.488 71.91C124.676 71.4714 124.802 71.1267 124.864 70.876C124.927 70.6254 125.021 70.1554 125.146 69.466C125.648 68.526 125.836 67.8367 125.71 67.398C125.585 66.9594 125.272 66.3954 124.77 65.706C125.084 65.2674 125.24 64.8287 125.24 64.39C125.24 63.8887 125.209 63.4814 125.146 63.168C125.084 62.8547 125.021 62.6354 124.958 62.51C124.958 62.322 125.084 62.2907 125.334 62.416C125.084 61.852 125.084 61.1314 125.334 60.254C125.585 59.3767 125.491 58.4994 125.052 57.622C125.303 57.622 125.428 57.5594 125.428 57.434C125.428 57.246 125.397 57.0267 125.334 56.776C125.334 56.5254 125.366 56.2434 125.428 55.93C125.491 55.6167 125.742 55.366 126.18 55.178C125.804 54.99 125.585 54.802 125.522 54.614C125.46 54.3634 125.46 54.1127 125.522 53.862C125.585 53.5487 125.648 53.204 125.71 52.828C125.836 52.3894 125.867 51.9194 125.804 51.418C125.679 51.042 125.491 50.6347 125.24 50.196C124.99 49.6947 125.084 49.2873 125.522 48.974C125.773 47.9087 125.836 47.1253 125.71 46.624C125.585 46.1227 125.46 45.4334 125.334 44.556C125.585 44.6813 125.71 44.65 125.71 44.462C125.773 44.274 125.773 44.0234 125.71 43.71C125.648 43.3967 125.585 43.0834 125.522 42.77C125.46 42.4567 125.428 42.206 125.428 42.018C125.115 41.5793 124.99 40.9213 125.052 40.044C125.115 39.1667 125.303 38.3833 125.616 37.694C125.554 37.694 125.397 37.3807 125.146 36.754C124.958 36.1273 125.115 35.4067 125.616 34.592C125.491 34.5293 125.428 34.404 125.428 34.216C125.491 34.028 125.554 33.8087 125.616 33.558C125.679 33.3073 125.71 33.0567 125.71 32.806C125.71 32.4927 125.616 32.148 125.428 31.772C125.616 31.7093 125.71 31.5213 125.71 31.208C125.71 30.8947 125.648 30.55 125.522 30.174C125.46 29.7353 125.366 29.328 125.24 28.952C125.178 28.5133 125.115 28.1687 125.052 27.918C125.24 27.4793 125.428 27.1033 125.616 26.79C125.867 26.414 126.024 25.756 126.086 24.816C125.397 24.3147 124.99 23.8133 124.864 23.312C124.739 22.8107 124.614 21.9647 124.488 20.774C125.115 20.8367 125.366 20.7113 125.24 20.398C125.178 20.0847 125.084 19.3327 124.958 18.142C125.46 17.7033 125.679 17.2647 125.616 16.826C125.554 16.3873 125.397 15.8233 125.146 15.134C125.397 14.4447 125.366 13.8807 125.052 13.442C124.802 12.9407 124.739 12.502 124.864 12.126C124.99 11.6873 125.021 11.374 124.958 11.186C124.896 10.9353 124.77 10.716 124.582 10.528C124.457 10.2773 124.269 10.0267 124.018 9.77602C123.83 9.46268 123.674 9.02402 123.548 8.46002L124.676 8.36601L123.454 7.89601C123.517 7.39468 123.58 6.70535 123.642 5.82801C123.768 4.88801 124.05 4.04201 124.488 3.29002C125.115 3.47801 125.804 3.44668 126.556 3.19601C127.371 2.94535 127.935 2.60068 128.248 2.16201C129.314 2.03668 130.16 2.22468 130.786 2.72601C131.413 3.16468 131.601 3.32135 131.35 3.19601C132.29 3.69735 132.792 4.16735 132.854 4.60602C132.98 5.04468 133.011 5.51468 132.948 6.01601C133.45 7.08135 133.669 7.95868 133.606 8.64801C133.544 9.33735 133.7 10.0893 134.076 10.904C134.327 11.2173 134.327 11.5933 134.076 12.032C133.888 12.408 134.014 12.9407 134.452 13.63L133.794 16.638L134.452 20.774C134.327 20.8993 134.327 21.3067 134.452 21.996C134.64 22.6227 134.672 23.0613 134.546 23.312C134.421 23.5 134.358 24.064 134.358 25.004C134.358 25.944 134.421 26.602 134.546 26.978C134.734 27.1033 134.797 27.2913 134.734 27.542C134.734 27.7927 134.672 28.0747 134.546 28.388C134.484 28.6387 134.39 28.8893 134.264 29.14C134.139 29.3907 134.108 29.5473 134.17 29.61C134.233 30.2993 134.233 30.8947 134.17 31.396C134.17 31.8973 134.327 32.0853 134.64 31.96C134.828 32.8374 134.922 33.6833 134.922 34.498C134.985 35.3127 134.828 35.8767 134.452 36.19C135.204 37.506 135.267 38.3207 134.64 38.634C134.891 39.3233 135.048 39.7933 135.11 40.044C135.173 40.2947 135.361 40.608 135.674 40.984C135.361 41.548 135.142 42.0493 135.016 42.488C134.891 42.864 134.797 43.24 134.734 43.616C134.734 43.9293 134.734 44.2427 134.734 44.556C134.734 44.8694 134.734 45.214 134.734 45.59C134.484 45.778 134.452 46.0914 134.64 46.53C134.891 46.9687 134.734 47.5327 134.17 48.222C134.484 48.41 134.734 48.786 134.922 49.35C135.173 49.8513 135.236 50.5407 135.11 51.418C135.048 51.4807 135.016 51.7627 135.016 52.264C135.079 52.7653 135.173 53.298 135.298 53.862C135.361 54.3634 135.267 54.9274 135.016 55.554C134.828 56.118 134.766 56.494 134.828 56.682C134.954 57.5594 135.016 58.2487 135.016 58.75C135.079 59.2514 135.11 59.6587 135.11 59.972C135.236 59.972 135.236 60.2854 135.11 60.912C135.048 61.476 134.922 61.9774 134.734 62.416C134.922 62.7294 134.985 63.074 134.922 63.45C134.86 63.826 134.766 64.2647 134.64 64.766C134.578 65.2674 134.515 65.8314 134.452 66.458C134.452 67.0847 134.546 67.7427 134.734 68.432C134.484 69.3094 134.421 70.2494 134.546 71.252C134.672 72.3174 134.672 73.0067 134.546 73.32C133.794 74.26 133.293 74.9494 133.042 75.388C132.854 75.8267 132.698 76.1087 132.572 76.234C132.071 76.234 131.57 76.4534 131.068 76.892C130.567 77.3934 130.066 77.7067 129.564 77.832C129.251 77.5187 128.812 77.2054 128.248 76.892C127.684 76.6414 127.246 76.61 126.932 76.798C125.115 76.1087 124.363 74.8867 124.676 73.132L125.428 73.978ZM71.9424 64.108L71.3784 62.04L72.8824 57.246L71.8484 54.52L71.5664 51.606L72.7884 48.222L71.3784 44.274C71.6917 44.3367 71.8484 44.368 71.8484 44.368C71.9111 44.3053 71.9111 44.2113 71.8484 44.086C71.7857 43.9607 71.7231 43.804 71.6604 43.616C71.6604 43.428 71.8171 43.24 72.1304 43.052C71.8797 42.488 71.7231 42.0494 71.6604 41.736C71.6604 41.4227 71.6604 41.172 71.6604 40.984C71.7231 40.7333 71.7544 40.4827 71.7544 40.232C71.8171 39.9813 71.8171 39.668 71.7544 39.292C72.1304 39.2293 72.3811 39.0727 72.5064 38.822C72.6317 38.5713 72.7257 38.2893 72.7884 37.976C72.8511 37.6 72.9137 37.2867 72.9764 37.036C73.0391 36.7227 73.1331 36.5347 73.2584 36.472C73.8224 36.2213 74.5431 35.9707 75.4204 35.72C76.3604 35.4067 77.0811 35.344 77.5824 35.532L80.6844 36.848L85.1024 35.814L87.6404 36.472L92.0584 36.848C91.9957 36.7853 91.9644 36.66 91.9644 36.472C92.0271 36.2213 92.4657 35.8453 93.2804 35.344C93.0297 35.6573 92.8731 35.814 92.8104 35.814C92.8104 35.814 92.8104 35.7513 92.8104 35.626C92.8104 35.438 92.8104 35.25 92.8104 35.062C92.8731 34.8113 92.8417 34.592 92.7164 34.404V32.618L92.8104 27.542V24.158L92.6224 21.338L92.7164 17.014C92.8417 16.5753 92.8104 16.2933 92.6224 16.168C92.4344 15.98 92.3091 16.0427 92.2464 16.356L87.4524 16.168L84.3504 16.544L81.8124 15.886L77.1124 16.544C76.7364 16.2933 76.3291 16.1367 75.8904 16.074C75.5144 15.9487 75.1071 15.6667 74.6684 15.228C73.8537 14.3507 73.3524 13.6927 73.1644 13.254C73.0391 12.8153 73.0391 12.6273 73.1644 12.69C72.7884 12.2513 72.6631 11.562 72.7884 10.622C72.9137 9.68201 73.1957 9.18068 73.6344 9.11801C74.5744 8.36601 75.2637 7.80201 75.7024 7.42601C76.1411 7.05001 76.4544 7.05001 76.6424 7.42601L80.7784 7.14402L83.9744 7.05001L86.4184 6.76802L91.0244 6.67401L93.4684 7.89601C94.1577 7.52001 94.8471 7.23801 95.5364 7.05001C96.2257 6.86202 97.1657 6.83068 98.3564 6.95601C98.6697 7.39468 98.8577 7.80202 98.9204 8.17802C98.9831 8.49135 99.2964 8.74202 99.8604 8.93002C100.299 9.80735 100.706 10.622 101.082 11.374C101.521 12.0633 101.584 12.8153 101.27 13.63C101.772 13.5673 102.116 14.006 102.304 14.946C102.492 15.886 102.524 16.826 102.398 17.766C102.148 17.954 101.96 18.236 101.834 18.612C101.709 18.9253 101.646 19.27 101.646 19.646C101.709 20.022 101.803 20.3667 101.928 20.68C102.116 20.9307 102.398 21.056 102.774 21.056C102.336 22.3093 102.022 23.3433 101.834 24.158C101.646 24.9727 101.834 25.4427 102.398 25.568L102.21 29.798L102.304 32.9L102.21 32.994L105.218 32.712L111.046 33.37C111.172 32.8687 111.109 32.3047 110.858 31.678C110.608 31.0513 110.294 30.2993 109.918 29.422C110.67 29.234 111.046 29.0774 111.046 28.952C111.046 28.764 111.015 28.4193 110.952 27.918C111.015 27.354 110.89 26.7587 110.576 26.132C110.263 25.4427 109.95 24.6907 109.636 23.876C109.824 23.5 109.856 23.124 109.73 22.748C109.668 22.3093 109.636 21.526 109.636 20.398C109.887 20.21 110.012 19.9907 110.012 19.74C110.075 19.4894 110.075 19.2387 110.012 18.988C109.95 18.6747 109.918 18.3613 109.918 18.048C109.981 17.672 110.138 17.296 110.388 16.92C110.263 16.6693 110.138 16.356 110.012 15.98C109.887 15.604 109.793 15.228 109.73 14.852C109.73 14.476 109.762 14.1627 109.824 13.912C109.887 13.5987 110.044 13.4107 110.294 13.348C110.545 12.7213 110.608 11.9694 110.482 11.092C110.42 10.152 110.044 9.61935 109.354 9.49401L110.576 8.17802L109.73 7.52001C109.981 6.89335 110.169 6.48601 110.294 6.29802C110.42 6.04735 110.294 5.48335 109.918 4.60602C110.545 4.35535 111.015 4.01068 111.328 3.57201C111.642 3.07068 112.237 2.75735 113.114 2.63201C113.992 3.07068 114.744 3.44668 115.37 3.76002C115.997 4.07335 116.749 4.29268 117.626 4.41801C117.814 4.60601 117.971 5.04468 118.096 5.73401C118.222 6.42335 118.316 7.14402 118.378 7.89601C118.378 8.20935 118.472 8.61668 118.66 9.11801C118.848 9.61935 118.786 10.3087 118.472 11.186C118.472 11.3113 118.472 11.5933 118.472 12.032C118.535 12.4707 118.723 13.3167 119.036 14.57C118.974 15.0713 119.068 15.5727 119.318 16.074C119.569 16.5127 119.726 16.8887 119.788 17.202C119.475 17.8913 119.318 18.3927 119.318 18.706C119.318 19.0193 119.318 19.2387 119.318 19.364C119.381 19.4893 119.412 19.5833 119.412 19.646C119.412 19.7087 119.318 19.834 119.13 20.022C119.444 20.6487 119.6 21.15 119.6 21.526C119.663 21.8393 119.663 22.1214 119.6 22.372C119.6 22.6227 119.6 22.9047 119.6 23.218C119.663 23.5313 119.851 23.97 120.164 24.534V25.004C120.164 25.4427 120.227 25.7873 120.352 26.038C119.976 26.602 119.726 27.1033 119.6 27.542C119.538 27.9807 119.506 28.3253 119.506 28.576C119.506 28.8267 119.506 29.046 119.506 29.234C119.569 29.3593 119.538 29.422 119.412 29.422C119.475 30.6753 119.6 31.5213 119.788 31.96C119.976 32.336 119.914 32.4927 119.6 32.43C119.663 32.9313 119.694 33.3387 119.694 33.652C119.694 33.9027 119.694 34.1847 119.694 34.498C119.694 34.7487 119.726 35.062 119.788 35.438C119.851 35.7514 119.976 36.19 120.164 36.754C120.227 36.6913 120.258 36.7853 120.258 37.036C120.258 37.224 120.227 37.4747 120.164 37.788C120.102 38.1013 120.039 38.446 119.976 38.822C119.914 39.1353 119.882 39.386 119.882 39.574C119.882 39.574 119.851 39.6993 119.788 39.95C119.788 40.2007 119.788 40.514 119.788 40.89C119.788 41.266 119.851 41.642 119.976 42.018C120.102 42.394 120.352 42.7074 120.728 42.958C120.102 42.8327 119.726 42.9893 119.6 43.428C119.475 43.8667 119.569 44.5247 119.882 45.402C120.133 45.4647 120.133 45.8093 119.882 46.436C119.694 47.0627 119.757 47.752 120.07 48.504C119.945 49.0054 119.851 49.4127 119.788 49.726C119.726 49.9767 119.851 50.2273 120.164 50.478C119.976 50.7287 119.851 51.0733 119.788 51.512C119.726 51.888 119.694 52.264 119.694 52.64C119.757 53.016 119.851 53.3294 119.976 53.58C120.102 53.8307 120.29 53.956 120.54 53.956C120.415 54.0814 120.258 54.3007 120.07 54.614C119.945 54.8647 119.82 55.178 119.694 55.554C119.632 55.8674 119.6 56.1807 119.6 56.494C119.6 56.7447 119.694 56.9014 119.882 56.964C120.258 57.9667 120.384 58.656 120.258 59.032C120.196 59.408 120.008 60.066 119.694 61.006C119.82 60.9434 119.882 61.006 119.882 61.194C119.882 61.3194 119.882 61.5387 119.882 61.852C119.882 62.1027 119.914 62.3847 119.976 62.698C120.039 63.0114 120.196 63.262 120.446 63.45C119.945 63.826 119.6 64.578 119.412 65.706C119.287 66.834 119.475 68.0247 119.976 69.278C119.35 69.7794 118.942 70.4687 118.754 71.346C118.629 72.2234 118.41 73.1634 118.096 74.166C118.284 75.2314 118.065 76.0774 117.438 76.704C116.874 77.3307 115.652 77.5187 113.772 77.268C113.459 77.8947 113.083 78.114 112.644 77.926C112.206 77.738 112.049 77.1114 112.174 76.046C111.485 75.67 110.952 75.2627 110.576 74.824C110.2 74.3854 110.263 74.2287 110.764 74.354C110.827 73.9154 110.796 73.508 110.67 73.132C110.608 72.8187 110.545 72.5054 110.482 72.192C110.42 71.9414 110.388 71.6907 110.388 71.44C110.451 71.252 110.67 71.064 111.046 70.876C110.733 70.5627 110.67 70.124 110.858 69.56C111.109 68.996 111.14 68.3694 110.952 67.68C110.827 66.8027 110.733 66.2387 110.67 65.988C110.67 65.6747 110.482 65.2674 110.106 64.766C110.169 64.4527 110.169 64.014 110.106 63.45C110.044 62.886 110.263 62.4474 110.764 62.134C110.764 60.9434 110.827 60.0974 110.952 59.596C111.14 59.0947 111.297 58.6874 111.422 58.374C111.046 57.6847 110.796 56.964 110.67 56.212C110.545 55.3974 110.545 54.8334 110.67 54.52C110.984 54.52 111.172 54.238 111.234 53.674C111.36 53.11 111.36 52.358 111.234 51.418C111.297 51.1674 111.297 50.8854 111.234 50.572C111.172 50.196 111.109 49.8827 111.046 49.632C110.984 49.3187 110.984 49.068 111.046 48.88C111.109 48.6294 111.297 48.504 111.61 48.504C111.485 48.0654 111.266 47.564 110.952 47C110.639 46.3734 110.639 45.9974 110.952 45.872C111.078 45.1827 111.109 44.6814 111.046 44.368C111.046 43.992 111.015 43.7413 110.952 43.616C110.89 43.428 110.796 43.2713 110.67 43.146C110.608 43.0207 110.545 42.864 110.482 42.676L106.91 41.266L103.432 42.488L102.116 42.77L102.022 41.36C101.458 41.6733 101.02 41.9553 100.706 42.206C100.393 42.4567 100.142 42.676 99.9544 42.864C99.7664 42.9894 99.5784 43.146 99.3904 43.334C99.2024 43.4593 98.9831 43.5847 98.7324 43.71C97.4164 44.462 96.3197 44.8067 95.4424 44.744C94.5651 44.6187 93.7817 44.556 93.0924 44.556L90.5544 44.368L85.2904 45.496L81.8124 45.12L80.6844 44.744L81.0604 45.496L82.3764 47.188L80.9664 50.384L82.0004 51.794L81.5304 54.99L81.0604 58.656L81.1544 61.758C81.1544 62.134 81.2171 62.416 81.3424 62.604C81.5304 62.7294 81.7184 62.8547 81.9064 62.98C82.0944 63.0427 82.2824 63.1054 82.4704 63.168C82.6584 63.2307 82.7524 63.2934 82.7524 63.356C82.9404 63.6067 83.1597 63.7634 83.4104 63.826C83.7237 63.826 83.9744 63.826 84.1624 63.826C84.4131 63.826 84.6324 63.8887 84.8204 64.014C85.0084 64.1394 85.1024 64.39 85.1024 64.766C86.2931 64.6407 87.2331 64.5467 87.9224 64.484C88.6744 64.3587 89.3637 64.1394 89.9904 63.826C90.3037 63.7007 90.5857 63.6694 90.8364 63.732C91.1497 63.732 91.4631 63.7947 91.7764 63.92C92.0897 63.9827 92.4344 64.0767 92.8104 64.202C93.2491 64.2647 93.7504 64.3274 94.3144 64.39C94.3771 63.826 94.6591 63.4814 95.1604 63.356C95.6617 63.168 96.3511 62.8547 97.2284 62.416L99.2024 62.886C99.9544 63.3247 100.55 63.5127 100.988 63.45C101.49 63.3874 102.116 63.5127 102.868 63.826C103.244 63.826 103.432 64.202 103.432 64.954C103.495 65.6434 103.244 66.5207 102.68 67.586C102.868 67.6487 102.962 67.9307 102.962 68.432C102.962 68.8707 102.712 69.1527 102.21 69.278C101.897 70.218 101.552 70.7507 101.176 70.876C100.863 71.064 100.456 71.44 99.9544 72.004C99.7037 71.7534 99.3904 71.5967 99.0144 71.534C98.7011 71.534 98.3877 71.534 98.0744 71.534C97.7611 71.5967 97.5104 71.5967 97.3224 71.534C97.1344 71.534 97.0404 71.4087 97.0404 71.158C96.7271 71.2207 96.3511 71.3147 95.9124 71.44C95.4737 71.5654 95.0664 71.6907 94.6904 71.816C94.3144 71.9414 93.9697 72.0354 93.6564 72.098C93.4057 72.1607 93.2491 72.1607 93.1864 72.098C92.8104 72.0354 92.2464 72.1294 91.4944 72.38C90.8051 72.6307 90.0217 72.9127 89.1444 73.226C88.5804 72.7247 88.1731 72.38 87.9224 72.192C87.6717 72.004 87.1077 72.0667 86.2304 72.38C85.3531 72.0667 84.6951 71.816 84.2564 71.628C83.8804 71.5027 83.7551 71.5654 83.8804 71.816C82.8151 71.9414 82.0631 72.0667 81.6244 72.192C81.1857 72.38 80.6217 72.4427 79.9324 72.38C79.7444 72.3174 79.4624 72.192 79.0864 72.004C78.7104 71.8787 78.3031 71.7534 77.8644 71.628C77.4884 71.5654 77.1124 71.534 76.7364 71.534C76.4231 71.5967 76.2037 71.7534 76.0784 72.004C75.7024 71.44 75.4517 71.158 75.3264 71.158C75.2637 71.158 75.1071 71.0014 74.8564 70.688C73.9791 70.124 73.4464 69.6854 73.2584 69.372C73.1331 68.996 72.7884 68.6514 72.2244 68.338C72.2244 67.4607 72.2557 66.7087 72.3184 66.082C72.4437 65.3927 72.3497 64.8914 72.0364 64.578L71.9424 64.108ZM148.207 23.03C147.58 22.466 147.173 21.9647 146.984 21.526C146.796 21.0873 146.703 20.7113 146.703 20.398C146.703 20.022 146.765 19.6773 146.891 19.364C147.016 19.0507 147.11 18.7374 147.173 18.424L145.763 14.476L146.703 10.81L145.669 6.95601L147.173 7.05001L146.232 6.76802L147.925 4.70002C147.799 4.32402 147.925 3.91668 148.301 3.47801C148.677 2.97668 148.802 2.38135 148.677 1.69201C149.115 1.50401 149.46 1.41001 149.711 1.41001C150.024 1.41001 150.243 1.41001 150.368 1.41001C150.557 1.41001 150.713 1.37868 150.839 1.31601C150.964 1.19068 151.089 0.940015 151.215 0.564012C151.528 0.752014 151.841 0.846014 152.155 0.846014C152.531 0.783348 152.844 0.720683 153.095 0.658017C153.408 0.595347 153.69 0.564012 153.94 0.564012C154.191 0.564012 154.379 0.689346 154.505 0.940013C155.57 0.814681 156.291 0.689348 156.666 0.564012C157.105 0.438681 157.481 0.438681 157.795 0.564012C158.233 0.376015 158.609 0.313349 158.923 0.376015C159.299 0.438681 159.643 0.532681 159.957 0.658017C160.27 0.783348 160.583 0.877347 160.897 0.940013C161.273 1.00268 161.649 0.971346 162.025 0.846014C162.651 0.658013 163.215 0.720679 163.717 1.03401C164.281 1.28468 164.625 1.25335 164.751 0.940013C164.751 0.877347 165.095 0.783348 165.785 0.658017C166.537 0.470015 167.163 0.564014 167.665 0.940013C167.665 0.752015 167.759 0.68935 167.947 0.752015C168.135 0.752015 168.323 0.814681 168.511 0.940013C168.761 1.06535 168.981 1.19068 169.169 1.31601C169.419 1.37868 169.639 1.37868 169.827 1.31601C171.331 1.12801 172.302 1.47268 172.741 2.35001C173.242 3.16468 173.43 4.04201 173.305 4.98202C173.305 5.98468 173.367 6.64268 173.493 6.95601C173.618 7.20668 173.493 7.39468 173.117 7.52001C172.678 8.39735 172.083 9.02401 171.331 9.40002C170.579 9.77602 170.015 9.80735 169.639 9.49401C168.699 9.43135 168.041 9.46268 167.665 9.58801C167.351 9.65068 166.944 9.74468 166.443 9.87002C166.067 9.61935 165.753 9.49401 165.503 9.49401C165.252 9.43135 164.939 9.43135 164.563 9.49401C164.249 9.49401 163.873 9.52535 163.434 9.58801C163.059 9.58801 162.557 9.52535 161.931 9.40002C160.865 9.02401 160.113 9.08668 159.675 9.58801C159.612 9.65068 159.424 9.68201 159.111 9.68201C158.86 9.61935 158.547 9.58801 158.171 9.58801C157.795 9.52535 157.419 9.49401 157.043 9.49401C156.667 9.43135 156.353 9.40002 156.103 9.40002L155.633 8.64801L156.008 10.058H156.197L155.727 14.1C155.664 14.852 155.633 15.4473 155.633 15.886C155.695 16.3247 155.789 16.6693 155.915 16.92C156.103 17.1707 156.353 17.3587 156.666 17.484C157.043 17.6093 157.575 17.7347 158.265 17.86C159.079 18.2987 159.737 18.33 160.239 17.954C160.803 17.578 161.492 17.296 162.307 17.108C162.495 17.1707 162.651 17.296 162.776 17.484C162.965 17.672 163.153 17.8287 163.341 17.954C163.529 18.0167 163.748 18.048 163.999 18.048C164.249 17.9853 164.531 17.7973 164.845 17.484C165.847 17.672 166.631 17.672 167.195 17.484C167.821 17.296 168.135 17.5467 168.135 18.236L169.827 17.296C170.203 17.484 170.485 17.6407 170.673 17.766C170.861 17.8913 171.049 17.9853 171.237 18.048C171.425 18.1107 171.613 18.142 171.801 18.142C172.051 18.0793 172.396 17.954 172.835 17.766C172.897 18.2673 172.991 18.706 173.117 19.082C173.242 19.3953 173.336 19.7087 173.399 20.022C173.461 20.2727 173.493 20.586 173.493 20.962C173.555 21.338 173.524 21.808 173.399 22.372C173.649 22.2467 173.743 22.2467 173.681 22.372C173.681 22.4973 173.587 22.7167 173.399 23.03C173.273 23.2807 173.117 23.594 172.929 23.97C172.803 24.346 172.772 24.7533 172.835 25.192C172.835 25.6307 172.49 25.944 171.801 26.132C171.174 26.2574 170.516 26.2574 169.827 26.132L167.289 26.414L162.776 26.32L160.239 25.756L158.359 26.226L154.881 26.696C153.815 26.5707 152.969 26.414 152.343 26.226C151.779 25.9753 150.901 25.38 149.711 24.44C149.711 24.5653 149.429 24.346 148.865 23.782C148.301 23.1553 147.799 22.6227 147.36 22.184L148.207 23.03ZM175.467 22.654C175.028 22.1527 174.558 21.62 174.057 21.056C173.555 20.492 173.273 20.2414 173.211 20.304L173.023 17.766C173.712 17.1393 174.088 16.5127 174.151 15.886C174.276 15.2594 174.37 14.3193 174.433 13.066C173.994 12.9407 173.712 12.6587 173.587 12.22C173.461 11.7813 173.681 10.998 174.245 9.87002C174.182 9.87002 174.119 9.77602 174.057 9.58801C173.994 9.40002 173.931 9.14935 173.869 8.83601C173.806 8.52268 173.743 8.24068 173.681 7.99001C173.681 7.67668 173.681 7.42601 173.681 7.23802L173.869 6.48601H173.681L173.587 6.01601C174.025 5.57735 174.339 5.17001 174.527 4.79401C174.715 4.41801 174.903 4.07335 175.091 3.76002C175.279 3.38401 175.498 3.07068 175.749 2.82002C176.062 2.56935 176.469 2.38135 176.971 2.25601C177.159 2.19335 177.284 2.09935 177.347 1.97402C177.472 1.84868 177.597 1.75468 177.723 1.69201C177.848 1.56668 178.067 1.50402 178.381 1.50402C178.694 1.44135 179.133 1.44135 179.697 1.50402C180.135 1.19068 180.574 0.940013 181.013 0.752015C181.451 0.564014 181.827 0.783347 182.141 1.41001C182.642 1.22202 183.3 0.940015 184.115 0.564012C184.992 0.188013 185.869 0.250681 186.747 0.752015C186.935 0.68935 187.123 0.68935 187.311 0.752015C187.561 0.814681 187.812 0.846014 188.063 0.846014C188.313 0.846014 188.501 0.814681 188.627 0.752015C188.752 0.62668 188.815 0.407346 188.815 0.0940127C190.131 0.783348 191.008 1.09668 191.447 1.03401C191.885 0.90868 192.105 0.62668 192.105 0.188012C193.107 0.438679 193.922 0.564012 194.549 0.564012C195.175 0.564012 195.99 0.470013 196.993 0.282016C197.306 0.219346 197.682 0.282012 198.121 0.470013C198.559 0.595349 199.061 1.00268 199.625 1.69201C200.815 1.81735 201.599 2.22468 201.975 2.91402C202.351 3.60335 202.601 4.16735 202.727 4.60602C202.852 4.98202 202.946 5.57735 203.009 6.39202C203.071 7.20668 202.695 7.70802 201.881 7.89601C201.63 8.08401 201.379 8.30335 201.129 8.55402C200.878 8.80468 200.596 9.02402 200.283 9.21201C199.969 9.33735 199.656 9.43135 199.343 9.49401C199.029 9.49401 198.716 9.33735 198.403 9.02402C198.027 9.21202 197.745 9.36868 197.557 9.49401C197.431 9.61935 197.275 9.68201 197.087 9.68201C196.961 9.68201 196.773 9.61935 196.523 9.49401C196.335 9.30601 196.021 9.05535 195.583 8.74201C195.52 9.05535 195.363 9.24335 195.113 9.30602C194.925 9.36868 194.705 9.40002 194.455 9.40002C194.204 9.40002 193.953 9.43135 193.703 9.49401C193.452 9.55668 193.264 9.74468 193.139 10.058C192.637 9.68201 192.23 9.43135 191.917 9.30602C191.666 9.11802 191.415 8.99268 191.165 8.93002C190.914 8.86735 190.663 8.83601 190.412 8.83601C190.225 8.77335 189.974 8.64801 189.661 8.46002C189.159 8.71068 188.783 8.89868 188.533 9.02402C188.282 9.14935 188.031 9.27468 187.78 9.40002C187.593 9.46268 187.373 9.52535 187.123 9.58801C186.872 9.58801 186.465 9.58801 185.901 9.58801C185.838 9.58801 185.713 9.55668 185.525 9.49401C185.337 9.43135 185.18 9.36868 185.055 9.30602C184.929 9.24335 184.835 9.24335 184.773 9.30602C184.71 9.30602 184.741 9.40002 184.867 9.58801H183.457L182.799 9.96401C182.987 9.90135 183.049 9.87002 182.987 9.87002C182.924 9.87002 182.83 9.90135 182.705 9.96401C182.642 9.96401 182.548 9.99535 182.423 10.058C182.36 10.1207 182.423 10.2147 182.611 10.34L183.363 14.382L183.457 15.604L183.175 17.014C183.363 17.014 183.551 17.1393 183.739 17.39C183.989 17.578 184.209 17.766 184.397 17.954C184.585 18.142 184.773 18.2673 184.961 18.33C185.211 18.3927 185.431 18.2673 185.618 17.954C185.744 18.0167 186.12 18.048 186.747 18.048C187.436 18.048 188.188 17.86 189.003 17.484C189.88 18.2987 190.507 18.6747 190.883 18.612C191.321 18.5493 191.509 18.2047 191.447 17.578C191.885 17.8914 192.261 18.1107 192.574 18.236C192.888 18.2987 193.17 18.33 193.421 18.33C193.734 18.2673 194.079 18.142 194.455 17.954C194.831 17.766 195.332 17.578 195.959 17.39C196.335 17.3273 196.711 17.4527 197.087 17.766C197.525 18.0167 197.901 18.3613 198.215 18.8C198.779 18.424 199.249 18.236 199.625 18.236C200.001 18.1733 200.314 18.2047 200.565 18.33C200.878 18.3927 201.129 18.4867 201.317 18.612C201.505 18.6747 201.693 18.706 201.881 18.706C201.818 19.5833 201.943 20.398 202.257 21.15C202.57 21.8393 202.507 22.5287 202.069 23.218C202.257 23.5313 202.288 23.876 202.163 24.252C202.037 24.5653 201.787 24.8787 201.411 25.192C201.097 25.5053 200.69 25.7873 200.189 26.038C199.687 26.226 199.155 26.32 198.591 26.32L196.147 27.354L193.139 26.32L189.473 27.354L184.867 27.166L181.671 26.602C180.668 26.7273 179.822 26.8213 179.133 26.884C178.443 26.884 178.255 26.6647 178.569 26.226C177.629 26.1007 176.939 25.8187 176.501 25.38C176.062 24.8787 175.498 24.0953 174.809 23.03L175.467 22.654ZM146.515 75.2C146.201 75.0747 146.139 74.636 146.326 73.884C146.577 73.1947 146.985 72.568 147.549 72.004C146.985 71.3774 146.671 70.6567 146.608 69.842C146.608 68.9647 146.452 68.2127 146.139 67.586C145.575 66.27 145.731 65.0167 146.608 63.826C146.483 63.5754 146.546 63.2307 146.797 62.792C147.11 62.2907 146.953 61.7894 146.326 61.288C146.577 60.8494 147.11 60.4734 147.925 60.16C148.802 59.8467 149.272 59.4394 149.335 58.938C149.648 58.75 150.118 58.656 150.745 58.656C151.434 58.5934 151.967 58.3114 152.343 57.81L153.283 59.22C153.471 59.032 153.69 58.8754 153.94 58.75C154.254 58.6247 154.536 58.562 154.787 58.562C155.037 58.4994 155.225 58.5307 155.351 58.656C155.476 58.7187 155.507 58.8754 155.445 59.126C156.322 59.0007 157.137 59.032 157.889 59.22C158.641 59.408 158.923 59.502 158.735 59.502C159.361 59.0007 160.082 58.75 160.897 58.75C161.774 58.6874 162.244 58.938 162.307 59.502C162.62 59.502 163.153 59.4707 163.905 59.408C164.719 59.3454 165.409 59.1574 165.973 58.844C166.161 59.3454 166.474 59.5647 166.913 59.502C167.351 59.4394 167.821 59.22 168.323 58.844C168.949 59.1574 169.419 59.3454 169.733 59.408C170.046 59.4707 170.328 59.502 170.579 59.502C170.892 59.502 171.205 59.5334 171.519 59.596C171.832 59.596 172.302 59.7214 172.929 59.972C172.866 59.4707 173.148 59.2827 173.775 59.408C174.464 59.5334 175.059 59.7527 175.561 60.066C175.874 59.314 176.344 59.0007 176.971 59.126C177.597 59.2514 178.161 59.3767 178.663 59.502C179.039 59.1887 179.477 59.0947 179.979 59.22C180.543 59.3454 181.138 59.2827 181.765 59.032C182.454 58.7187 182.893 58.656 183.081 58.844C183.269 58.9694 183.488 59.3454 183.739 59.972C184.303 59.4707 184.929 59.2827 185.618 59.408C186.371 59.5334 187.185 59.5334 188.063 59.408C188.125 59.408 188.219 59.3454 188.345 59.22C188.47 59.032 188.658 58.844 188.909 58.656C189.159 58.468 189.473 58.3114 189.849 58.186C190.287 58.0607 190.789 58.0294 191.353 58.092C191.854 58.4054 192.167 58.5307 192.293 58.468C192.481 58.4054 192.543 57.904 192.481 56.964L192.105 56.4L193.045 54.802C192.167 54.5513 191.76 54.4887 191.823 54.614C191.948 54.7394 192.105 54.6767 192.293 54.426L190.131 53.956C189.817 54.0814 189.567 54.238 189.379 54.426C189.191 54.614 189.003 54.7707 188.815 54.896C188.627 54.9587 188.376 54.99 188.063 54.99C187.749 54.9274 187.311 54.7394 186.747 54.426C186.371 54.99 185.869 55.178 185.243 54.99C184.616 54.802 184.052 54.7707 183.551 54.896C183.175 55.0213 182.767 55.084 182.329 55.084C181.953 55.084 181.577 55.084 181.201 55.084C180.887 55.0214 180.574 55.0214 180.261 55.084C180.01 55.084 179.822 55.2093 179.697 55.46C179.133 55.5227 178.6 55.5227 178.099 55.46C177.597 55.3347 176.877 55.3974 175.937 55.648C175.373 55.5227 174.997 55.4914 174.809 55.554C174.683 55.6167 174.495 55.554 174.245 55.366C173.179 55.4287 172.365 55.4914 171.801 55.554C171.237 55.6167 170.359 55.7107 169.169 55.836C168.918 55.3973 168.573 55.1154 168.135 54.99C167.759 54.802 167.132 54.7394 166.254 54.802C166.129 55.0527 165.691 55.2093 164.938 55.272C164.187 55.272 163.497 54.99 162.871 54.426C162.933 54.614 162.839 54.7394 162.589 54.802C162.338 54.802 162.025 54.7707 161.649 54.708C161.273 54.6454 160.928 54.5827 160.615 54.52C160.301 54.4573 160.145 54.426 160.145 54.426C159.455 54.8647 158.766 55.1467 158.077 55.272C157.45 55.3974 156.698 55.6167 155.821 55.93C155.507 55.6167 155.194 55.4287 154.881 55.366C154.567 55.2407 154.223 55.1467 153.846 55.084C153.533 55.0214 153.157 54.9587 152.719 54.896C152.343 54.8334 151.935 54.6454 151.497 54.332C151.434 54.0187 150.713 53.486 149.335 52.734C149.021 52.17 148.708 51.7627 148.394 51.512C148.144 51.1987 148.175 50.6033 148.489 49.726C147.924 49.2874 147.83 48.9114 148.207 48.598C148.645 48.2847 149.021 47.8773 149.335 47.376C149.397 47.2507 149.648 46.9373 150.087 46.436C150.525 45.872 151.058 45.6213 151.685 45.684C151.935 46.248 152.311 46.53 152.813 46.53C153.314 46.53 153.659 46.3734 153.846 46.06C154.473 45.872 154.975 45.8093 155.351 45.872C155.789 45.872 156.134 45.9034 156.385 45.966C156.635 46.0287 156.823 46.06 156.949 46.06C157.074 46.06 157.199 45.9347 157.325 45.684C158.014 45.8094 158.547 45.9034 158.923 45.966C159.361 46.0287 160.113 45.9974 161.179 45.872C161.429 46.248 161.68 46.4987 161.931 46.624C162.181 46.6867 162.432 46.7494 162.683 46.812C162.996 46.812 163.309 46.8433 163.623 46.906C163.999 46.9687 164.437 47.094 164.938 47.282C165.816 47.282 166.505 47.2193 167.007 47.094C167.508 46.9687 168.291 46.718 169.357 46.342C169.231 45.966 169.137 45.6527 169.074 45.402C169.012 45.1514 168.949 44.9007 168.887 44.65C168.887 44.3993 168.824 44.1173 168.699 43.804C168.573 43.428 168.417 42.958 168.229 42.394L169.263 39.198C168.26 39.1353 167.445 39.104 166.819 39.104C166.192 39.0413 165.879 39.1667 165.879 39.48C165.315 39.6053 164.625 39.6367 163.811 39.574C162.996 39.4487 162.589 39.4487 162.589 39.574C162.087 39.6367 161.649 39.6993 161.273 39.762C160.959 39.8247 160.646 39.8873 160.333 39.95C160.082 40.0127 159.8 40.044 159.487 40.044C159.173 40.044 158.797 39.9813 158.359 39.856C158.045 39.7934 157.638 39.762 157.137 39.762C156.635 39.762 156.165 39.6367 155.727 39.386C154.661 39.198 153.815 39.0727 153.188 39.01C152.625 38.8847 151.904 39.1667 151.026 39.856C151.089 39.48 151.058 39.2293 150.933 39.104C150.807 38.9787 150.588 38.8847 150.275 38.822C150.024 38.7593 149.679 38.728 149.241 38.728C148.802 38.6653 148.301 38.5713 147.737 38.446C147.799 38.7593 147.705 38.916 147.455 38.916C147.204 38.916 146.891 38.822 146.515 38.634C146.139 38.3833 145.762 38.1013 145.387 37.788C145.01 37.4747 144.76 37.1927 144.635 36.942C144.885 37.13 145.011 37.1927 145.011 37.13C145.011 37.0673 144.948 36.942 144.822 36.754C144.76 36.566 144.666 36.3467 144.54 36.096C144.478 35.8453 144.478 35.5947 144.54 35.344C144.854 34.5294 144.854 33.84 144.54 33.276C144.29 32.6493 144.321 32.336 144.635 32.336C145.073 31.6467 145.7 31.114 146.515 30.738C147.392 30.2993 148.238 30.1427 149.053 30.268C149.429 30.2053 149.679 30.2367 149.805 30.362C149.993 30.4247 150.149 30.5187 150.275 30.644C150.463 30.7693 150.619 30.8947 150.745 31.02C150.932 31.1453 151.215 31.1767 151.591 31.114C152.468 31.0513 153.22 30.9887 153.846 30.926C154.473 30.8633 155.131 30.9887 155.821 31.302C156.573 31.4273 157.043 31.5213 157.231 31.584C157.419 31.584 157.826 31.5213 158.453 31.396C159.142 30.8947 159.675 30.644 160.051 30.644C160.489 30.5813 161.022 30.4873 161.649 30.362C162.651 31.0513 163.403 31.396 163.905 31.396C164.469 31.3333 165.221 31.2393 166.161 31.114L168.887 31.866L173.117 31.396L176.501 30.644L178.757 31.866L182.705 30.738C183.457 30.6127 184.021 30.6127 184.397 30.738C184.835 30.8007 185.337 31.02 185.901 31.396C186.089 31.3333 186.371 31.2707 186.747 31.208C187.123 31.0827 187.53 31.02 187.969 31.02C188.407 30.9573 188.815 30.9887 189.191 31.114C189.629 31.2393 190.005 31.49 190.319 31.866C190.319 31.4273 190.632 31.0513 191.258 30.738C191.948 30.4247 192.669 30.3307 193.421 30.456C193.546 30.7693 193.985 30.8947 194.737 30.832C195.551 30.7693 196.397 30.4873 197.275 29.986C197.463 30.2993 197.651 30.456 197.839 30.456C198.089 30.456 198.309 30.4247 198.497 30.362C198.747 30.2993 198.967 30.268 199.155 30.268C199.343 30.2053 199.531 30.268 199.719 30.456C200.345 30.7693 200.847 30.9573 201.223 31.02C201.599 31.0827 201.975 31.0513 202.351 30.926C203.228 31.5527 203.698 32.148 203.761 32.712C203.886 33.276 203.886 33.9653 203.761 34.78C204.575 34.9053 204.826 35.3127 204.513 36.002C204.199 36.6287 203.541 37.036 202.539 37.224C202.852 37.412 202.695 37.6627 202.069 37.976C201.442 38.2267 200.909 38.4147 200.471 38.54C200.408 39.1667 200.032 39.4173 199.343 39.292C198.716 39.104 197.964 39.104 197.087 39.292C196.711 39.2293 196.429 39.198 196.241 39.198C196.053 39.1353 195.865 39.1353 195.677 39.198C195.489 39.2607 195.238 39.3547 194.925 39.48C194.611 39.5427 194.173 39.668 193.609 39.856C193.045 39.7934 192.669 39.8247 192.481 39.95C192.293 40.0127 191.948 40.0753 191.447 40.138C191.008 39.95 190.444 39.9187 189.755 40.044C189.065 40.1067 188.564 40.2007 188.25 40.326C187.937 40.0127 187.436 39.95 186.747 40.138C186.12 40.2633 185.337 40.3887 184.397 40.514C184.334 40.138 184.177 39.9187 183.927 39.856C183.676 39.7934 183.363 39.8247 182.987 39.95C182.673 40.0127 182.36 40.1067 182.047 40.232C181.796 40.2947 181.608 40.326 181.483 40.326C181.295 39.95 181.044 39.7307 180.731 39.668C180.48 39.6054 180.167 39.6054 179.791 39.668C179.477 39.668 179.164 39.6993 178.851 39.762C178.6 39.762 178.381 39.668 178.193 39.48L177.159 42.3L177.629 45.214L178.757 46.06L181.953 45.872L185.618 45.966C186.433 45.6527 187.154 45.5273 187.78 45.59C188.47 45.6527 189.347 45.8094 190.412 46.06C190.914 45.6214 191.478 45.4647 192.105 45.59C192.794 45.7153 193.295 45.7153 193.609 45.59C193.797 45.5273 194.329 45.6214 195.207 45.872C196.147 46.06 196.961 46.1853 197.651 46.248C198.152 46.3107 198.497 46.5614 198.685 47C198.935 47.376 199.468 47.5953 200.283 47.658C200.283 48.0967 200.283 48.4413 200.283 48.692C200.345 48.88 200.408 49.068 200.471 49.256C200.533 49.3813 200.596 49.538 200.659 49.726C200.721 49.914 200.784 50.2274 200.847 50.666C200.721 51.9194 200.69 53.016 200.753 53.956C200.815 54.896 200.659 55.5227 200.283 55.836C200.471 56.5254 200.659 57.1207 200.847 57.622C201.035 58.1234 201.16 58.656 201.223 59.22C201.285 59.7214 201.223 60.2854 201.035 60.912C200.909 61.476 200.627 62.1654 200.189 62.98C200.314 63.7947 200.126 64.39 199.625 64.766C199.123 65.0794 198.779 65.2987 198.591 65.424C198.215 65.5494 197.901 65.706 197.651 65.894C197.4 66.082 197.118 66.2387 196.805 66.364C196.554 66.4894 196.209 66.6147 195.771 66.74C195.395 66.8027 194.831 66.8027 194.079 66.74C194.016 66.552 193.891 66.458 193.703 66.458C193.515 66.458 193.264 66.4894 192.951 66.552C192.7 66.552 192.387 66.552 192.011 66.552C191.635 66.552 191.227 66.4267 190.789 66.176C190.789 66.4894 190.663 66.7087 190.412 66.834C190.162 66.9594 189.817 67.022 189.379 67.022C189.003 67.022 188.564 66.9907 188.063 66.928C187.561 66.8027 187.06 66.74 186.559 66.74C186.433 67.116 185.963 67.304 185.149 67.304C184.397 67.2414 183.739 67.5234 183.175 68.15C182.611 67.6487 181.953 67.4294 181.201 67.492C180.511 67.5547 179.916 67.8367 179.415 68.338C178.537 68.338 177.973 68.2754 177.723 68.15C177.535 67.962 177.033 67.5234 176.219 66.834C175.655 67.1474 175.185 67.3667 174.809 67.492C174.495 67.5547 174.276 67.3354 174.151 66.834C173.649 67.1474 173.211 67.3667 172.835 67.492C172.521 67.6174 172.208 67.68 171.894 67.68C171.644 67.68 171.362 67.6487 171.049 67.586C170.798 67.5234 170.453 67.4607 170.015 67.398C169.513 67.1474 169.012 67.0534 168.511 67.116C168.072 67.1787 167.508 67.21 166.819 67.21C165.753 67.586 164.97 67.68 164.469 67.492C164.03 67.304 163.967 67.21 164.28 67.21C163.967 67.3354 163.56 67.4294 163.059 67.492C162.62 67.492 162.15 67.4607 161.649 67.398C161.21 67.2727 160.803 67.1474 160.427 67.022C160.051 66.834 159.769 66.6147 159.581 66.364C159.142 66.6147 158.797 66.646 158.547 66.458C158.359 66.27 158.108 66.2387 157.795 66.364C157.168 66.9907 156.792 67.398 156.666 67.586C156.541 67.774 156.416 67.9934 156.291 68.244H156.479L155.256 70.594C155.194 70.6567 155.257 70.7194 155.445 70.782C155.633 70.9074 155.883 70.97 156.197 70.97C156.51 71.0327 156.823 71.064 157.137 71.064C157.513 71.064 157.826 71.0014 158.077 70.876C158.327 71.3774 158.672 71.5967 159.111 71.534C159.549 71.534 159.988 71.5967 160.427 71.722C160.677 71.9727 160.897 72.098 161.085 72.098C161.335 72.1607 161.555 72.1607 161.743 72.098C161.993 72.0354 162.244 71.9727 162.495 71.91C162.745 71.8474 163.027 71.816 163.341 71.816C163.905 72.3174 164.469 72.5054 165.033 72.38C165.659 72.2547 166.443 72.3487 167.383 72.662C167.383 72.7247 167.571 72.7247 167.947 72.662C168.323 72.662 169.137 72.474 170.391 72.098C170.579 72.3487 170.829 72.5367 171.143 72.662C171.456 72.85 172.083 73.0067 173.023 73.132L176.031 71.722C176.407 71.9727 176.689 72.098 176.877 72.098C177.127 72.098 177.315 72.0667 177.441 72.004C177.629 71.9414 177.785 71.8787 177.911 71.816C178.036 71.816 178.193 71.91 178.381 72.098C179.133 72.2234 179.947 72.38 180.825 72.568C181.765 72.8187 182.642 72.85 183.457 72.662C183.519 71.9727 183.864 71.6594 184.491 71.722C185.18 71.7847 185.65 71.91 185.901 72.098C186.527 72.2234 187.06 72.2234 187.499 72.098C187.937 72.0354 188.313 71.9414 188.627 71.816C188.94 71.7534 189.222 71.722 189.473 71.722C189.723 71.722 190.005 71.8787 190.319 72.192L195.395 70.688L196.335 71.346L197.745 71.252C198.058 71.064 198.465 70.9074 198.967 70.782C199.531 70.6567 200.439 70.9387 201.693 71.628C201.818 72.568 201.943 73.2887 202.069 73.79C202.194 74.354 202.445 74.73 202.821 74.918C202.507 76.422 201.975 77.5187 201.223 78.208C200.533 78.96 199.75 79.0854 198.873 78.584C198.622 79.336 198.183 79.6494 197.557 79.524C196.93 79.3987 196.241 79.3047 195.489 79.242C194.987 79.1794 194.486 79.336 193.985 79.712C193.546 80.088 192.951 80.2447 192.199 80.182C192.136 80.1194 191.917 79.994 191.541 79.806C191.165 79.6807 190.82 79.6807 190.507 79.806C190.068 80.1194 189.473 80.2134 188.721 80.088C187.969 80.0254 187.311 79.994 186.747 79.994C185.807 79.8687 185.211 79.8374 184.961 79.9C184.71 79.9627 184.397 80.0254 184.021 80.088C183.707 80.5894 183.081 80.7774 182.141 80.652C181.201 80.5894 180.48 80.7147 179.979 81.028C179.665 80.7774 179.352 80.652 179.039 80.652C178.788 80.652 178.569 80.6834 178.381 80.746C178.193 80.8087 178.067 80.8714 178.005 80.934C177.942 81.0594 178.005 81.0594 178.193 80.934C177.002 80.8087 176.093 80.7147 175.467 80.652C174.84 80.5894 174.213 80.4327 173.587 80.182C173.461 80.4954 173.336 80.6834 173.211 80.746C173.085 80.8714 172.929 80.9027 172.741 80.84C172.615 80.84 172.396 80.746 172.083 80.558C171.832 80.4327 171.487 80.3074 171.049 80.182C170.171 80.3074 169.482 80.37 168.981 80.37C168.542 80.4327 167.884 80.464 167.007 80.464C166.756 80.1507 166.474 80.1194 166.161 80.37C165.91 80.6207 165.44 80.4954 164.751 79.994C164.061 79.9314 163.403 79.9314 162.776 79.994C162.15 80.0567 161.68 80.3387 161.367 80.84C161.053 80.84 160.646 80.7774 160.145 80.652C159.706 80.5894 159.236 80.5267 158.735 80.464C158.296 80.4014 157.857 80.4014 157.419 80.464C156.98 80.5267 156.604 80.746 156.291 81.122C156.165 81.122 155.915 80.9967 155.539 80.746C155.163 80.558 154.787 80.37 154.411 80.182C154.223 80.3074 153.972 80.3074 153.659 80.182C153.345 80.0567 153 79.9314 152.625 79.806C152.311 79.6807 151.967 79.618 151.591 79.618C151.277 79.618 150.995 79.7747 150.745 80.088C150.369 79.8374 150.087 79.618 149.899 79.43C149.773 79.3047 149.617 79.148 149.428 78.96C149.303 78.772 149.115 78.5214 148.865 78.208C148.614 77.9574 148.207 77.55 147.642 76.986C147.768 77.0487 147.768 76.8294 147.642 76.328C147.517 75.8267 147.298 75.388 146.984 75.012L146.515 75.2ZM269.593 73.978L268.653 71.91C268.841 71.4714 268.966 71.1267 269.029 70.876C269.091 70.6254 269.185 70.1554 269.311 69.466C269.812 68.526 270 67.8367 269.875 67.398C269.749 66.9594 269.436 66.3954 268.935 65.706C269.248 65.2674 269.405 64.8287 269.405 64.39C269.405 63.8887 269.373 63.4814 269.311 63.168C269.248 62.8547 269.185 62.6354 269.123 62.51C269.123 62.322 269.248 62.2907 269.499 62.416C269.248 61.852 269.248 61.1314 269.499 60.254C269.749 59.3767 269.655 58.4994 269.217 57.622C269.467 57.622 269.593 57.5594 269.593 57.434C269.593 57.246 269.561 57.0267 269.499 56.776C269.499 56.5254 269.53 56.2434 269.593 55.93C269.655 55.6167 269.906 55.366 270.345 55.178C269.969 54.99 269.749 54.802 269.687 54.614C269.624 54.3634 269.624 54.1127 269.687 53.862C269.749 53.5487 269.812 53.204 269.875 52.828C270 52.3894 270.031 51.9194 269.969 51.418C269.843 51.042 269.655 50.6347 269.405 50.196C269.154 49.6947 269.248 49.2873 269.687 48.974C269.937 47.9087 270 47.1253 269.875 46.624C269.749 46.1227 269.624 45.4334 269.499 44.556C269.749 44.6813 269.875 44.65 269.875 44.462C269.937 44.274 269.937 44.0234 269.875 43.71C269.812 43.3967 269.749 43.0834 269.687 42.77C269.624 42.4567 269.593 42.206 269.593 42.018C269.279 41.5793 269.154 40.9213 269.217 40.044C269.279 39.1667 269.467 38.3833 269.781 37.694C269.718 37.694 269.561 37.3807 269.311 36.754C269.123 36.1273 269.279 35.4067 269.781 34.592C269.655 34.5293 269.593 34.404 269.593 34.216C269.655 34.028 269.718 33.8087 269.781 33.558C269.843 33.3073 269.875 33.0567 269.875 32.806C269.875 32.4927 269.781 32.148 269.593 31.772C269.781 31.7093 269.875 31.5213 269.875 31.208C269.875 30.8947 269.812 30.55 269.687 30.174C269.624 29.7353 269.53 29.328 269.405 28.952C269.342 28.5133 269.279 28.1687 269.217 27.918C269.405 27.4793 269.593 27.1033 269.781 26.79C270.031 26.414 270.188 25.756 270.251 24.816C269.561 24.3147 269.154 23.8133 269.029 23.312C268.903 22.8107 268.778 21.9647 268.653 20.774C269.279 20.8367 269.53 20.7113 269.405 20.398C269.342 20.0847 269.248 19.3327 269.123 18.142C269.624 17.7033 269.843 17.2647 269.781 16.826C269.718 16.3873 269.561 15.8233 269.311 15.134C269.561 14.4447 269.53 13.8807 269.217 13.442C268.966 12.9407 268.903 12.502 269.029 12.126C269.154 11.6873 269.185 11.374 269.123 11.186C269.06 10.9353 268.935 10.716 268.747 10.528C268.621 10.2773 268.433 10.0267 268.183 9.77602C267.995 9.46268 267.838 9.02402 267.713 8.46002L268.841 8.36601L267.619 7.89601C267.681 7.39468 267.744 6.70535 267.807 5.82801C267.932 4.88801 268.214 4.04201 268.653 3.29002C269.279 3.47801 269.969 3.44668 270.721 3.19601C271.535 2.94535 272.099 2.60068 272.413 2.16201C273.478 2.03668 274.324 2.22468 274.951 2.72601C275.577 3.16468 275.765 3.32135 275.515 3.19601C276.455 3.69735 276.956 4.16735 277.019 4.60602C277.144 5.04468 277.175 5.51468 277.113 6.01601C277.614 7.08135 277.833 7.95868 277.771 8.64801C277.708 9.33735 277.865 10.0893 278.241 10.904C278.491 11.2173 278.491 11.5933 278.241 12.032C278.053 12.408 278.178 12.9407 278.617 13.63L277.959 16.638L278.617 20.774C278.491 20.8993 278.491 21.3067 278.617 21.996C278.805 22.6227 278.836 23.0613 278.711 23.312C278.585 23.5 278.523 24.064 278.523 25.004C278.523 25.944 278.585 26.602 278.711 26.978C278.899 27.1033 278.961 27.2913 278.899 27.542C278.899 27.7927 278.836 28.0747 278.711 28.388C278.648 28.6387 278.554 28.8893 278.429 29.14C278.303 29.3907 278.272 29.5473 278.335 29.61C278.397 30.2993 278.397 30.8947 278.335 31.396C278.335 31.8973 278.491 32.0853 278.805 31.96C278.993 32.8374 279.087 33.6833 279.087 34.498C279.149 35.3127 278.993 35.8767 278.617 36.19C279.369 37.506 279.431 38.3207 278.805 38.634C279.055 39.3233 279.212 39.7933 279.275 40.044C279.337 40.2947 279.525 40.608 279.839 40.984C279.525 41.548 279.306 42.0493 279.181 42.488C279.055 42.864 278.961 43.24 278.899 43.616C278.899 43.9293 278.899 44.2427 278.899 44.556C278.899 44.8694 278.899 45.214 278.899 45.59C278.648 45.778 278.617 46.0914 278.805 46.53C279.055 46.9687 278.899 47.5327 278.335 48.222C278.648 48.41 278.899 48.786 279.087 49.35C279.337 49.8513 279.4 50.5407 279.275 51.418C279.212 51.4807 279.181 51.7627 279.181 52.264C279.243 52.7653 279.337 53.298 279.463 53.862C279.525 54.3634 279.431 54.9274 279.181 55.554C278.993 56.118 278.93 56.494 278.993 56.682C279.118 57.5594 279.181 58.2487 279.181 58.75C279.243 59.2514 279.275 59.6587 279.275 59.972C279.4 59.972 279.4 60.2854 279.275 60.912C279.212 61.476 279.087 61.9774 278.899 62.416C279.087 62.7294 279.149 63.074 279.087 63.45C279.024 63.826 278.93 64.2647 278.805 64.766C278.742 65.2674 278.679 65.8314 278.617 66.458C278.617 67.0847 278.711 67.7427 278.899 68.432C278.648 69.3094 278.585 70.2494 278.711 71.252C278.836 72.3174 278.836 73.0067 278.711 73.32C277.959 74.26 277.457 74.9494 277.207 75.388C277.019 75.8267 276.862 76.1087 276.737 76.234C276.235 76.234 275.734 76.4534 275.233 76.892C274.731 77.3934 274.23 77.7067 273.729 77.832C273.415 77.5187 272.977 77.2054 272.413 76.892C271.849 76.6414 271.41 76.61 271.097 76.798C269.279 76.1087 268.527 74.8867 268.841 73.132L269.593 73.978ZM216.107 64.108L215.543 62.04L217.047 57.246L216.013 54.52L215.731 51.606L216.953 48.222L215.543 44.274C215.856 44.3367 216.013 44.368 216.013 44.368C216.075 44.3053 216.075 44.2113 216.013 44.086C215.95 43.9607 215.887 43.804 215.825 43.616C215.825 43.428 215.981 43.24 216.295 43.052C216.044 42.488 215.887 42.0494 215.825 41.736C215.825 41.4227 215.825 41.172 215.825 40.984C215.887 40.7333 215.919 40.4827 215.919 40.232C215.981 39.9813 215.981 39.668 215.919 39.292C216.295 39.2293 216.545 39.0727 216.671 38.822C216.796 38.5713 216.89 38.2893 216.953 37.976C217.015 37.6 217.078 37.2867 217.141 37.036C217.203 36.7227 217.297 36.5347 217.423 36.472C217.987 36.2213 218.707 35.9707 219.585 35.72C220.525 35.4067 221.245 35.344 221.747 35.532L224.849 36.848L229.267 35.814L231.805 36.472L236.223 36.848C236.16 36.7853 236.129 36.66 236.129 36.472C236.191 36.2213 236.63 35.8453 237.445 35.344C237.194 35.6573 237.037 35.814 236.975 35.814C236.975 35.814 236.975 35.7513 236.975 35.626C236.975 35.438 236.975 35.25 236.975 35.062C237.037 34.8113 237.006 34.592 236.881 34.404V32.618L236.975 27.542V24.158L236.787 21.338L236.881 17.014C237.006 16.5753 236.975 16.2933 236.787 16.168C236.599 15.98 236.473 16.0427 236.411 16.356L231.617 16.168L228.515 16.544L225.977 15.886L221.277 16.544C220.901 16.2933 220.493 16.1367 220.055 16.074C219.679 15.9487 219.271 15.6667 218.833 15.228C218.018 14.3507 217.517 13.6927 217.329 13.254C217.203 12.8153 217.203 12.6273 217.329 12.69C216.953 12.2513 216.827 11.562 216.953 10.622C217.078 9.68201 217.36 9.18068 217.799 9.11801C218.739 8.36601 219.428 7.80201 219.867 7.42601C220.305 7.05001 220.619 7.05001 220.807 7.42601L224.943 7.14402L228.139 7.05001L230.583 6.76802L235.189 6.67401L237.633 7.89601C238.322 7.52001 239.011 7.23801 239.701 7.05001C240.39 6.86202 241.33 6.83068 242.521 6.95601C242.834 7.39468 243.022 7.80202 243.085 8.17802C243.147 8.49135 243.461 8.74202 244.025 8.93002C244.463 9.80735 244.871 10.622 245.247 11.374C245.685 12.0633 245.748 12.8153 245.435 13.63C245.936 13.5673 246.281 14.006 246.469 14.946C246.657 15.886 246.688 16.826 246.563 17.766C246.312 17.954 246.124 18.236 245.999 18.612C245.873 18.9253 245.811 19.27 245.811 19.646C245.873 20.022 245.967 20.3667 246.093 20.68C246.281 20.9307 246.563 21.056 246.939 21.056C246.5 22.3093 246.187 23.3433 245.999 24.158C245.811 24.9727 245.999 25.4427 246.563 25.568L246.375 29.798L246.469 32.9L246.375 32.994L249.383 32.712L255.211 33.37C255.336 32.8687 255.273 32.3047 255.023 31.678C254.772 31.0513 254.459 30.2993 254.083 29.422C254.835 29.234 255.211 29.0774 255.211 28.952C255.211 28.764 255.179 28.4193 255.117 27.918C255.179 27.354 255.054 26.7587 254.741 26.132C254.427 25.4427 254.114 24.6907 253.801 23.876C253.989 23.5 254.02 23.124 253.895 22.748C253.832 22.3093 253.801 21.526 253.801 20.398C254.051 20.21 254.177 19.9907 254.177 19.74C254.239 19.4894 254.239 19.2387 254.177 18.988C254.114 18.6747 254.083 18.3613 254.083 18.048C254.145 17.672 254.302 17.296 254.553 16.92C254.427 16.6693 254.302 16.356 254.177 15.98C254.051 15.604 253.957 15.228 253.895 14.852C253.895 14.476 253.926 14.1627 253.989 13.912C254.051 13.5987 254.208 13.4107 254.459 13.348C254.709 12.7213 254.772 11.9694 254.647 11.092C254.584 10.152 254.208 9.61935 253.519 9.49401L254.741 8.17802L253.895 7.52001C254.145 6.89335 254.333 6.48601 254.459 6.29802C254.584 6.04735 254.459 5.48335 254.083 4.60602C254.709 4.35535 255.179 4.01068 255.493 3.57201C255.806 3.07068 256.401 2.75735 257.279 2.63201C258.156 3.07068 258.908 3.44668 259.535 3.76002C260.161 4.07335 260.913 4.29268 261.791 4.41801C261.979 4.60601 262.135 5.04468 262.261 5.73401C262.386 6.42335 262.48 7.14402 262.543 7.89601C262.543 8.20935 262.637 8.61668 262.825 9.11801C263.013 9.61935 262.95 10.3087 262.637 11.186C262.637 11.3113 262.637 11.5933 262.637 12.032C262.699 12.4707 262.887 13.3167 263.201 14.57C263.138 15.0713 263.232 15.5727 263.483 16.074C263.733 16.5127 263.89 16.8887 263.953 17.202C263.639 17.8913 263.483 18.3927 263.483 18.706C263.483 19.0193 263.483 19.2387 263.483 19.364C263.545 19.4893 263.577 19.5833 263.577 19.646C263.577 19.7087 263.483 19.834 263.295 20.022C263.608 20.6487 263.765 21.15 263.765 21.526C263.827 21.8393 263.827 22.1214 263.765 22.372C263.765 22.6227 263.765 22.9047 263.765 23.218C263.827 23.5313 264.015 23.97 264.329 24.534V25.004C264.329 25.4427 264.391 25.7873 264.517 26.038C264.141 26.602 263.89 27.1033 263.765 27.542C263.702 27.9807 263.671 28.3253 263.671 28.576C263.671 28.8267 263.671 29.046 263.671 29.234C263.733 29.3593 263.702 29.422 263.577 29.422C263.639 30.6753 263.765 31.5213 263.953 31.96C264.141 32.336 264.078 32.4927 263.765 32.43C263.827 32.9313 263.859 33.3387 263.859 33.652C263.859 33.9027 263.859 34.1847 263.859 34.498C263.859 34.7487 263.89 35.062 263.953 35.438C264.015 35.7514 264.141 36.19 264.329 36.754C264.391 36.6913 264.423 36.7853 264.423 37.036C264.423 37.224 264.391 37.4747 264.329 37.788C264.266 38.1013 264.203 38.446 264.141 38.822C264.078 39.1353 264.047 39.386 264.047 39.574C264.047 39.574 264.015 39.6993 263.953 39.95C263.953 40.2007 263.953 40.514 263.953 40.89C263.953 41.266 264.015 41.642 264.141 42.018C264.266 42.394 264.517 42.7074 264.893 42.958C264.266 42.8327 263.89 42.9893 263.765 43.428C263.639 43.8667 263.733 44.5247 264.047 45.402C264.297 45.4647 264.297 45.8093 264.047 46.436C263.859 47.0627 263.921 47.752 264.235 48.504C264.109 49.0054 264.015 49.4127 263.953 49.726C263.89 49.9767 264.015 50.2273 264.329 50.478C264.141 50.7287 264.015 51.0733 263.953 51.512C263.89 51.888 263.859 52.264 263.859 52.64C263.921 53.016 264.015 53.3294 264.141 53.58C264.266 53.8307 264.454 53.956 264.705 53.956C264.579 54.0814 264.423 54.3007 264.235 54.614C264.109 54.8647 263.984 55.178 263.859 55.554C263.796 55.8674 263.765 56.1807 263.765 56.494C263.765 56.7447 263.859 56.9014 264.047 56.964C264.423 57.9667 264.548 58.656 264.423 59.032C264.36 59.408 264.172 60.066 263.859 61.006C263.984 60.9434 264.047 61.006 264.047 61.194C264.047 61.3194 264.047 61.5387 264.047 61.852C264.047 62.1027 264.078 62.3847 264.141 62.698C264.203 63.0114 264.36 63.262 264.611 63.45C264.109 63.826 263.765 64.578 263.577 65.706C263.451 66.834 263.639 68.0247 264.141 69.278C263.514 69.7794 263.107 70.4687 262.919 71.346C262.793 72.2234 262.574 73.1634 262.261 74.166C262.449 75.2314 262.229 76.0774 261.603 76.704C261.039 77.3307 259.817 77.5187 257.937 77.268C257.623 77.8947 257.247 78.114 256.809 77.926C256.37 77.738 256.213 77.1114 256.339 76.046C255.649 75.67 255.117 75.2627 254.741 74.824C254.365 74.3854 254.427 74.2287 254.929 74.354C254.991 73.9154 254.96 73.508 254.835 73.132C254.772 72.8187 254.709 72.5054 254.647 72.192C254.584 71.9414 254.553 71.6907 254.553 71.44C254.615 71.252 254.835 71.064 255.211 70.876C254.897 70.5627 254.835 70.124 255.023 69.56C255.273 68.996 255.305 68.3694 255.117 67.68C254.991 66.8027 254.897 66.2387 254.835 65.988C254.835 65.6747 254.647 65.2674 254.271 64.766C254.333 64.4527 254.333 64.014 254.271 63.45C254.208 62.886 254.427 62.4474 254.929 62.134C254.929 60.9434 254.991 60.0974 255.117 59.596C255.305 59.0947 255.461 58.6874 255.587 58.374C255.211 57.6847 254.96 56.964 254.835 56.212C254.709 55.3974 254.709 54.8334 254.835 54.52C255.148 54.52 255.336 54.238 255.399 53.674C255.524 53.11 255.524 52.358 255.399 51.418C255.461 51.1674 255.461 50.8854 255.399 50.572C255.336 50.196 255.273 49.8827 255.211 49.632C255.148 49.3187 255.148 49.068 255.211 48.88C255.273 48.6294 255.461 48.504 255.775 48.504C255.649 48.0654 255.43 47.564 255.117 47C254.803 46.3734 254.803 45.9974 255.117 45.872C255.242 45.1827 255.273 44.6814 255.211 44.368C255.211 43.992 255.179 43.7413 255.117 43.616C255.054 43.428 254.96 43.2713 254.835 43.146C254.772 43.0207 254.709 42.864 254.647 42.676L251.075 41.266L247.597 42.488L246.281 42.77L246.187 41.36C245.623 41.6733 245.184 41.9553 244.871 42.206C244.557 42.4567 244.307 42.676 244.119 42.864C243.931 42.9894 243.743 43.146 243.555 43.334C243.367 43.4593 243.147 43.5847 242.897 43.71C241.581 44.462 240.484 44.8067 239.607 44.744C238.729 44.6187 237.946 44.556 237.257 44.556L234.719 44.368L229.455 45.496L225.977 45.12L224.849 44.744L225.225 45.496L226.541 47.188L225.131 50.384L226.165 51.794L225.695 54.99L225.225 58.656L225.319 61.758C225.319 62.134 225.381 62.416 225.507 62.604C225.695 62.7294 225.883 62.8547 226.071 62.98C226.259 63.0427 226.447 63.1054 226.635 63.168C226.823 63.2307 226.917 63.2934 226.917 63.356C227.105 63.6067 227.324 63.7634 227.575 63.826C227.888 63.826 228.139 63.826 228.327 63.826C228.577 63.826 228.797 63.8887 228.985 64.014C229.173 64.1394 229.267 64.39 229.267 64.766C230.457 64.6407 231.397 64.5467 232.087 64.484C232.839 64.3587 233.528 64.1394 234.155 63.826C234.468 63.7007 234.75 63.6694 235.001 63.732C235.314 63.732 235.627 63.7947 235.941 63.92C236.254 63.9827 236.599 64.0767 236.975 64.202C237.413 64.2647 237.915 64.3274 238.479 64.39C238.541 63.826 238.823 63.4814 239.325 63.356C239.826 63.168 240.515 62.8547 241.393 62.416L243.367 62.886C244.119 63.3247 244.714 63.5127 245.153 63.45C245.654 63.3874 246.281 63.5127 247.033 63.826C247.409 63.826 247.597 64.202 247.597 64.954C247.659 65.6434 247.409 66.5207 246.845 67.586C247.033 67.6487 247.127 67.9307 247.127 68.432C247.127 68.8707 246.876 69.1527 246.375 69.278C246.061 70.218 245.717 70.7507 245.341 70.876C245.027 71.064 244.62 71.44 244.119 72.004C243.868 71.7534 243.555 71.5967 243.179 71.534C242.865 71.534 242.552 71.534 242.239 71.534C241.925 71.5967 241.675 71.5967 241.487 71.534C241.299 71.534 241.205 71.4087 241.205 71.158C240.891 71.2207 240.515 71.3147 240.077 71.44C239.638 71.5654 239.231 71.6907 238.855 71.816C238.479 71.9414 238.134 72.0354 237.821 72.098C237.57 72.1607 237.413 72.1607 237.351 72.098C236.975 72.0354 236.411 72.1294 235.659 72.38C234.969 72.6307 234.186 72.9127 233.309 73.226C232.745 72.7247 232.337 72.38 232.087 72.192C231.836 72.004 231.272 72.0667 230.395 72.38C229.517 72.0667 228.859 71.816 228.421 71.628C228.045 71.5027 227.919 71.5654 228.045 71.816C226.979 71.9414 226.227 72.0667 225.789 72.192C225.35 72.38 224.786 72.4427 224.097 72.38C223.909 72.3174 223.627 72.192 223.251 72.004C222.875 71.8787 222.467 71.7534 222.029 71.628C221.653 71.5654 221.277 71.534 220.901 71.534C220.587 71.5967 220.368 71.7534 220.243 72.004C219.867 71.44 219.616 71.158 219.491 71.158C219.428 71.158 219.271 71.0014 219.021 70.688C218.143 70.124 217.611 69.6854 217.423 69.372C217.297 68.996 216.953 68.6514 216.389 68.338C216.389 67.4607 216.42 66.7087 216.483 66.082C216.608 65.3927 216.514 64.8914 216.201 64.578L216.107 64.108Z" fill="white"/>
</svg>
