<svg width="205" height="94" viewBox="0 0 205 94" fill="none" xmlns="http://www.w3.org/2000/svg">
<path d="M0.886719 0.912598H203.887V92.9126H0.886719V0.912598Z" fill="white"/>
<path d="M3.68672 1.08269L3.71704 0.583611L3.68672 1.08269ZM5.08672 1.16774L5.0564 1.66682L5.08672 1.16774ZM24.6867 1.30018L24.6989 1.80003L24.6867 1.30018ZM27.4867 1.23203L27.4746 0.732175L27.4867 1.23203ZM35.8867 0.929465L35.8693 0.42977L35.8867 0.929465ZM38.6867 0.831626L38.7042 1.33132L38.6867 0.831626ZM47.0867 1.09591L47.0716 1.59568L47.0867 1.09591ZM48.4867 1.13829L48.5018 0.638523L48.4867 1.13829ZM49.8867 1.18068L49.9018 0.680908L49.8867 1.18068ZM58.2867 1.08084L58.2203 0.585276L58.2867 1.08084ZM65.2867 0.83194L65.231 1.32882L65.2867 0.83194ZM72.2867 0.788551L72.2443 0.290352L72.2867 0.788551ZM80.6867 0.591985L80.6743 1.09183L80.6867 0.591985ZM87.6867 0.778023L87.6721 1.27781L87.6867 0.778023ZM89.0867 0.819049L89.0721 1.31883L89.0867 0.819049ZM100.287 1.15003L100.244 1.6482L100.287 1.15003ZM103.087 1.06592L103.015 0.571153L103.087 1.06592ZM105.887 0.657513L105.959 1.15228L105.887 0.657513ZM108.687 0.513833L108.665 1.01337L108.687 0.513833ZM114.287 0.801686L114.249 1.30025L114.287 0.801686ZM131.087 0.665029L131.071 1.16478L131.087 0.665029ZM139.487 0.996264L139.463 1.49571L139.487 0.996264ZM150.687 1.25315L150.677 1.75305L150.687 1.25315ZM164.687 0.788928L164.659 1.28814L164.687 0.788928ZM178.687 0.877893L178.665 1.37744L178.687 0.877893ZM181.487 0.822926L181.528 1.32126L181.487 0.822926ZM184.287 0.593487L184.246 0.0951571L184.287 0.593487ZM192.687 1.07208L192.752 1.56782L192.687 1.07208ZM195.487 0.703987L195.422 0.208252L195.487 0.703987ZM202.75 2.27369L202.268 2.40778L202.75 2.27369ZM203.277 4.16629L203.759 4.03221L203.277 4.16629ZM203.648 6.51259L204.147 6.47417L203.648 6.51259ZM203.864 9.31259L203.366 9.35102L203.864 9.31259ZM204.024 12.1126L204.523 12.0941L204.024 12.1126ZM204.127 14.9126L203.627 14.931L204.127 14.9126ZM203.559 23.3126L203.06 23.3438L203.559 23.3126ZM203.734 26.1126L204.233 26.0814L203.734 26.1126ZM203.735 28.9126L204.234 28.9433L203.735 28.9126ZM203.563 31.7126L203.064 31.6819L203.563 31.7126ZM203.468 34.5126L203.968 34.5156L203.468 34.5126ZM203.452 37.3126L202.952 37.3096L203.452 37.3126ZM203.596 40.1126L204.093 40.0584L203.596 40.1126ZM203.901 42.9126L203.404 42.9668L203.901 42.9126ZM203.973 45.7126L204.472 45.7413L203.973 45.7126ZM203.812 48.5126L203.313 48.4839L203.812 48.5126ZM203.696 54.1126L204.196 54.1169L203.696 54.1126ZM203.684 56.9126L203.184 56.9127L203.684 56.9126ZM203.684 58.3126L204.184 58.3125L203.684 58.3126ZM203.685 59.7126L203.185 59.7127L203.685 59.7126ZM203.749 62.5126L204.249 62.4896L203.749 62.5126ZM203.878 65.3126L203.378 65.3356L203.878 65.3126ZM204.032 68.1126L204.531 68.0806L204.032 68.1126ZM204.211 70.9126L203.712 70.9445L204.211 70.9126ZM204.159 73.7126L204.657 73.763L204.159 73.7126ZM204.017 75.1126L204.515 75.163L204.017 75.1126ZM203.875 76.5126L203.378 76.4622L203.875 76.5126ZM203.739 79.3126L204.239 79.3107L203.739 79.3126ZM203.749 82.1126L203.249 82.1145L203.749 82.1126ZM203.786 84.9126L204.286 84.9013L203.786 84.9126ZM203.849 87.7126L203.35 87.7239L203.849 87.7126ZM203.432 90.0594L203.884 90.2735L203.432 90.0594ZM202.535 91.9531L202.083 91.7391L202.535 91.9531ZM200.687 92.9148L200.681 92.4148L200.687 92.9148ZM197.887 92.9444L197.892 93.4443L197.887 92.9444ZM195.087 93.0087L195.104 93.5084L195.087 93.0087ZM192.287 93.1078L192.304 93.6074L192.287 93.1078ZM189.487 93.1595L189.486 92.6595L189.487 93.1595ZM186.687 93.1639L186.688 93.6639L186.687 93.1639ZM183.887 93.0794L183.918 92.5803L183.887 93.0794ZM181.087 92.906L181.056 93.405L181.087 92.906ZM178.287 92.7848L178.274 93.2847L178.287 92.7848ZM175.487 92.716L175.499 92.2162L175.487 92.716ZM167.087 92.7662L167.063 92.2668L167.087 92.7662ZM164.287 92.8971L164.31 93.3965L164.287 92.8971ZM161.487 92.8941L161.462 93.3936L161.487 92.8941ZM158.687 92.7575L158.711 92.2581L158.687 92.7575ZM153.087 92.6246L153.094 92.1247L153.087 92.6246ZM150.287 92.6558L150.268 92.1562L150.287 92.6558ZM147.487 92.7613L147.506 93.2609L147.487 92.7613ZM144.687 92.7236L144.655 93.2226L144.687 92.7236ZM141.887 92.543L141.855 93.042L141.887 92.543ZM137.687 92.4996L137.695 92.9995L137.687 92.4996ZM136.287 92.523L136.278 92.0231L136.287 92.523ZM133.487 92.5642L133.48 92.0643L133.487 92.5642ZM130.687 92.5997L130.693 93.0997L130.687 92.5997ZM127.887 92.6231L127.889 93.1231L127.887 92.6231ZM125.087 92.6345L125.085 92.1345L125.087 92.6345ZM122.287 92.7384L122.322 93.2372L122.287 92.7384ZM119.487 92.9348L119.452 92.436L119.487 92.9348ZM116.687 92.9085L116.731 92.4104L116.687 92.9085ZM113.887 92.6593L113.842 93.1574L113.887 92.6593ZM111.087 92.6481L111.046 92.1497L111.087 92.6481ZM109.687 92.7613L109.646 92.263L109.687 92.7613ZM108.287 92.8746L108.327 93.373L108.287 92.8746ZM105.487 92.8669L105.444 93.365L105.487 92.8669ZM102.687 92.6248L102.73 92.1267L102.687 92.6248ZM99.8867 92.5586L99.8672 92.059L99.8867 92.5586ZM97.0867 92.6682L97.1063 93.1678L97.0867 92.6682ZM94.2867 92.8718L94.2339 92.3746L94.2867 92.8718ZM91.4867 93.1692L91.4339 92.672L91.4867 93.1692ZM88.6867 93.2714L88.6701 93.7711L88.6867 93.2714ZM85.8867 93.1782L85.9034 92.6784L85.8867 93.1782ZM80.2867 93.086L80.2813 93.5859L80.2867 93.086ZM77.4867 92.9189L77.5406 92.4219L77.4867 92.9189ZM74.6867 92.6153L74.6328 93.1124L74.6867 92.6153ZM69.0867 92.7208L69.1173 93.2199L69.0867 92.7208ZM66.2867 92.8547L66.3039 93.3544L66.2867 92.8547ZM63.4867 92.951L63.4696 92.4512L63.4867 92.951ZM55.0867 93.1582L55.085 92.6582L55.0867 93.1582ZM53.6867 93.163L53.685 92.663L53.6867 93.163ZM52.2867 93.1679L52.2884 93.6679L52.2867 93.1679ZM49.4867 93.1411L49.4754 93.641L49.4867 93.1411ZM46.6867 93.078L46.698 92.5781L46.6867 93.078ZM43.8867 92.9447L43.9229 92.446L43.8867 92.9447ZM32.6867 92.9095L32.6596 93.4087L32.6867 92.9095ZM29.8867 92.7572L29.9139 92.2579L29.8867 92.7572ZM27.0867 92.7506L27.1115 93.25L27.0867 92.7506ZM24.2867 92.8897L24.2619 92.3903L24.2867 92.8897ZM21.4867 92.8772L21.516 92.378L21.4867 92.8772ZM20.0867 92.7951L20.116 92.2959L20.0867 92.7951ZM18.6867 92.713L18.6575 93.2121L18.6867 92.713ZM15.8867 92.622L15.8835 93.122L15.8867 92.622ZM13.0867 92.6041L13.0899 92.1042L13.0867 92.6041ZM10.2867 92.6785L10.3164 93.1777L10.2867 92.6785ZM7.48673 92.8452L7.45703 92.346L7.48673 92.8452ZM4.76541 92.8245L4.80463 92.326L4.76541 92.8245ZM2.12278 92.6166L2.08356 93.115L2.12278 92.6166ZM0.925437 88.3126L0.425655 88.2979L0.925437 88.3126ZM0.84523 63.1126L0.345266 63.1066L0.84523 63.1126ZM0.798813 57.5126L0.300011 57.5472L0.798813 57.5126ZM1.07468 49.1126L0.579173 49.0457L1.07468 49.1126ZM0.843286 43.5126L0.345773 43.5624L0.843286 43.5126ZM0.76058 40.7126L0.261 40.6921L0.76058 40.7126ZM0.970149 18.3126L0.471813 18.3534L0.970149 18.3126ZM3.68672 1.08269L3.6564 1.58177L5.0564 1.66682L5.08672 1.16774L5.11704 0.668658L3.71704 0.583611L3.68672 1.08269ZM5.08672 1.16774L5.0564 1.66682C6.01112 1.72481 6.96589 1.72141 7.92058 1.65661L7.88672 1.15776L7.85286 0.658906C6.94088 0.720807 6.02899 0.724056 5.11704 0.668658L5.08672 1.16774ZM7.88672 1.15776L7.92058 1.65661L9.32058 1.56158L9.28672 1.06273L9.25286 0.563881L7.85286 0.658906L7.88672 1.15776ZM9.28672 1.06273L9.32058 1.56158L10.7206 1.46656L10.6867 0.967707L10.6529 0.468855L9.25286 0.563881L9.28672 1.06273ZM10.6867 0.967707L10.7206 1.46656C11.6433 1.40393 12.566 1.37083 13.4887 1.36725L13.4867 0.867257L13.4848 0.367261C12.5408 0.370918 11.5968 0.404785 10.6529 0.468855L10.6867 0.967707ZM13.4867 0.867257L13.4887 1.36725L14.8887 1.36183L14.8867 0.861833L14.8848 0.361837L13.4848 0.367261L13.4867 0.867257ZM14.8867 0.861833L14.8887 1.36183L16.2887 1.3564L16.2867 0.856409L16.2848 0.356412L14.8848 0.361837L14.8867 0.861833ZM16.2867 0.856409L16.2887 1.3564C17.2069 1.35285 18.1253 1.39069 19.0437 1.46995L19.0867 0.971802L19.1297 0.473654C18.1815 0.391824 17.2332 0.352738 16.2848 0.356412L16.2867 0.856409ZM19.0867 0.971802L19.0437 1.46995L20.4437 1.59077L20.4867 1.09262L20.5297 0.594471L19.1297 0.473654L19.0867 0.971802ZM20.4867 1.09262L20.4437 1.59077L21.8437 1.71159L21.8867 1.21344L21.9297 0.715289L20.5297 0.594471L20.4867 1.09262ZM21.8867 1.21344L21.8437 1.71159C22.7953 1.79371 23.7471 1.8232 24.6989 1.80003L24.6867 1.30018L24.6746 0.800327C23.7597 0.822595 22.8448 0.794257 21.9297 0.715289L21.8867 1.21344ZM24.6867 1.30018L24.6989 1.80003L26.0989 1.76596L26.0867 1.2661L26.0746 0.766251L24.6746 0.800327L24.6867 1.30018ZM26.0867 1.2661L26.0989 1.76596L27.4989 1.73188L27.4867 1.23203L27.4746 0.732175L26.0746 0.766251L26.0867 1.2661ZM27.4867 1.23203L27.4989 1.73188C28.4347 1.7091 29.3705 1.67937 30.3063 1.64268L30.2867 1.14306L30.2671 0.643443C29.3363 0.679941 28.4054 0.709518 27.4746 0.732175L27.4867 1.23203ZM30.2867 1.14306L30.3063 1.64268L31.7063 1.58778L31.6867 1.08817L31.6671 0.588552L30.2671 0.643443L30.2867 1.14306ZM31.6867 1.08817L31.7063 1.58778L33.1063 1.53289L33.0867 1.03328L33.0671 0.53366L31.6671 0.588552L31.6867 1.08817ZM33.0867 1.03328L33.1063 1.53289C34.0389 1.49633 34.9716 1.46175 35.9042 1.42916L35.8867 0.929465L35.8693 0.42977C34.9352 0.462408 34.0012 0.497038 33.0671 0.53366L33.0867 1.03328ZM35.8867 0.929465L35.9042 1.42916L37.3042 1.38024L37.2867 0.880546L37.2693 0.380851L35.8693 0.42977L35.8867 0.929465ZM37.2867 0.880546L37.3042 1.38024L38.7042 1.33132L38.6867 0.831626L38.6693 0.331931L37.2693 0.380851L37.2867 0.880546ZM38.6867 0.831626L38.7042 1.33132C39.6236 1.29919 40.5431 1.30536 41.4626 1.34983L41.4867 0.850411L41.5109 0.350995C40.5637 0.305189 39.6165 0.298833 38.6693 0.331931L38.6867 0.831626ZM41.4867 0.850411L41.4626 1.34983L42.8626 1.41753L42.8867 0.918115L42.9109 0.418699L41.5109 0.350995L41.4867 0.850411ZM42.8867 0.918115L42.8626 1.41753L44.2626 1.48524L44.2867 0.985819L44.3109 0.486403L42.9109 0.418699L42.8867 0.918115ZM44.2867 0.985819L44.2626 1.48524C45.1989 1.53052 46.1352 1.56733 47.0716 1.59568L47.0867 1.09591L47.1018 0.596137C46.1715 0.567972 45.2412 0.531393 44.3109 0.486403L44.2867 0.985819ZM47.0867 1.09591L47.0716 1.59568L48.4716 1.63806L48.4867 1.13829L48.5018 0.638523L47.1018 0.596137L47.0867 1.09591ZM48.4867 1.13829L48.4716 1.63806L49.8716 1.68045L49.8867 1.18068L49.9018 0.680908L48.5018 0.638523L48.4867 1.13829ZM49.8867 1.18068L49.8716 1.68045C50.8086 1.70882 51.7456 1.72681 52.6827 1.73441L52.6867 1.23443L52.6908 0.734442C51.7611 0.726898 50.8315 0.709053 49.9018 0.680908L49.8867 1.18068ZM52.6867 1.23443L52.6827 1.73441L54.0827 1.74577L54.0867 1.24579L54.0908 0.745803L52.6908 0.734442L52.6867 1.23443ZM54.0867 1.24579L54.0827 1.74577L55.4827 1.75713L55.4867 1.25715L55.4908 0.757164L54.0908 0.745803L54.0867 1.24579ZM55.4867 1.25715L55.4827 1.75713C56.4398 1.7649 57.3967 1.70462 58.3531 1.57641L58.2867 1.08084L58.2203 0.585276C57.3101 0.707282 56.4003 0.764545 55.4908 0.757164L55.4867 1.25715ZM58.2867 1.08084L58.3531 1.57641L59.7531 1.38875L59.6867 0.893178L59.6203 0.39761L58.2203 0.585276L58.2867 1.08084ZM59.6867 0.893178L59.7531 1.38875L61.1531 1.20108L61.0867 0.705512L61.0203 0.209945L59.6203 0.39761L59.6867 0.893178ZM61.0867 0.705512L61.1531 1.20108C62.0461 1.08139 62.9384 1.07165 63.831 1.17178L63.8867 0.674893L63.9425 0.17801C62.9684 0.0687428 61.994 0.0794178 61.0203 0.209945L61.0867 0.705512ZM63.8867 0.674893L63.831 1.17178L65.231 1.32882L65.2867 0.83194L65.3425 0.335056L63.9425 0.17801L63.8867 0.674893ZM65.2867 0.83194L65.231 1.32882L66.631 1.48587L66.6867 0.988987L66.7425 0.492103L65.3425 0.335056L65.2867 0.83194ZM66.6867 0.988987L66.631 1.48587C67.5968 1.59421 68.563 1.6073 69.5291 1.52507L69.4867 1.02687L69.4443 0.528674C68.5437 0.605326 67.6433 0.593155 66.7425 0.492103L66.6867 0.988987ZM69.4867 1.02687L69.5291 1.52507L70.9291 1.40591L70.8867 0.907712L70.8443 0.409513L69.4443 0.528674L69.4867 1.02687ZM70.8867 0.907712L70.9291 1.40591L72.3291 1.28675L72.2867 0.788551L72.2443 0.290352L70.8443 0.409513L70.8867 0.907712ZM72.2867 0.788551L72.3291 1.28675C73.2517 1.20822 74.1742 1.15973 75.0967 1.14127L75.0867 0.641373L75.0767 0.141474C74.1325 0.160368 73.1884 0.209997 72.2443 0.290352L72.2867 0.788551ZM75.0867 0.641373L75.0967 1.14127L76.4967 1.11326L76.4867 0.613357L76.4767 0.113457L75.0767 0.141474L75.0867 0.641373ZM76.4867 0.613357L76.4967 1.11326L77.8967 1.08524L77.8867 0.58534L77.8767 0.0854406L76.4767 0.113457L76.4867 0.613357ZM77.8867 0.58534L77.8967 1.08524C78.8226 1.06671 79.7485 1.06891 80.6743 1.09183L80.6867 0.591985L80.6991 0.0921386C79.7583 0.0688463 78.8175 0.0666136 77.8767 0.0854406L77.8867 0.58534ZM80.6867 0.591985L80.6743 1.09183L82.0743 1.12649L82.0867 0.626647L82.0991 0.1268L80.6991 0.0921386L80.6867 0.591985ZM82.0867 0.626647L82.0743 1.12649L83.4743 1.16116L83.4867 0.661308L83.4991 0.161461L82.0991 0.1268L82.0867 0.626647ZM83.4867 0.661308L83.4743 1.16116C84.4069 1.18424 85.3395 1.20945 86.2721 1.23678L86.2867 0.736996L86.3014 0.237211C85.3673 0.209838 84.4332 0.184588 83.4991 0.161461L83.4867 0.661308ZM86.2867 0.736996L86.2721 1.23678L87.6721 1.27781L87.6867 0.778023L87.7014 0.278237L86.3014 0.237211L86.2867 0.736996ZM87.6867 0.778023L87.6721 1.27781L89.0721 1.31883L89.0867 0.819049L89.1014 0.319264L87.7014 0.278237L87.6867 0.778023ZM89.0867 0.819049L89.0721 1.31883C90.0124 1.34639 90.9527 1.35426 91.893 1.34246L91.8867 0.842498L91.8804 0.342538C90.9541 0.354168 90.0277 0.346411 89.1014 0.319264L89.0867 0.819049ZM91.8867 0.842498L91.893 1.34246L93.293 1.32488L93.2867 0.824921L93.2804 0.32496L91.8804 0.342538L91.8867 0.842498ZM93.2867 0.824921L93.293 1.32488L94.693 1.3073L94.6867 0.807344L94.6804 0.307383L93.2804 0.32496L93.2867 0.824921ZM94.6867 0.807344L94.693 1.3073C95.6099 1.29579 96.5269 1.32936 97.444 1.40803L97.4867 0.909855L97.5294 0.411684C96.5799 0.330232 95.6302 0.295459 94.6804 0.307383L94.6867 0.807344ZM97.4867 0.909855L97.444 1.40803L98.844 1.52811L98.8867 1.02994L98.9294 0.531773L97.5294 0.411684L97.4867 0.909855ZM98.8867 1.02994L98.844 1.52811L100.244 1.6482L100.287 1.15003L100.329 0.651862L98.9294 0.531773L98.8867 1.02994ZM100.287 1.15003L100.244 1.6482C101.216 1.73157 102.188 1.70233 103.159 1.56068L103.087 1.06592L103.015 0.571153C102.119 0.701778 101.224 0.728612 100.329 0.651862L100.287 1.15003ZM103.087 1.06592L103.159 1.56068L104.559 1.35648L104.487 0.861715L104.415 0.366951L103.015 0.571153L103.087 1.06592ZM104.487 0.861715L104.559 1.35648L105.959 1.15228L105.887 0.657513L105.815 0.162748L104.415 0.366951L104.487 0.861715ZM105.887 0.657513L105.959 1.15228C106.861 1.02063 107.763 0.974385 108.665 1.01337L108.687 0.513833L108.708 0.0142999C107.743 -0.0274168 106.779 0.0221298 105.815 0.162748L105.887 0.657513ZM108.687 0.513833L108.665 1.01337L110.065 1.07389L110.087 0.574357L110.108 0.0748234L108.708 0.0142999L108.687 0.513833ZM110.087 0.574357L110.065 1.07389L111.465 1.13441L111.487 0.63488L111.508 0.135347L110.108 0.0748234L110.087 0.574357ZM111.487 0.63488L111.465 1.13441C112.393 1.17453 113.321 1.22981 114.249 1.30025L114.287 0.801686L114.325 0.303121C113.386 0.231856 112.447 0.175931 111.508 0.135347L111.487 0.63488ZM114.287 0.801686L114.249 1.30025L115.649 1.40653L115.687 0.907968L115.725 0.409403L114.325 0.303121L114.287 0.801686ZM115.687 0.907968L115.649 1.40653L117.049 1.51282L117.087 1.01425L117.125 0.515685L115.725 0.409403L115.687 0.907968ZM117.087 1.01425L117.049 1.51282C118.009 1.58573 118.97 1.58023 119.93 1.49634L119.887 0.998234L119.843 0.500131C118.937 0.579302 118.031 0.584482 117.125 0.515685L117.087 1.01425ZM119.887 0.998234L119.93 1.49634L121.33 1.37404L121.287 0.875934L121.243 0.377831L119.843 0.500131L119.887 0.998234ZM121.287 0.875934L121.33 1.37404L122.73 1.25174L122.687 0.753635L122.643 0.255531L121.243 0.377831L121.287 0.875934ZM122.687 0.753635L122.73 1.25174C123.649 1.17144 124.569 1.13041 125.488 1.12863L125.487 0.628631L125.486 0.128632C124.538 0.130462 123.591 0.172767 122.643 0.255531L122.687 0.753635ZM125.487 0.628631L125.488 1.12863L126.888 1.12593L126.887 0.625928L126.886 0.125929L125.486 0.128632L125.487 0.628631ZM126.887 0.625928L126.888 1.12593L128.288 1.12322L128.287 0.623224L128.286 0.123225L126.886 0.125929L126.887 0.625928ZM128.287 0.623224L128.288 1.12322C129.215 1.12143 130.143 1.13528 131.071 1.16478L131.087 0.665029L131.103 0.165281C130.164 0.135431 129.225 0.121412 128.286 0.123225L128.287 0.623224ZM131.087 0.665029L131.071 1.16478L132.471 1.20928L132.487 0.709537L132.503 0.209789L131.103 0.165281L131.087 0.665029ZM132.487 0.709537L132.471 1.20928L133.871 1.25379L133.887 0.754045L133.903 0.254297L132.503 0.209789L132.487 0.709537ZM133.887 0.754045L133.871 1.25379C134.802 1.28338 135.732 1.32009 136.663 1.3639L136.687 0.864456L136.71 0.36501C135.774 0.320954 134.838 0.28405 133.903 0.254297L133.887 0.754045ZM136.687 0.864456L136.663 1.3639L138.063 1.42981L138.087 0.93036L138.11 0.430913L136.71 0.36501L136.687 0.864456ZM138.087 0.93036L138.063 1.42981L139.463 1.49571L139.487 0.996264L139.51 0.496817L138.11 0.430913L138.087 0.93036ZM139.487 0.996264L139.463 1.49571C140.401 1.53986 141.339 1.57108 142.277 1.58936L142.287 1.08946L142.296 0.589553C141.368 0.57145 140.439 0.540538 139.51 0.496817L139.487 0.996264ZM142.287 1.08946L142.277 1.58936L143.677 1.61665L143.687 1.11675L143.696 0.616843L142.296 0.589553L142.287 1.08946ZM143.687 1.11675L143.677 1.61665L145.077 1.64394L145.087 1.14404L145.096 0.644133L143.696 0.616843L143.687 1.11675ZM145.087 1.14404L145.077 1.64394C146.01 1.66214 146.944 1.68032 147.877 1.69851L147.887 1.1986L147.896 0.698696C146.963 0.680514 146.03 0.662326 145.096 0.644133L145.087 1.14404ZM147.887 1.1986L147.877 1.69851L149.277 1.72578L149.287 1.22587L149.296 0.725969L147.896 0.698696L147.887 1.1986ZM149.287 1.22587L149.277 1.72578L150.677 1.75305L150.687 1.25315L150.696 0.753242L149.296 0.725969L149.287 1.22587ZM150.687 1.25315L150.677 1.75305C151.611 1.77126 152.546 1.78625 153.48 1.79804L153.487 1.29808L153.493 0.798115C152.561 0.78636 151.629 0.771402 150.696 0.753242L150.687 1.25315ZM153.487 1.29808L153.48 1.79804L154.88 1.81569L154.887 1.31573L154.893 0.81577L153.493 0.798115L153.487 1.29808ZM154.887 1.31573L154.88 1.81569L156.28 1.83335L156.287 1.33339L156.293 0.833425L154.893 0.81577L154.887 1.31573ZM156.287 1.33339L156.28 1.83335C157.235 1.84538 158.189 1.79676 159.144 1.68755L159.087 1.19079L159.03 0.694035C158.117 0.798483 157.205 0.844927 156.293 0.833425L156.287 1.33339ZM159.087 1.19079L159.144 1.68755L160.544 1.5273L160.487 1.03054L160.43 0.533786L159.03 0.694035L159.087 1.19079ZM160.487 1.03054L160.544 1.5273L161.944 1.36705L161.887 0.870294L161.83 0.373537L160.43 0.533786L160.487 1.03054ZM161.887 0.870294L161.944 1.36705C162.849 1.26343 163.754 1.23715 164.659 1.28814L164.687 0.788928L164.715 0.28972C163.753 0.235526 162.791 0.263492 161.83 0.373537L161.887 0.870294ZM164.687 0.788928L164.659 1.28814L166.059 1.36702L166.087 0.867812L166.115 0.368604L164.715 0.28972L164.687 0.788928ZM166.087 0.867812L166.059 1.36702L167.459 1.4459L167.487 0.946696L167.515 0.447488L166.115 0.368604L166.087 0.867812ZM167.487 0.946696L167.459 1.4459C168.411 1.49957 169.363 1.4986 170.316 1.44299L170.287 0.943844L170.258 0.444694C169.343 0.498071 168.429 0.499002 167.515 0.447488L167.487 0.946696ZM170.287 0.943844L170.316 1.44299L171.716 1.36126L171.687 0.862109L171.658 0.362959L170.258 0.444694L170.287 0.943844ZM171.687 0.862109L171.716 1.36126L173.116 1.27952L173.087 0.780373L173.058 0.281223L171.658 0.362959L171.687 0.862109ZM173.087 0.780373L173.116 1.27952C174.032 1.22601 174.949 1.21882 175.865 1.25793L175.887 0.758389L175.908 0.258844C174.958 0.218291 174.008 0.225752 173.058 0.281223L173.087 0.780373ZM175.887 0.758389L175.865 1.25793L177.265 1.31769L177.287 0.818141L177.308 0.318596L175.908 0.258844L175.887 0.758389ZM177.287 0.818141L177.265 1.31769L178.665 1.37744L178.687 0.877893L178.708 0.378348L177.308 0.318596L177.287 0.818141ZM178.687 0.877893L178.665 1.37744C179.62 1.41816 180.574 1.39942 181.528 1.32126L181.487 0.822926L181.446 0.324596C180.533 0.399386 179.621 0.417296 178.708 0.378348L178.687 0.877893ZM181.487 0.822926L181.528 1.32126L182.928 1.20654L182.887 0.708206L182.846 0.209877L181.446 0.324596L181.487 0.822926ZM182.887 0.708206L182.928 1.20654L184.328 1.09182L184.287 0.593487L184.246 0.0951571L182.846 0.209877L182.887 0.708206ZM184.287 0.593487L184.328 1.09182C185.224 1.01835 186.121 1.04381 187.018 1.16836L187.087 0.673108L187.155 0.177857C186.186 0.0432885 185.216 0.0156656 184.246 0.0951571L184.287 0.593487ZM187.087 0.673108L187.018 1.16836L188.418 1.3627L188.487 0.867448L188.555 0.372197L187.155 0.177857L187.087 0.673108ZM188.487 0.867448L188.418 1.3627L189.818 1.55704L189.887 1.06179L189.955 0.566537L188.555 0.372197L188.487 0.867448ZM189.887 1.06179L189.818 1.55704C190.796 1.69276 191.774 1.69636 192.752 1.56782L192.687 1.07208L192.622 0.576347C191.733 0.693195 190.844 0.689938 189.955 0.566537L189.887 1.06179ZM192.687 1.07208L192.752 1.56782L194.152 1.38377L194.087 0.888034L194.022 0.3923L192.622 0.576347L192.687 1.07208ZM194.087 0.888034L194.152 1.38377L195.552 1.19972L195.487 0.703987L195.422 0.208252L194.022 0.3923L194.087 0.888034ZM195.487 0.703987L195.552 1.19972C196.44 1.08299 197.327 1.08862 198.215 1.21669L198.287 0.721804L198.358 0.226921C197.38 0.0858315 196.4 0.079584 195.422 0.208252L195.487 0.703987ZM198.287 0.721804L198.215 1.21669L199.615 1.41855L199.687 0.923667L199.758 0.428785L198.358 0.226921L198.287 0.721804ZM199.687 0.923667L199.615 1.41855L201.015 1.62041L201.087 1.12553L201.158 0.630649L199.758 0.428785L199.687 0.923667ZM201.087 1.12553L201.015 1.62041C201.853 1.74116 202.169 2.04943 202.268 2.40778L202.75 2.27369L203.232 2.13961C202.98 1.23623 202.187 0.779051 201.158 0.630649L201.087 1.12553ZM202.75 2.27369L202.268 2.40778L202.532 3.35408L203.014 3.21999L203.495 3.08591L203.232 2.13961L202.75 2.27369ZM203.014 3.21999L202.532 3.35408L202.795 4.30038L203.277 4.16629L203.759 4.03221L203.495 3.08591L203.014 3.21999ZM203.277 4.16629L202.795 4.30038C202.959 4.88983 203.079 5.6375 203.15 6.55102L203.648 6.51259L204.147 6.47417C204.073 5.52102 203.946 4.70449 203.759 4.03221L203.277 4.16629ZM203.648 6.51259L203.15 6.55102L203.258 7.95102L203.756 7.91259L204.255 7.87417L204.147 6.47417L203.648 6.51259ZM203.756 7.91259L203.258 7.95102L203.366 9.35102L203.864 9.31259L204.363 9.27417L204.255 7.87417L203.756 7.91259ZM203.864 9.31259L203.366 9.35102C203.437 10.2777 203.49 11.2044 203.524 12.131L204.024 12.1126L204.523 12.0941C204.489 11.1541 204.435 10.2141 204.363 9.27417L203.864 9.31259ZM204.024 12.1126L203.524 12.131L203.576 13.531L204.075 13.5126L204.575 13.4941L204.523 12.0941L204.024 12.1126ZM204.075 13.5126L203.576 13.531L203.627 14.931L204.127 14.9126L204.627 14.8941L204.575 13.4941L204.075 13.5126ZM204.127 14.9126L203.627 14.931C203.661 15.8371 203.62 16.7433 203.506 17.6499L204.002 17.7126L204.498 17.7753C204.619 16.8152 204.662 15.8548 204.627 14.8941L204.127 14.9126ZM204.002 17.7126L203.506 17.6499L203.329 19.0499L203.825 19.1126L204.321 19.1753L204.498 17.7753L204.002 17.7126ZM203.825 19.1126L203.329 19.0499L203.152 20.4499L203.648 20.5126L204.144 20.5753L204.321 19.1753L203.825 19.1126ZM203.648 20.5126L203.152 20.4499C203.03 21.4142 202.999 22.379 203.06 23.3438L203.559 23.3126L204.058 23.2814C204.001 22.3796 204.03 21.4777 204.144 20.5753L203.648 20.5126ZM203.559 23.3126L203.06 23.3438L203.147 24.7438L203.646 24.7126L204.145 24.6814L204.058 23.2814L203.559 23.3126ZM203.646 24.7126L203.147 24.7438L203.235 26.1438L203.734 26.1126L204.233 26.0814L204.145 24.6814L203.646 24.7126ZM203.734 26.1126L203.235 26.1438C203.292 27.0565 203.292 27.9692 203.236 28.8819L203.735 28.9126L204.234 28.9433C204.293 27.9893 204.292 27.0353 204.233 26.0814L203.734 26.1126ZM203.735 28.9126L203.236 28.8819L203.15 30.2819L203.649 30.3126L204.148 30.3433L204.234 28.9433L203.735 28.9126ZM203.649 30.3126L203.15 30.2819L203.064 31.6819L203.563 31.7126L204.062 31.7433L204.148 30.3433L203.649 30.3126ZM203.563 31.7126L203.064 31.6819C203.006 32.6244 202.974 33.567 202.968 34.5096L203.468 34.5126L203.968 34.5156C203.974 33.5915 204.005 32.6674 204.062 31.7433L203.563 31.7126ZM203.468 34.5126L202.968 34.5096L202.96 35.9096L203.46 35.9126L203.96 35.9156L203.968 34.5156L203.468 34.5126ZM203.46 35.9126L202.96 35.9096L202.952 37.3096L203.452 37.3126L203.952 37.3156L203.96 35.9156L203.46 35.9126ZM203.452 37.3126L202.952 37.3096C202.946 38.2621 202.995 39.2146 203.099 40.1668L203.596 40.1126L204.093 40.0584C203.993 39.1439 203.946 38.2297 203.952 37.3156L203.452 37.3126ZM203.596 40.1126L203.099 40.1668L203.251 41.5668L203.748 41.5126L204.246 41.4584L204.093 40.0584L203.596 40.1126ZM203.748 41.5126L203.251 41.5668L203.404 42.9668L203.901 42.9126L204.398 42.8584L204.246 41.4584L203.748 41.5126ZM203.901 42.9126L203.404 42.9668C203.503 43.8727 203.526 44.7783 203.474 45.6839L203.973 45.7126L204.472 45.7413C204.528 44.7802 204.503 43.8191 204.398 42.8584L203.901 42.9126ZM203.973 45.7126L203.474 45.6839L203.394 47.0839L203.893 47.1126L204.392 47.1413L204.472 45.7413L203.973 45.7126ZM203.893 47.1126L203.394 47.0839L203.313 48.4839L203.812 48.5126L204.311 48.5413L204.392 47.1413L203.893 47.1126ZM203.812 48.5126L203.313 48.4839C203.259 49.4253 203.228 50.3668 203.22 51.3083L203.72 51.3126L204.22 51.3169C204.228 50.3917 204.258 49.4665 204.311 48.5413L203.812 48.5126ZM203.72 51.3126L203.22 51.3083L203.208 52.7083L203.708 52.7126L204.208 52.7169L204.22 51.3169L203.72 51.3126ZM203.708 52.7126L203.208 52.7083L203.196 54.1083L203.696 54.1126L204.196 54.1169L204.208 52.7169L203.708 52.7126ZM203.696 54.1126L203.196 54.1083C203.188 55.0431 203.184 55.9779 203.184 56.9127L203.684 56.9126L204.184 56.9125C204.184 55.9806 204.188 55.0487 204.196 54.1169L203.696 54.1126ZM203.684 56.9126L203.184 56.9127L203.184 58.3127L203.684 58.3126L204.184 58.3125L204.184 56.9125L203.684 56.9126ZM203.684 58.3126L203.184 58.3127L203.185 59.7127L203.685 59.7126L204.185 59.7125L204.184 58.3125L203.684 58.3126ZM203.685 59.7126L203.185 59.7127C203.185 60.6537 203.206 61.5946 203.25 62.5356L203.749 62.5126L204.249 62.4896C204.206 61.5639 204.185 60.6382 204.185 59.7125L203.685 59.7126ZM203.749 62.5126L203.25 62.5356L203.314 63.9356L203.814 63.9126L204.313 63.8896L204.249 62.4896L203.749 62.5126ZM203.814 63.9126L203.314 63.9356L203.378 65.3356L203.878 65.3126L204.377 65.2896L204.313 63.8896L203.814 63.9126ZM203.878 65.3126L203.378 65.3356C203.421 66.2719 203.473 67.2082 203.533 68.1445L204.032 68.1126L204.531 68.0806C204.471 67.1503 204.42 66.22 204.377 65.2896L203.878 65.3126ZM204.032 68.1126L203.533 68.1445L203.623 69.5445L204.122 69.5126L204.621 69.4806L204.531 68.0806L204.032 68.1126ZM204.122 69.5126L203.623 69.5445L203.712 70.9445L204.211 70.9126L204.71 70.8806L204.621 69.4806L204.122 69.5126ZM204.211 70.9126L203.712 70.9445C203.77 71.8504 203.753 72.7561 203.662 73.6622L204.159 73.7126L204.657 73.763C204.754 72.8024 204.772 71.8415 204.71 70.8806L204.211 70.9126ZM204.159 73.7126L203.662 73.6622L203.52 75.0622L204.017 75.1126L204.515 75.163L204.657 73.763L204.159 73.7126ZM204.017 75.1126L203.52 75.0622L203.378 76.4622L203.875 76.5126L204.373 76.563L204.515 75.163L204.017 75.1126ZM203.875 76.5126L203.378 76.4622C203.282 77.4128 203.235 78.3636 203.239 79.3145L203.739 79.3126L204.239 79.3107C204.236 78.3949 204.28 77.479 204.373 76.563L203.875 76.5126ZM203.739 79.3126L203.239 79.3145L203.244 80.7145L203.744 80.7126L204.244 80.7107L204.239 79.3107L203.739 79.3126ZM203.744 80.7126L203.244 80.7145L203.249 82.1145L203.749 82.1126L204.249 82.1107L204.244 80.7107L203.744 80.7126ZM203.749 82.1126L203.249 82.1145C203.253 83.0509 203.265 83.9874 203.286 84.9239L203.786 84.9126L204.286 84.9013C204.265 83.9711 204.253 83.0409 204.249 82.1107L203.749 82.1126ZM203.786 84.9126L203.286 84.9239L203.318 86.3239L203.818 86.3126L204.318 86.3013L204.286 84.9013L203.786 84.9126ZM203.818 86.3126L203.318 86.3239L203.35 87.7239L203.849 87.7126L204.349 87.7013L204.318 86.3013L203.818 86.3126ZM203.849 87.7126L203.35 87.7239C203.369 88.6044 203.237 89.3041 202.981 89.8454L203.432 90.0594L203.884 90.2735C204.226 89.5523 204.372 88.6874 204.349 87.7013L203.849 87.7126ZM203.432 90.0594L202.981 89.8454L202.532 90.7922L202.984 91.0063L203.436 91.2204L203.884 90.2735L203.432 90.0594ZM202.984 91.0063L202.532 90.7922L202.083 91.7391L202.535 91.9531L202.987 92.1672L203.436 91.2204L202.984 91.0063ZM202.535 91.9531L202.083 91.7391C201.894 92.1383 201.499 92.4062 200.681 92.4148L200.687 92.9148L200.692 93.4148C201.741 93.4037 202.578 93.0305 202.987 92.1672L202.535 91.9531ZM200.687 92.9148L200.681 92.4148L199.281 92.4296L199.287 92.9296L199.292 93.4295L200.692 93.4148L200.687 92.9148ZM199.287 92.9296L199.281 92.4296L197.881 92.4444L197.887 92.9444L197.892 93.4443L199.292 93.4295L199.287 92.9296ZM197.887 92.9444L197.881 92.4444C196.944 92.4543 196.007 92.4758 195.069 92.509L195.087 93.0087L195.104 93.5084C196.034 93.4755 196.963 93.4541 197.892 93.4443L197.887 92.9444ZM195.087 93.0087L195.069 92.509L193.669 92.5585L193.687 93.0582L193.704 93.5579L195.104 93.5084L195.087 93.0087ZM193.687 93.0582L193.669 92.5585L192.269 92.6081L192.287 93.1078L192.304 93.6074L193.704 93.5579L193.687 93.0582ZM192.287 93.1078L192.269 92.6081C191.341 92.6409 190.414 92.658 189.486 92.6595L189.487 93.1595L189.488 93.6595C190.426 93.658 191.365 93.6407 192.304 93.6074L192.287 93.1078ZM189.487 93.1595L189.486 92.6595L188.086 92.6617L188.087 93.1617L188.088 93.6617L189.488 93.6595L189.487 93.1595ZM188.087 93.1617L188.086 92.6617L186.686 92.6639L186.687 93.1639L186.688 93.6639L188.088 93.6617L188.087 93.1617ZM186.687 93.1639L186.686 92.6639C185.763 92.6654 184.84 92.6375 183.918 92.5803L183.887 93.0794L183.856 93.5784C184.8 93.6369 185.744 93.6654 186.688 93.6639L186.687 93.1639ZM183.887 93.0794L183.918 92.5803L182.518 92.4936L182.487 92.9927L182.456 93.4917L183.856 93.5784L183.887 93.0794ZM182.487 92.9927L182.518 92.4936L181.118 92.4069L181.087 92.906L181.056 93.405L182.456 93.4917L182.487 92.9927ZM181.087 92.906L181.118 92.4069C180.178 92.3487 179.239 92.3081 178.299 92.285L178.287 92.7848L178.274 93.2847C179.202 93.3075 180.129 93.3476 181.056 93.405L181.087 92.906ZM178.287 92.7848L178.299 92.285L176.899 92.2506L176.887 92.7504L176.874 93.2503L178.274 93.2847L178.287 92.7848ZM176.887 92.7504L176.899 92.2506L175.499 92.2162L175.487 92.716L175.474 93.2159L176.874 93.2503L176.887 92.7504ZM175.487 92.716L175.499 92.2162C174.561 92.1931 173.623 92.1832 172.685 92.1864L172.687 92.6864L172.688 93.1864C173.617 93.1832 174.546 93.193 175.474 93.2159L175.487 92.716ZM172.687 92.6864L172.685 92.1864L171.285 92.1912L171.287 92.6912L171.288 93.1912L172.688 93.1864L172.687 92.6864ZM171.287 92.6912L171.285 92.1912L169.885 92.196L169.887 92.696L169.888 93.196L171.288 93.1912L171.287 92.6912ZM169.887 92.696L169.885 92.196C168.944 92.1992 168.004 92.2228 167.063 92.2668L167.087 92.7662L167.11 93.2657C168.036 93.2224 168.962 93.1992 169.888 93.196L169.887 92.696ZM167.087 92.7662L167.063 92.2668L165.663 92.3322L165.687 92.8316L165.71 93.3311L167.11 93.2657L167.087 92.7662ZM165.687 92.8316L165.663 92.3322L164.263 92.3976L164.287 92.8971L164.31 93.3965L165.71 93.3311L165.687 92.8316ZM164.287 92.8971L164.263 92.3976C163.346 92.4405 162.429 92.4395 161.511 92.3947L161.487 92.8941L161.462 93.3936C162.412 93.4399 163.361 93.4409 164.31 93.3965L164.287 92.8971ZM161.487 92.8941L161.511 92.3947L160.111 92.3264L160.087 92.8258L160.062 93.3252L161.462 93.3936L161.487 92.8941ZM160.087 92.8258L160.111 92.3264L158.711 92.2581L158.687 92.7575L158.662 93.2569L160.062 93.3252L160.087 92.8258ZM158.687 92.7575L158.711 92.2581C157.772 92.2123 156.833 92.1821 155.894 92.1677L155.887 92.6677L155.879 93.1676C156.807 93.1818 157.735 93.2116 158.662 93.2569L158.687 92.7575ZM155.887 92.6677L155.894 92.1677L154.494 92.1462L154.487 92.6461L154.479 93.1461L155.879 93.1676L155.887 92.6677ZM154.487 92.6461L154.494 92.1462L153.094 92.1247L153.087 92.6246L153.079 93.1246L154.479 93.1461L154.487 92.6461ZM153.087 92.6246L153.094 92.1247C152.152 92.1102 151.21 92.1207 150.268 92.1562L150.287 92.6558L150.306 93.1555C151.23 93.1207 152.155 93.1104 153.079 93.1246L153.087 92.6246ZM150.287 92.6558L150.268 92.1562L148.868 92.2089L148.887 92.7085L148.906 93.2082L150.306 93.1555L150.287 92.6558ZM148.887 92.7085L148.868 92.2089L147.468 92.2616L147.487 92.7613L147.506 93.2609L148.906 93.2082L148.887 92.7085ZM147.487 92.7613L147.468 92.2616C146.552 92.2961 145.635 92.2838 144.719 92.2247L144.687 92.7236L144.655 93.2226C145.605 93.2839 146.555 93.2967 147.506 93.2609L147.487 92.7613ZM144.687 92.7236L144.719 92.2247L143.319 92.1344L143.287 92.6333L143.255 93.1323L144.655 93.2226L144.687 92.7236ZM143.287 92.6333L143.319 92.1344L141.919 92.044L141.887 92.543L141.855 93.042L143.255 93.1323L143.287 92.6333ZM141.887 92.543L141.919 92.044C140.972 91.9829 140.025 91.9603 139.078 91.9762L139.087 92.4761L139.095 92.9761C140.015 92.9607 140.935 92.9826 141.855 93.042L141.887 92.543ZM139.087 92.4761L139.078 91.9762L137.678 91.9997L137.687 92.4996L137.695 92.9995L139.095 92.9761L139.087 92.4761ZM137.687 92.4996L137.678 91.9997L136.278 92.0231L136.287 92.523L136.295 93.023L137.695 92.9995L137.687 92.4996ZM136.287 92.523L136.278 92.0231C135.346 92.0387 134.413 92.0525 133.48 92.0643L133.487 92.5642L133.493 93.0642C134.427 93.0524 135.361 93.0386 136.295 93.023L136.287 92.523ZM133.487 92.5642L133.48 92.0643L132.08 92.082L132.087 92.582L132.093 93.0819L133.493 93.0642L133.487 92.5642ZM132.087 92.582L132.08 92.082L130.68 92.0997L130.687 92.5997L130.693 93.0997L132.093 93.0819L132.087 92.582ZM130.687 92.5997L130.68 92.0997C129.748 92.1115 128.817 92.1193 127.885 92.1231L127.887 92.6231L127.889 93.1231C128.824 93.1193 129.758 93.1115 130.693 93.0997L130.687 92.5997ZM127.887 92.6231L127.885 92.1231L126.485 92.1288L126.487 92.6288L126.489 93.1288L127.889 93.1231L127.887 92.6231ZM126.487 92.6288L126.485 92.1288L125.085 92.1345L125.087 92.6345L125.089 93.1345L126.489 93.1288L126.487 92.6288ZM125.087 92.6345L125.085 92.1345C124.14 92.1384 123.196 92.1734 122.252 92.2397L122.287 92.7384L122.322 93.2372C123.244 93.1725 124.166 93.1383 125.089 93.1345L125.087 92.6345ZM122.287 92.7384L122.252 92.2397L120.852 92.3378L120.887 92.8366L120.922 93.3354L122.322 93.2372L122.287 92.7384ZM120.887 92.8366L120.852 92.3378L119.452 92.436L119.487 92.9348L119.522 93.4336L120.922 93.3354L120.887 92.8366ZM119.487 92.9348L119.452 92.436C118.545 92.4996 117.638 92.4911 116.731 92.4104L116.687 92.9085L116.642 93.4065C117.602 93.4919 118.562 93.5009 119.522 93.4336L119.487 92.9348ZM116.687 92.9085L116.731 92.4104L115.331 92.2859L115.287 92.7839L115.242 93.2819L116.642 93.4065L116.687 92.9085ZM115.287 92.7839L115.331 92.2859L113.931 92.1613L113.887 92.6593L113.842 93.1574L115.242 93.2819L115.287 92.7839ZM113.887 92.6593L113.931 92.1613C112.97 92.0758 112.008 92.0719 111.046 92.1497L111.087 92.6481L111.127 93.1464C112.032 93.0732 112.937 93.0768 113.842 93.1574L113.887 92.6593ZM111.087 92.6481L111.046 92.1497L109.646 92.263L109.687 92.7613L109.727 93.2597L111.127 93.1464L111.087 92.6481ZM109.687 92.7613L109.646 92.263L108.246 92.3762L108.287 92.8746L108.327 93.373L109.727 93.2597L109.687 92.7613ZM108.287 92.8746L108.246 92.3762C107.341 92.4495 106.435 92.447 105.53 92.3687L105.487 92.8669L105.444 93.365C106.405 93.4481 107.366 93.4508 108.327 93.373L108.287 92.8746ZM105.487 92.8669L105.53 92.3687L104.13 92.2477L104.087 92.7458L104.044 93.244L105.444 93.365L105.487 92.8669ZM104.087 92.7458L104.13 92.2477L102.73 92.1267L102.687 92.6248L102.644 93.123L104.044 93.244L104.087 92.7458ZM102.687 92.6248L102.73 92.1267C101.776 92.0442 100.821 92.0216 99.8672 92.059L99.8867 92.5586L99.9063 93.0582C100.819 93.0225 101.731 93.0441 102.644 93.123L102.687 92.6248ZM99.8867 92.5586L99.8672 92.059L98.4672 92.1138L98.4867 92.6134L98.5063 93.113L99.9063 93.0582L99.8867 92.5586ZM98.4867 92.6134L98.4672 92.1138L97.0672 92.1686L97.0867 92.6682L97.1063 93.1678L98.5063 93.113L98.4867 92.6134ZM97.0867 92.6682L97.0672 92.1686C96.1227 92.2056 95.1782 92.2742 94.2339 92.3746L94.2867 92.8718L94.3395 93.369C95.2619 93.271 96.1841 93.2039 97.1063 93.1678L97.0867 92.6682ZM94.2867 92.8718L94.2339 92.3746L92.8339 92.5233L92.8867 93.0205L92.9395 93.5177L94.3395 93.369L94.2867 92.8718ZM92.8867 93.0205L92.8339 92.5233L91.4339 92.672L91.4867 93.1692L91.5395 93.6664L92.9395 93.5177L92.8867 93.0205ZM91.4867 93.1692L91.4339 92.672C90.5235 92.7687 89.6134 92.8019 88.7034 92.7716L88.6867 93.2714L88.6701 93.7711C89.6267 93.8029 90.5833 93.768 91.5395 93.6664L91.4867 93.1692ZM88.6867 93.2714L88.7034 92.7716L87.3034 92.725L87.2867 93.2248L87.2701 93.7245L88.6701 93.7711L88.6867 93.2714ZM87.2867 93.2248L87.3034 92.725L85.9034 92.6784L85.8867 93.1782L85.8701 93.6779L87.2701 93.7245L87.2867 93.2248ZM85.8867 93.1782L85.9034 92.6784C84.9663 92.6473 84.0292 92.6266 83.0922 92.6164L83.0867 93.1164L83.0813 93.6163C84.0109 93.6264 84.9405 93.6469 85.8701 93.6779L85.8867 93.1782ZM83.0867 93.1164L83.0922 92.6164L81.6922 92.6012L81.6867 93.1012L81.6813 93.6011L83.0813 93.6163L83.0867 93.1164ZM81.6867 93.1012L81.6922 92.6012L80.2922 92.586L80.2867 93.086L80.2813 93.5859L81.6813 93.6011L81.6867 93.1012ZM80.2867 93.086L80.2922 92.586C79.3751 92.576 78.458 92.5213 77.5406 92.4219L77.4867 92.9189L77.4328 93.416C78.3822 93.519 79.3317 93.5756 80.2813 93.5859L80.2867 93.086ZM77.4867 92.9189L77.5406 92.4219L76.1406 92.27L76.0867 92.7671L76.0328 93.2642L77.4328 93.416L77.4867 92.9189ZM76.0867 92.7671L76.1406 92.27L74.7406 92.1182L74.6867 92.6153L74.6328 93.1124L76.0328 93.2642L76.0867 92.7671ZM74.6867 92.6153L74.7406 92.1182C73.7794 92.014 72.8178 91.9913 71.8561 92.0502L71.8867 92.5492L71.9173 93.0483C72.8224 92.9929 73.7274 93.0142 74.6328 93.1124L74.6867 92.6153ZM71.8867 92.5492L71.8561 92.0502L70.4561 92.136L70.4867 92.635L70.5173 93.1341L71.9173 93.0483L71.8867 92.5492ZM70.4867 92.635L70.4561 92.136L69.0561 92.2217L69.0867 92.7208L69.1173 93.2199L70.5173 93.1341L70.4867 92.635ZM69.0867 92.7208L69.0561 92.2217C68.1273 92.2787 67.1984 92.3231 66.2696 92.355L66.2867 92.8547L66.3039 93.3544C67.2417 93.3222 68.1795 93.2773 69.1173 93.2199L69.0867 92.7208ZM66.2867 92.8547L66.2696 92.355L64.8696 92.4031L64.8867 92.9028L64.9039 93.4025L66.3039 93.3544L66.2867 92.8547ZM64.8867 92.9028L64.8696 92.4031L63.4696 92.4512L63.4867 92.951L63.5039 93.4507L64.9039 93.4025L64.8867 92.9028ZM63.4867 92.951L63.4696 92.4512C62.5374 92.4833 61.6052 92.5121 60.673 92.5378L60.6867 93.0376L60.7005 93.5374C61.635 93.5117 62.5694 93.4828 63.5039 93.4507L63.4867 92.951ZM60.6867 93.0376L60.673 92.5378L59.273 92.5764L59.2867 93.0762L59.3005 93.576L60.7005 93.5374L60.6867 93.0376ZM59.2867 93.0762L59.273 92.5764L57.873 92.615L57.8867 93.1148L57.9005 93.6146L59.3005 93.576L59.2867 93.0762ZM57.8867 93.1148L57.873 92.615C56.9436 92.6406 56.0143 92.655 55.085 92.6582L55.0867 93.1582L55.0885 93.6582C56.0258 93.6549 56.9631 93.6404 57.9005 93.6146L57.8867 93.1148ZM55.0867 93.1582L55.085 92.6582L53.685 92.663L53.6867 93.163L53.6884 93.663L55.0885 93.6582L55.0867 93.1582ZM53.6867 93.163L53.685 92.663L52.285 92.6679L52.2867 93.1679L52.2884 93.6679L53.6884 93.663L53.6867 93.163ZM52.2867 93.1679L52.285 92.6679C51.356 92.6711 50.427 92.6622 49.498 92.6413L49.4867 93.1411L49.4754 93.641C50.4131 93.6622 51.3508 93.6711 52.2884 93.6679L52.2867 93.1679ZM49.4867 93.1411L49.498 92.6413L48.098 92.6097L48.0867 93.1096L48.0754 93.6094L49.4754 93.641L49.4867 93.1411ZM48.0867 93.1096L48.098 92.6097L46.698 92.5781L46.6867 93.078L46.6754 93.5778L48.0754 93.6094L48.0867 93.1096ZM46.6867 93.078L46.698 92.5781C45.773 92.5572 44.848 92.5132 43.9229 92.446L43.8867 92.9447L43.8505 93.4434C44.7921 93.5118 45.7338 93.5566 46.6754 93.5778L46.6867 93.078ZM43.8867 92.9447L43.9229 92.446L42.5229 92.3444L42.4867 92.8431L42.4505 93.3418L43.8505 93.4434L43.8867 92.9447ZM42.4867 92.8431L42.5229 92.3444L41.1229 92.2427L41.0867 92.7414L41.0505 93.2401L42.4505 93.3418L42.4867 92.8431ZM41.0867 92.7414L41.1229 92.2427C40.1673 92.1734 39.2116 92.1682 38.2559 92.2272L38.2867 92.7262L38.3175 93.2253C39.2285 93.169 40.1395 93.174 41.0505 93.2401L41.0867 92.7414ZM38.2867 92.7262L38.2559 92.2272L36.8559 92.3136L36.8867 92.8127L36.9175 93.3117L38.3175 93.2253L38.2867 92.7262ZM36.8867 92.8127L36.8559 92.3136L35.4559 92.4001L35.4867 92.8991L35.5175 93.3982L36.9175 93.3117L36.8867 92.8127ZM35.4867 92.8991L35.4559 92.4001C34.5419 92.4565 33.6279 92.4599 32.7139 92.4102L32.6867 92.9095L32.6596 93.4087C33.6122 93.4605 34.5649 93.457 35.5175 93.3982L35.4867 92.8991ZM32.6867 92.9095L32.7139 92.4102L31.3139 92.3341L31.2867 92.8333L31.2596 93.3326L32.6596 93.4087L32.6867 92.9095ZM31.2867 92.8333L31.3139 92.3341L29.9139 92.2579L29.8867 92.7572L29.8596 93.2565L31.2596 93.3326L31.2867 92.8333ZM29.8867 92.7572L29.9139 92.2579C28.9632 92.2063 28.0126 92.204 27.0619 92.2512L27.0867 92.7506L27.1115 93.25C28.0276 93.2045 28.9435 93.2067 29.8596 93.2565L29.8867 92.7572ZM27.0867 92.7506L27.0619 92.2512L25.6619 92.3208L25.6867 92.8202L25.7115 93.3195L27.1115 93.25L27.0867 92.7506ZM25.6867 92.8202L25.6619 92.3208L24.2619 92.3903L24.2867 92.8897L24.3115 93.3891L25.7115 93.3195L25.6867 92.8202ZM24.2867 92.8897L24.2619 92.3903C23.3466 92.4358 22.4313 92.4317 21.516 92.378L21.4867 92.8772L21.4575 93.3763C22.4088 93.4321 23.3602 93.4363 24.3115 93.3891L24.2867 92.8897ZM21.4867 92.8772L21.516 92.378L20.116 92.2959L20.0867 92.7951L20.0575 93.2942L21.4575 93.3763L21.4867 92.8772ZM20.0867 92.7951L20.116 92.2959L18.716 92.2139L18.6867 92.713L18.6575 93.2121L20.0575 93.2942L20.0867 92.7951ZM18.6867 92.713L18.716 92.2139C17.774 92.1586 16.832 92.128 15.8899 92.122L15.8867 92.622L15.8835 93.122C16.8082 93.1279 17.7328 93.1579 18.6575 93.2121L18.6867 92.713ZM15.8867 92.622L15.8899 92.122L14.4899 92.1131L14.4867 92.6131L14.4835 93.1131L15.8835 93.122L15.8867 92.622ZM14.4867 92.6131L14.4899 92.1131L13.0899 92.1042L13.0867 92.6041L13.0835 93.1041L14.4835 93.1131L14.4867 92.6131ZM13.0867 92.6041L13.0899 92.1042C12.1456 92.0981 11.2013 92.1232 10.257 92.1794L10.2867 92.6785L10.3164 93.1777C11.2388 93.1228 12.1612 93.0983 13.0835 93.1041L13.0867 92.6041ZM10.2867 92.6785L10.257 92.1794L8.85702 92.2627L8.88672 92.7618L8.91642 93.261L10.3164 93.1777L10.2867 92.6785ZM8.88672 92.7618L8.85702 92.2627L7.45703 92.346L7.48673 92.8452L7.51643 93.3443L8.91642 93.261L8.88672 92.7618ZM7.48673 92.8452L7.45703 92.346C6.54533 92.4003 5.6613 92.3934 4.80463 92.326L4.76541 92.8245L4.72619 93.323C5.63128 93.3942 6.56145 93.4011 7.51643 93.3443L7.48673 92.8452ZM4.76541 92.8245L4.80463 92.326L3.48331 92.2221L3.44409 92.7205L3.40487 93.219L4.72619 93.323L4.76541 92.8245ZM3.44409 92.7205L3.48331 92.2221L2.162 92.1181L2.12278 92.6166L2.08356 93.115L3.40487 93.219L3.44409 92.7205ZM2.12278 92.6166L2.162 92.1181C1.8073 92.0902 1.62381 91.9831 1.52289 91.8645C1.41791 91.7412 1.33093 91.5218 1.34257 91.1274L0.842786 91.1126L0.343004 91.0979C0.327096 91.6368 0.439669 92.1347 0.761354 92.5127C1.0871 92.8954 1.55738 93.0736 2.08356 93.115L2.12278 92.6166ZM0.842786 91.1126L1.34257 91.1274L1.38389 89.7274L0.884112 89.7126L0.38433 89.6979L0.343004 91.0979L0.842786 91.1126ZM0.884112 89.7126L1.38389 89.7274L1.42522 88.3274L0.925437 88.3126L0.425655 88.2979L0.38433 89.6979L0.884112 89.7126ZM0.925437 88.3126L1.42522 88.3274C1.45301 87.386 1.45803 86.4446 1.4403 85.5032L0.940386 85.5126L0.440475 85.522C0.457908 86.4473 0.452968 87.3726 0.425655 88.2979L0.925437 88.3126ZM0.940386 85.5126L1.4403 85.5032L1.41392 84.1032L0.914009 84.1126L0.414098 84.122L0.440475 85.522L0.940386 85.5126ZM0.914009 84.1126L1.41392 84.1032L1.38754 82.7032L0.887632 82.7126L0.38772 82.722L0.414098 84.122L0.914009 84.1126ZM0.887632 82.7126L1.38754 82.7032C1.37023 81.7845 1.39324 80.8658 1.45656 79.947L0.957747 79.9126L0.458931 79.8782C0.3936 80.8261 0.36986 81.774 0.38772 82.722L0.887632 82.7126ZM0.957747 79.9126L1.45656 79.947L1.55306 78.547L1.05424 78.5126L0.555423 78.4782L0.458931 79.8782L0.957747 79.9126ZM1.05424 78.5126L1.55306 78.547L1.64955 77.147L1.15073 77.1126L0.651916 77.0782L0.555423 78.4782L1.05424 78.5126ZM1.15073 77.1126L1.64955 77.147C1.71454 76.2041 1.75223 75.2611 1.76261 74.3181L1.26265 74.3126L0.762675 74.3071C0.752502 75.2308 0.715583 76.1545 0.651916 77.0782L1.15073 77.1126ZM1.26265 74.3126L1.76261 74.3181L1.77803 72.9181L1.27807 72.9126L0.778095 72.9071L0.762675 74.3071L1.26265 74.3126ZM1.27807 72.9126L1.77803 72.9181L1.79345 71.5181L1.29349 71.5126L0.793516 71.5071L0.778095 72.9071L1.27807 72.9126ZM1.29349 71.5126L1.79345 71.5181C1.80391 70.5686 1.7684 69.6192 1.68693 68.6699L1.18876 68.7126L0.690595 68.7554C0.769317 69.6727 0.803618 70.5899 0.793516 71.5071L1.29349 71.5126ZM1.18876 68.7126L1.68693 68.6699L1.56679 67.2699L1.06862 67.3126L0.570454 67.3554L0.690595 68.7554L1.18876 68.7126ZM1.06862 67.3126L1.56679 67.2699L1.44665 65.8699L0.948482 65.9126L0.450313 65.9554L0.570454 67.3554L1.06862 67.3126ZM0.948482 65.9126L1.44665 65.8699C1.36794 64.9527 1.33413 64.0356 1.34519 63.1186L0.84523 63.1126L0.345266 63.1066C0.33381 64.0562 0.368832 65.0059 0.450313 65.9554L0.948482 65.9126ZM0.84523 63.1126L1.34519 63.1186L1.36208 61.7186L0.862119 61.7126L0.362155 61.7066L0.345266 63.1066L0.84523 63.1126ZM0.862119 61.7126L1.36208 61.7186L1.37897 60.3186L0.879007 60.3126L0.379044 60.3066L0.362155 61.7066L0.862119 61.7126ZM0.879007 60.3126L1.37897 60.3186C1.39039 59.3717 1.36327 58.4248 1.29762 57.478L0.798813 57.5126L0.300011 57.5472C0.363798 58.467 0.390139 59.3868 0.379044 60.3066L0.879007 60.3126ZM0.798813 57.5126L1.29762 57.478L1.20053 56.078L0.701731 56.1126L0.202929 56.1472L0.300011 57.5472L0.798813 57.5126ZM0.701731 56.1126L1.20053 56.078L1.10345 54.678L0.604649 54.7126L0.105847 54.7472L0.202929 56.1472L0.701731 56.1126ZM0.604649 54.7126L1.10345 54.678C1.04109 53.7788 1.07059 52.8794 1.19211 51.9795L0.696603 51.9126L0.2011 51.8457C0.0705645 52.8124 0.0387617 53.7798 0.105847 54.7472L0.604649 54.7126ZM0.696603 51.9126L1.19211 51.9795L1.38114 50.5795L0.88564 50.5126L0.390137 50.4457L0.2011 51.8457L0.696603 51.9126ZM0.88564 50.5126L1.38114 50.5795L1.57018 49.1795L1.07468 49.1126L0.579173 49.0457L0.390137 50.4457L0.88564 50.5126ZM1.07468 49.1126L1.57018 49.1795C1.70141 48.2076 1.71842 47.2351 1.62108 46.2628L1.12357 46.3126L0.626057 46.3624C0.715581 47.2567 0.699995 48.1509 0.579173 49.0457L1.07468 49.1126ZM1.12357 46.3126L1.62108 46.2628L1.48094 44.8628L0.983429 44.9126L0.485915 44.9624L0.626057 46.3624L1.12357 46.3126ZM0.983429 44.9126L1.48094 44.8628L1.3408 43.4628L0.843286 43.5126L0.345773 43.5624L0.485915 44.9624L0.983429 44.9126ZM0.843286 43.5126L1.3408 43.4628C1.2497 42.5527 1.22283 41.6429 1.26016 40.7331L0.76058 40.7126L0.261 40.6921C0.221743 41.649 0.250016 42.6058 0.345773 43.5624L0.843286 43.5126ZM0.76058 40.7126L1.26016 40.7331L1.3176 39.3331L0.818015 39.3126L0.318436 39.2921L0.261 40.6921L0.76058 40.7126ZM0.818015 39.3126L1.3176 39.3331L1.37503 37.9331L0.875451 37.9126L0.375872 37.8921L0.318436 39.2921L0.818015 39.3126ZM0.875451 37.9126L1.37503 37.9331C1.41358 36.9934 1.43412 36.0537 1.43663 35.1139L0.936629 35.1126L0.436631 35.1113C0.434153 36.0382 0.413901 36.9652 0.375872 37.8921L0.875451 37.9126ZM0.936629 35.1126L1.43663 35.1139L1.44037 33.7139L0.94037 33.7126L0.440372 33.7113L0.436631 35.1113L0.936629 35.1126ZM0.94037 33.7126L1.44037 33.7139L1.44411 32.3139L0.944112 32.3126L0.444114 32.3113L0.440372 33.7113L0.94037 33.7126ZM0.944112 32.3126L1.44411 32.3139C1.44659 31.3865 1.4655 30.4591 1.50086 29.5317L1.00122 29.5126L0.501581 29.4936C0.46578 30.4328 0.446624 31.372 0.444114 32.3113L0.944112 32.3126ZM1.00122 29.5126L1.50086 29.5317L1.55422 28.1317L1.05458 28.1126L0.554945 28.0936L0.501581 29.4936L1.00122 29.5126ZM1.05458 28.1126L1.55422 28.1317L1.60758 26.7317L1.10795 26.7126L0.608309 26.6936L0.554945 28.0936L1.05458 28.1126ZM1.10795 26.7126L1.60758 26.7317C1.64349 25.7897 1.65499 24.8477 1.6421 23.9058L1.14215 23.9126L0.642193 23.9195C0.654851 24.8441 0.643557 25.7688 0.608309 26.6936L1.10795 26.7126ZM1.14215 23.9126L1.6421 23.9058L1.62293 22.5058L1.12298 22.5126L0.623027 22.5195L0.642193 23.9195L1.14215 23.9126ZM1.12298 22.5126L1.62293 22.5058L1.60377 21.1058L1.10382 21.1126L0.603862 21.1195L0.623027 22.5195L1.12298 22.5126ZM1.10382 21.1126L1.60377 21.1058C1.59084 20.1611 1.54574 19.2164 1.46849 18.2719L0.970149 18.3126L0.471813 18.3534C0.547227 19.2755 0.591241 20.1975 0.603862 21.1195L1.10382 21.1126ZM0.970149 18.3126L1.46849 18.2719L1.35398 16.8719L0.855649 16.9126L0.357313 16.9534L0.471813 18.3534L0.970149 18.3126ZM0.855649 16.9126L1.35398 16.8719L1.23948 15.4719L0.741148 15.5126L0.242812 15.5534L0.357313 16.9534L0.855649 16.9126ZM0.741148 15.5126L1.23948 15.4719C1.16387 14.5473 1.11289 13.6228 1.08655 12.6984L0.586748 12.7126L0.0869512 12.7269C0.113803 13.6691 0.165759 14.6112 0.242812 15.5534L0.741148 15.5126ZM0.586748 12.7126L1.08655 12.6984L1.04665 11.2984L0.546849 11.3126L0.0470521 11.3269L0.0869512 12.7269L0.586748 12.7126ZM0.546849 11.3126L1.04665 11.2984L1.00675 9.89836L0.50695 9.91261L0.00715315 9.92685L0.0470521 11.3269L0.546849 11.3126ZM0.50695 9.91261L1.00675 9.89836C0.980926 8.99233 1.02903 8.08608 1.15118 7.17936L0.655653 7.1126L0.160129 7.04585C0.0308102 8.00579 -0.0202243 8.96621 0.00715315 9.92685L0.50695 9.91261ZM0.655653 7.1126L1.15118 7.17936L1.33978 5.77936L0.844254 5.7126L0.34873 5.64585L0.160129 7.04585L0.655653 7.1126ZM0.844254 5.7126L1.33978 5.77936L1.52838 4.37936L1.03286 4.3126L0.537332 4.24585L0.34873 5.64585L0.844254 5.7126ZM1.03286 4.3126L1.52838 4.37936C1.65289 3.45509 1.70101 2.74889 1.63091 2.33007L1.13777 2.4126L0.644632 2.49514C0.686114 2.74299 0.664288 3.30344 0.537332 4.24585L1.03286 4.3126ZM1.13777 2.4126L1.63091 2.33007L1.54723 1.83006L1.05409 1.9126L0.560947 1.99514L0.644632 2.49514L1.13777 2.4126ZM1.05409 1.9126L1.54723 1.83006L1.46354 1.33006L0.970403 1.4126L0.477263 1.49514L0.560947 1.99514L1.05409 1.9126ZM0.970403 1.4126L1.46354 1.33006C1.4703 1.37042 1.46279 1.44865 1.40944 1.51434C1.37143 1.56116 1.34681 1.55501 1.40797 1.53573C1.53525 1.4956 1.801 1.46906 2.2564 1.49672L2.28672 0.997644L2.31704 0.498564C1.83911 0.469531 1.4188 0.4838 1.10731 0.581993C0.949088 0.631872 0.766897 0.719258 0.633139 0.883984C0.484047 1.0676 0.442613 1.28811 0.477263 1.49514L0.970403 1.4126ZM2.28672 0.997644L2.2564 1.49672L3.6564 1.58177L3.68672 1.08269L3.71704 0.583611L2.31704 0.498564L2.28672 0.997644Z" fill="#3A5EBB"/>
</svg>
