<svg width="14" height="14" viewBox="0 0 14 14" fill="none" xmlns="http://www.w3.org/2000/svg">
<path d="M12.25 5.83334H1.75M9.33333 1.16667V3.50001M4.66667 1.16667V3.50001M4.55 12.8333H9.45C10.4301 12.8333 10.9201 12.8333 11.2945 12.6426C11.6238 12.4748 11.8915 12.2071 12.0593 11.8778C12.25 11.5035 12.25 11.0134 12.25 10.0333V5.13334C12.25 4.15325 12.25 3.6632 12.0593 3.28886C11.8915 2.95957 11.6238 2.69186 11.2945 2.52408C10.9201 2.33334 10.4301 2.33334 9.45 2.33334H4.55C3.56991 2.33334 3.07986 2.33334 2.70552 2.52408C2.37623 2.69186 2.10852 2.95957 1.94074 3.28886C1.75 3.6632 1.75 4.15325 1.75 5.13334V10.0333C1.75 11.0134 1.75 11.5035 1.94074 11.8778C2.10852 12.2071 2.37623 12.4748 2.70552 12.6426C3.07986 12.8333 3.56991 12.8333 4.55 12.8333Z" stroke="#4A5578" stroke-linecap="round" stroke-linejoin="round"/>
</svg>
