<svg width="26" height="26" viewBox="0 0 26 26" fill="none" xmlns="http://www.w3.org/2000/svg">
<path d="M19.5002 10.8333L15.1669 6.5M2.7085 23.2917L6.37489 22.8843C6.82284 22.8345 7.04682 22.8096 7.25616 22.7419C7.44189 22.6817 7.61865 22.5968 7.78162 22.4893C7.96532 22.3682 8.12467 22.2088 8.44337 21.8901L22.7502 7.58334C23.9468 6.38672 23.9468 4.44662 22.7502 3.25C21.5536 2.05339 19.6135 2.05338 18.4169 3.25L4.11004 17.5568C3.79134 17.8755 3.63199 18.0348 3.51085 18.2185C3.40338 18.3815 3.31843 18.5583 3.2583 18.744C3.19053 18.9534 3.16565 19.1773 3.11587 19.6253L2.7085 23.2917Z" stroke="#B9C0D4" stroke-width="2" stroke-linecap="round" stroke-linejoin="round"/>
</svg>
