<svg width="28" height="28" viewBox="0 0 28 28" fill="none" xmlns="http://www.w3.org/2000/svg">
<path d="M18.6667 8.16667C18.6667 7.0817 18.6667 6.53922 18.5474 6.09413C18.2238 4.88631 17.2804 3.94289 16.0726 3.61926C15.6275 3.5 15.085 3.5 14 3.5C12.9151 3.5 12.3726 3.5 11.9275 3.61926C10.7197 3.94289 9.77627 4.88631 9.45263 6.09413C9.33337 6.53922 9.33337 7.0817 9.33337 8.16667M14.9334 20.4167H20.65C20.9767 20.4167 21.1401 20.4167 21.2649 20.3531C21.3746 20.2972 21.4639 20.2079 21.5198 20.0982C21.5834 19.9734 21.5834 19.81 21.5834 19.4833V16.6833C21.5834 16.3566 21.5834 16.1933 21.5198 16.0685C21.4639 15.9587 21.3746 15.8695 21.2649 15.8136C21.1401 15.75 20.9767 15.75 20.65 15.75H14.9334C14.6067 15.75 14.4433 15.75 14.3185 15.8136C14.2088 15.8695 14.1195 15.9587 14.0636 16.0685C14 16.1933 14 16.3566 14 16.6833V19.4833C14 19.81 14 19.9734 14.0636 20.0982C14.1195 20.2079 14.2088 20.2972 14.3185 20.3531C14.4433 20.4167 14.6067 20.4167 14.9334 20.4167ZM7.93337 24.5H20.0667C22.0269 24.5 23.007 24.5 23.7557 24.1185C24.4142 23.783 24.9497 23.2475 25.2852 22.589C25.6667 21.8403 25.6667 20.8602 25.6667 18.9V13.7667C25.6667 11.8065 25.6667 10.8264 25.2852 10.0777C24.9497 9.41913 24.4142 8.8837 23.7557 8.54814C23.007 8.16667 22.0269 8.16667 20.0667 8.16667H7.93337C5.97319 8.16667 4.9931 8.16667 4.24441 8.54814C3.58584 8.8837 3.05041 9.41913 2.71485 10.0777C2.33337 10.8264 2.33337 11.8065 2.33337 13.7667V18.9C2.33337 20.8602 2.33337 21.8403 2.71485 22.589C3.05041 23.2475 3.58584 23.783 4.24441 24.1185C4.9931 24.5 5.97319 24.5 7.93337 24.5Z" stroke="currentColor" stroke-width="2" stroke-linecap="round" stroke-linejoin="round"/>
</svg>
