<svg width="32" height="32" viewBox="0 0 32 32" fill="none" xmlns="http://www.w3.org/2000/svg">
<rect width="32" height="32" rx="16" fill="white"/>
<path d="M27.2929 28.7071C27.6834 29.0976 28.3166 29.0976 28.7071 28.7071C29.0976 28.3166 29.0976 27.6834 28.7071 27.2929L28 28L27.2929 28.7071ZM27.9293 27.9293L28.6364 27.2222L28.5863 27.172L28.5295 27.1295L27.9293 27.9293ZM26.6378 26.7105L25.7204 27.1083L26.6378 26.7105ZM26.3171 25.9706L27.2345 25.5728L26.3171 25.9706ZM25.7593 25.4677L25.442 26.416L25.7593 25.4677ZM24.9646 25.2018L25.282 24.2535L24.9646 25.2018ZM24.4032 24.7025L25.3159 24.2938L24.4032 24.7025ZM24.0752 23.9699L23.1625 24.3786L24.0752 23.9699ZM23.563 23.4214L24.0265 22.5354L23.563 23.4214ZM23.2148 23.2393L22.7512 24.1253L23.2148 23.2393ZM22.8666 23.0571L23.3302 22.1711L22.8666 23.0571ZM22.243 22.6201L22.9221 21.8861L22.243 22.6201ZM21.692 22.1104L21.0129 22.8444L21.692 22.1104ZM21.1066 21.6352L20.5272 22.4502L21.1066 21.6352ZM20.7966 21.4148L21.376 20.5997L20.7966 21.4148ZM20.4866 21.1945L19.9073 22.0095L20.4866 21.1945ZM20.0653 20.7978L19.2198 21.3318L20.0653 20.7978ZM19.8426 20.4452L20.6881 19.9112L19.8426 20.4452ZM19.7984 20.2017L19.0913 19.4946L19.7984 20.2017ZM19.8657 20.1345L19.569 19.1795L19.3332 19.2527L19.1586 19.4273L19.8657 20.1345ZM20.0708 20.0707L20.3675 21.0257L21.9487 20.5344L20.778 19.3636L20.0708 20.0707ZM20.7072 19.2929C20.3167 18.9024 19.6836 18.9024 19.293 19.2929C18.9025 19.6834 18.9025 20.3166 19.293 20.7071L20.0001 20L20.7072 19.2929ZM22.4788 14.438L21.493 14.2704L22.4788 14.438ZM22.3376 15.168L21.3604 14.9557L22.3376 15.168ZM22.1804 15.8915L23.1576 16.1038L22.1804 15.8915ZM21.973 16.603L22.9114 16.9486L21.973 16.603ZM21.7154 17.3025L20.777 16.9569L21.7154 17.3025ZM21.2955 17.8998L20.6478 17.1379L21.2955 17.8998ZM21.0045 18.1472L20.3567 17.3853L21.0045 18.1472ZM20.7134 18.3946L21.3612 19.1565L20.7134 18.3946ZM20.3475 19.075L19.3621 18.9046L20.3475 19.075ZM20.2726 19.5079L21.258 19.6783L20.2726 19.5079ZM20.1978 19.9408L21.1831 20.1113L20.1978 19.9408ZM19.8217 20.6259L19.1798 19.8591L19.8217 20.6259ZM19.5205 20.8781L18.8786 20.1113L19.5205 20.8781ZM19.2193 21.1302L19.8612 21.897L19.2193 21.1302ZM18.4805 21.3762L18.4948 20.3763L18.4805 21.3762ZM17.6055 21.3637L17.5912 22.3636L17.6055 21.3637ZM16.8618 21.5774L16.2783 20.7653L16.8618 21.5774ZM16.5558 21.7973L17.1393 22.6094L16.5558 21.7973ZM16.2497 22.0172L16.8332 22.8293L16.2497 22.0172ZM15.564 22.1911L15.6844 21.1984L15.564 22.1911ZM15.1844 22.1451L15.064 23.1378L15.1844 22.1451ZM14.8048 22.0991L14.6844 23.0918L14.8048 22.0991ZM14.0648 22.2799L13.5321 21.4336L14.0648 22.2799ZM13.3439 22.7336L12.8112 21.8873L13.3439 22.7336ZM12.6001 22.913L12.4772 23.9055L12.6001 22.913ZM11.8332 22.8181L11.9561 21.8257L11.8332 22.8181ZM11.0862 22.6439L10.757 23.5881L11.0862 22.6439ZM10.7226 22.5171L11.0517 21.5728L10.7226 22.5171ZM10.3589 22.3903L10.0298 23.3346L10.3589 22.3903ZM9.69004 22.0291L9.0809 22.8222L9.69004 22.0291ZM9.38478 21.7946L9.99393 21.0016L9.38478 21.7946ZM9.07953 21.5602L8.47039 22.3533L9.07953 21.5602ZM8.39052 21.215L8.66776 20.2542L8.39052 21.215ZM7.62301 20.9935L7.34577 21.9543L7.62301 20.9935ZM6.91979 20.648L6.32762 21.4538L6.91979 20.648ZM6.60033 20.4133L7.19249 19.6075L6.60033 20.4133ZM6.28086 20.1785L5.6887 20.9843L6.28086 20.1785ZM5.87479 19.5286L4.89587 19.7328L5.87479 19.5286ZM5.70158 18.6983L6.6805 18.4941L5.70158 18.6983ZM5.50543 17.9309L6.46033 17.634L5.50543 17.9309ZM5.39588 17.5786L4.44098 17.8755L5.39588 17.5786ZM5.28634 17.2263L6.24125 16.9294L5.28634 17.2263ZM5.05758 16.5374L6.00018 16.2035L5.05758 16.5374ZM4.93836 16.2008L3.99576 16.5348L4.93836 16.2008ZM4.81914 15.8643L5.76174 15.5304L4.81914 15.8643ZM4.47402 15.1899L3.64275 15.7458L4.47402 15.1899ZM4.24812 14.8521L5.07939 14.2962L4.24812 14.8521ZM4.02222 14.5143L3.19095 15.0702L4.02222 14.5143ZM3.91772 13.801L4.86923 14.1086L3.91772 13.801ZM4.16054 13.0499L3.20904 12.7423L4.16054 13.0499ZM4.43501 10.8339L3.46162 10.6048L4.43501 10.8339ZM4.52076 10.4696L3.54737 10.2405L4.52076 10.4696ZM4.60651 10.1053L5.57991 10.3345L4.60651 10.1053ZM5.66171 8.15717L5.02968 7.38222L5.66171 8.15717ZM6.73809 7.10419L5.87259 6.60329L6.73809 7.10419ZM6.93003 6.77254L7.79553 7.27345L6.93003 6.77254ZM8.92509 5.15007L8.53342 4.22997L8.92509 5.15007ZM9.6126 4.85741L9.22092 3.93731L9.6126 4.85741ZM10.2932 4.51594L10.7945 5.38123L10.2932 4.51594ZM10.967 4.12565L10.4657 3.26035L10.967 4.12565ZM11.6923 3.99219L11.5355 4.97982L11.6923 3.99219ZM12.4693 4.11557L12.6262 3.12794L12.4693 4.11557ZM13.2404 4.05322L12.9319 3.10197L13.2404 4.05322ZM13.6229 3.92917L13.9314 4.88041L13.6229 3.92917ZM14.0055 3.80512L14.3139 4.75636L14.0055 3.80512ZM14.7159 3.95368L15.3552 3.18477L14.7159 3.95368ZM15.3716 4.4989L16.0109 3.72998L15.3716 4.4989ZM16.8006 4.92673L16.9402 3.93652L16.8006 4.92673ZM17.5437 5.07817L17.2874 6.04476L17.5437 5.07817ZM18.2956 5.27758L18.0393 6.24417L18.2956 5.27758ZM18.9925 5.59523L18.4307 6.42249L18.9925 5.59523ZM20.1338 6.6015L19.2417 7.0533L20.1338 6.6015ZM20.4907 7.30634L21.3828 6.85454L20.4907 7.30634ZM21.0069 7.89742L21.5841 7.08081L21.0069 7.89742ZM21.6822 8.37474L22.2594 7.55814L21.6822 8.37474ZM22.1282 8.99452L23.0901 8.72112L22.1282 8.99452ZM22.3448 9.75677L21.3829 10.0302L22.3448 9.75677ZM22.6166 10.5015L21.7045 10.9115L22.6166 10.5015ZM22.78 10.8651L23.6921 10.4552L22.78 10.8651ZM23.0806 12.3869L22.0812 12.3539L23.0806 12.3869ZM22.9575 13.2194L22.5926 12.2883L22.9575 13.2194ZM22.7636 13.2953L23.1285 14.2264L22.7636 13.2953ZM22.6041 13.7016L23.5899 13.8692L22.6041 13.7016ZM28 28L28.7071 27.2929L28.6364 27.2222L27.9293 27.9293L27.2222 28.6364L27.2929 28.7071L28 28ZM27.9293 27.9293L28.5295 27.1295L27.964 26.7051L27.3638 27.5049L26.7635 28.3047L27.329 28.7291L27.9293 27.9293ZM27.3638 27.5049L27.964 26.7051C27.8108 26.59 27.706 26.4942 27.6377 26.4195C27.568 26.3432 27.5528 26.3069 27.5553 26.3127L26.6378 26.7105L25.7204 27.1083C25.9306 27.5932 26.3383 27.9856 26.7635 28.3047L27.3638 27.5049ZM26.6378 26.7105L27.5553 26.3127L27.3949 25.9428L26.4775 26.3406L25.56 26.7384L25.7204 27.1083L26.6378 26.7105ZM26.4775 26.3406L27.3949 25.9428L27.2345 25.5728L26.3171 25.9706L25.3996 26.3684L25.56 26.7384L26.4775 26.3406ZM26.3171 25.9706L27.2345 25.5728C27.0098 25.0545 26.5987 24.6941 26.0767 24.5194L25.7593 25.4677L25.442 26.416C25.4515 26.4192 25.453 26.4207 25.449 26.4184C25.4447 26.4159 25.4369 26.4108 25.4278 26.4026C25.4186 26.3943 25.411 26.3855 25.4055 26.3777C25.4001 26.3701 25.3986 26.3661 25.3996 26.3684L26.3171 25.9706ZM25.7593 25.4677L26.0767 24.5194L25.6793 24.3864L25.362 25.3347L25.0446 26.283L25.442 26.416L25.7593 25.4677ZM25.362 25.3347L25.6793 24.3864L25.282 24.2535L24.9646 25.2018L24.6473 26.1501L25.0446 26.283L25.362 25.3347ZM24.9646 25.2018L25.282 24.2535C25.2716 24.25 25.269 24.2481 25.272 24.2498C25.2752 24.2516 25.2819 24.2559 25.2902 24.2632C25.2985 24.2706 25.3054 24.2785 25.3106 24.2857C25.3156 24.2926 25.3169 24.2961 25.3159 24.2938L24.4032 24.7025L23.4906 25.1112C23.7197 25.623 24.1304 25.9771 24.6473 26.1501L24.9646 25.2018ZM24.4032 24.7025L25.3159 24.2938L25.1519 23.9275L24.2392 24.3362L23.3265 24.7449L23.4906 25.1112L24.4032 24.7025ZM24.2392 24.3362L25.1519 23.9275L24.9878 23.5612L24.0752 23.9699L23.1625 24.3786L23.3265 24.7449L24.2392 24.3362ZM24.0752 23.9699L24.9878 23.5612C24.7888 23.1167 24.4623 22.7634 24.0265 22.5354L23.563 23.4214L23.0994 24.3075C23.1279 24.3224 23.1428 24.3347 23.1625 24.3786L24.0752 23.9699ZM23.563 23.4214L24.0265 22.5354L23.6784 22.3532L23.2148 23.2393L22.7512 24.1253L23.0994 24.3075L23.563 23.4214ZM23.2148 23.2393L23.6784 22.3532L23.3302 22.1711L22.8666 23.0571L22.403 23.9432L22.7512 24.1253L23.2148 23.2393ZM22.8666 23.0571L23.3302 22.1711C23.1726 22.0886 23.0379 21.9932 22.9221 21.8861L22.243 22.6201L21.5639 23.3541C21.8153 23.5868 22.0964 23.7827 22.403 23.9432L22.8666 23.0571ZM22.243 22.6201L22.9221 21.8861L22.6466 21.6312L21.9675 22.3652L21.2884 23.0993L21.5639 23.3541L22.243 22.6201ZM21.9675 22.3652L22.6466 21.6312L22.3712 21.3763L21.692 22.1104L21.0129 22.8444L21.2884 23.0993L21.9675 22.3652ZM21.692 22.1104L22.3712 21.3763C22.1556 21.1769 21.9271 20.9915 21.686 20.8201L21.1066 21.6352L20.5272 22.4502C20.6994 22.5726 20.8612 22.704 21.0129 22.8444L21.692 22.1104ZM21.1066 21.6352L21.686 20.8201L21.376 20.5997L20.7966 21.4148L20.2172 22.2299L20.5272 22.4502L21.1066 21.6352ZM20.7966 21.4148L21.376 20.5997L21.066 20.3794L20.4866 21.1945L19.9073 22.0095L20.2172 22.2299L20.7966 21.4148ZM20.4866 21.1945L21.066 20.3794C20.9891 20.3248 20.9402 20.2838 20.9117 20.257C20.8811 20.2281 20.8894 20.2299 20.9108 20.2638L20.0653 20.7978L19.2198 21.3318C19.3992 21.6159 19.6673 21.839 19.9073 22.0095L20.4866 21.1945ZM20.0653 20.7978L20.9108 20.2638L20.7994 20.0875L19.9539 20.6215L19.1084 21.1555L19.2198 21.3318L20.0653 20.7978ZM19.9539 20.6215L20.7994 20.0875L20.6881 19.9112L19.8426 20.4452L18.9971 20.9792L19.1084 21.1555L19.9539 20.6215ZM19.8426 20.4452L20.6881 19.9112C20.6883 19.9116 20.6981 19.9269 20.7108 19.9553C20.7228 19.9822 20.7454 20.0383 20.7598 20.1179C20.7743 20.1979 20.7845 20.3242 20.7486 20.4745C20.7104 20.6344 20.628 20.7864 20.5056 20.9088L19.7984 20.2017L19.0913 19.4946C18.769 19.8169 18.7456 20.2192 18.7919 20.4745C18.8326 20.6992 18.9319 20.876 18.9971 20.9792L19.8426 20.4452ZM19.7984 20.2017L20.5056 20.9088L20.5728 20.8416L19.8657 20.1345L19.1586 19.4273L19.0913 19.4946L19.7984 20.2017ZM19.8657 20.1345L20.1624 21.0894L20.3675 21.0257L20.0708 20.0707L19.7741 19.1157L19.569 19.1795L19.8657 20.1345ZM20.0708 20.0707L20.778 19.3636L20.7072 19.2929L20.0001 20L19.293 20.7071L19.3637 20.7778L20.0708 20.0707ZM22.5415 14.0698L21.5556 13.9022L21.493 14.2704L22.4788 14.438L23.4647 14.6056L23.5273 14.2374L22.5415 14.0698ZM22.4788 14.438L21.493 14.2704C21.4538 14.5011 21.4096 14.7295 21.3604 14.9557L22.3376 15.168L23.3148 15.3803C23.3705 15.1242 23.4204 14.866 23.4647 14.6056L22.4788 14.438ZM22.3376 15.168L21.3604 14.9557L21.2818 15.3174L22.259 15.5297L23.2362 15.7421L23.3148 15.3803L22.3376 15.168ZM22.259 15.5297L21.2818 15.3174L21.2032 15.6792L22.1804 15.8915L23.1576 16.1038L23.2362 15.7421L22.259 15.5297ZM22.1804 15.8915L21.2032 15.6792C21.1607 15.8747 21.1046 16.0674 21.0346 16.2574L21.973 16.603L22.9114 16.9486C23.0132 16.6723 23.0953 16.3906 23.1576 16.1038L22.1804 15.8915ZM21.973 16.603L21.0346 16.2574L20.9058 16.6072L21.8442 16.9528L22.7826 17.2984L22.9114 16.9486L21.973 16.603ZM21.8442 16.9528L20.9058 16.6072L20.777 16.9569L21.7154 17.3025L22.6538 17.6481L22.7826 17.2984L21.8442 16.9528ZM21.7154 17.3025L20.777 16.9569C20.7521 17.0245 20.7141 17.0815 20.6478 17.1379L21.2955 17.8998L21.9432 18.6616C22.2649 18.3881 22.5069 18.0469 22.6538 17.6481L21.7154 17.3025ZM21.2955 17.8998L20.6478 17.1379L20.3567 17.3853L21.0045 18.1472L21.6522 18.9091L21.9432 18.6616L21.2955 17.8998ZM21.0045 18.1472L20.3567 17.3853L20.0657 17.6328L20.7134 18.3946L21.3612 19.1565L21.6522 18.9091L21.0045 18.1472ZM20.7134 18.3946L20.0657 17.6328C19.667 17.9717 19.4456 18.4219 19.3621 18.9046L20.3475 19.075L21.3329 19.2454C21.342 19.1928 21.3536 19.1687 21.3571 19.1621C21.3598 19.1572 21.3602 19.1574 21.3612 19.1565L20.7134 18.3946ZM20.3475 19.075L19.3621 18.9046L19.2873 19.3375L20.2726 19.5079L21.258 19.6783L21.3329 19.2454L20.3475 19.075ZM20.2726 19.5079L19.2873 19.3375L19.2124 19.7704L20.1978 19.9408L21.1831 20.1113L21.258 19.6783L20.2726 19.5079ZM20.1978 19.9408L19.2124 19.7704C19.204 19.8192 19.193 19.8413 19.1897 19.8474C19.1872 19.852 19.1854 19.8544 19.1798 19.8591L19.8217 20.6259L20.4636 21.3927C20.8675 21.0545 21.098 20.6036 21.1831 20.1113L20.1978 19.9408ZM19.8217 20.6259L19.1798 19.8591L18.8786 20.1113L19.5205 20.8781L20.1624 21.6448L20.4636 21.3927L19.8217 20.6259ZM19.5205 20.8781L18.8786 20.1113L18.5774 20.3635L19.2193 21.1302L19.8612 21.897L20.1624 21.6448L19.5205 20.8781ZM19.2193 21.1302L18.5774 20.3635C18.5739 20.3663 18.5722 20.3673 18.572 20.3674C18.5717 20.3676 18.5708 20.3681 18.5681 20.369C18.5637 20.3705 18.5423 20.3769 18.4948 20.3763L18.4805 21.3762L18.4663 22.3761C18.9683 22.3832 19.4554 22.2367 19.8612 21.897L19.2193 21.1302ZM18.4805 21.3762L18.4948 20.3763L18.0572 20.37L18.043 21.3699L18.0288 22.3698L18.4663 22.3761L18.4805 21.3762ZM18.043 21.3699L18.0572 20.37L17.6197 20.3638L17.6055 21.3637L17.5912 22.3636L18.0288 22.3698L18.043 21.3699ZM17.6055 21.3637L17.6197 20.3638C17.1496 20.3571 16.6833 20.4743 16.2783 20.7653L16.8618 21.5774L17.4454 22.3895C17.4485 22.3873 17.478 22.362 17.5912 22.3636L17.6055 21.3637ZM16.8618 21.5774L16.2783 20.7653L15.9722 20.9852L16.5558 21.7973L17.1393 22.6094L17.4454 22.3895L16.8618 21.5774ZM16.5558 21.7973L15.9722 20.9852L15.6662 21.2052L16.2497 22.0172L16.8332 22.8293L17.1393 22.6094L16.5558 21.7973ZM16.2497 22.0172L15.6662 21.2052C15.6618 21.2083 15.6613 21.2081 15.6646 21.2066C15.6679 21.205 15.6731 21.203 15.6794 21.2014C15.6857 21.1998 15.6905 21.1993 15.6927 21.1991C15.6948 21.199 15.6923 21.1994 15.6844 21.1984L15.564 22.1911L15.4436 23.1839C15.9417 23.2443 16.4222 23.1247 16.8332 22.8293L16.2497 22.0172ZM15.564 22.1911L15.6844 21.1984L15.3048 21.1524L15.1844 22.1451L15.064 23.1378L15.4436 23.1839L15.564 22.1911ZM15.1844 22.1451L15.3048 21.1524L14.9252 21.1064L14.8048 22.0991L14.6844 23.0918L15.064 23.1378L15.1844 22.1451ZM14.8048 22.0991L14.9252 21.1064C14.418 21.0448 13.9433 21.1748 13.5321 21.4336L14.0648 22.2799L14.5975 23.1262C14.6372 23.1012 14.6601 23.0945 14.6674 23.0927C14.6733 23.0913 14.677 23.0909 14.6844 23.0918L14.8048 22.0991ZM14.0648 22.2799L13.5321 21.4336L13.1717 21.6605L13.7043 22.5068L14.237 23.3531L14.5975 23.1262L14.0648 22.2799ZM13.7043 22.5068L13.1717 21.6605L12.8112 21.8873L13.3439 22.7336L13.8766 23.58L14.237 23.3531L13.7043 22.5068ZM13.3439 22.7336L12.8112 21.8873C12.7727 21.9116 12.7504 21.9181 12.7433 21.9198C12.7374 21.9212 12.7326 21.9218 12.7229 21.9206L12.6001 22.913L12.4772 23.9055C12.9854 23.9684 13.4624 23.8406 13.8766 23.58L13.3439 22.7336ZM12.6001 22.913L12.7229 21.9206L12.3395 21.8731L12.2166 22.8656L12.0938 23.858L12.4772 23.9055L12.6001 22.913ZM12.2166 22.8656L12.3395 21.8731L11.9561 21.8257L11.8332 22.8181L11.7104 23.8105L12.0938 23.858L12.2166 22.8656ZM11.8332 22.8181L11.9561 21.8257C11.7706 21.8027 11.5907 21.7607 11.4154 21.6996L11.0862 22.6439L10.757 23.5881C11.0665 23.696 11.3847 23.7702 11.7104 23.8105L11.8332 22.8181ZM11.0862 22.6439L11.4154 21.6996L11.0517 21.5728L10.7226 22.5171L10.3934 23.4614L10.757 23.5881L11.0862 22.6439ZM10.7226 22.5171L11.0517 21.5728L10.6881 21.4461L10.3589 22.3903L10.0298 23.3346L10.3934 23.4614L10.7226 22.5171ZM10.3589 22.3903L10.6881 21.4461C10.5464 21.3967 10.418 21.3273 10.2992 21.236L9.69004 22.0291L9.0809 22.8222C9.3691 23.0435 9.68659 23.215 10.0298 23.3346L10.3589 22.3903ZM9.69004 22.0291L10.2992 21.236L9.99393 21.0016L9.38478 21.7946L8.77564 22.5877L9.0809 22.8222L9.69004 22.0291ZM9.38478 21.7946L9.99393 21.0016L9.68867 20.7671L9.07953 21.5602L8.47039 22.3533L8.77564 22.5877L9.38478 21.7946ZM9.07953 21.5602L9.68867 20.7671C9.38227 20.5318 9.03914 20.3614 8.66776 20.2542L8.39052 21.215L8.11328 22.1758C8.25358 22.2163 8.36979 22.276 8.47039 22.3533L9.07953 21.5602ZM8.39052 21.215L8.66776 20.2542L8.28401 20.1435L8.00677 21.1043L7.72953 22.0651L8.11328 22.1758L8.39052 21.215ZM8.00677 21.1043L8.28401 20.1435L7.90025 20.0327L7.62301 20.9935L7.34577 21.9543L7.72953 22.0651L8.00677 21.1043ZM7.62301 20.9935L7.90025 20.0327C7.75684 19.9913 7.62919 19.9284 7.51196 19.8422L6.91979 20.648L6.32762 21.4538C6.63634 21.6807 6.97751 21.8481 7.34577 21.9543L7.62301 20.9935ZM6.91979 20.648L7.51196 19.8422L7.19249 19.6075L6.60033 20.4133L6.00816 21.2191L6.32762 21.4538L6.91979 20.648ZM6.60033 20.4133L7.19249 19.6075L6.87303 19.3727L6.28086 20.1785L5.6887 20.9843L6.00816 21.2191L6.60033 20.4133ZM6.28086 20.1785L6.87303 19.3727C6.86802 19.369 6.8664 19.3672 6.86667 19.3675C6.86672 19.3675 6.86694 19.3678 6.86724 19.3681C6.86753 19.3685 6.86768 19.3688 6.86768 19.3688C6.86767 19.3687 6.86734 19.3682 6.86673 19.367C6.86612 19.3658 6.86513 19.3637 6.86387 19.3604C6.86139 19.3541 6.85751 19.3425 6.85371 19.3244L5.87479 19.5286L4.89587 19.7328C5.00014 20.2326 5.26247 20.6711 5.6887 20.9843L6.28086 20.1785ZM5.87479 19.5286L6.85371 19.3244L6.76711 18.9092L5.78818 19.1135L4.80926 19.3177L4.89587 19.7328L5.87479 19.5286ZM5.78818 19.1135L6.76711 18.9092L6.6805 18.4941L5.70158 18.6983L4.72265 18.9026L4.80926 19.3177L5.78818 19.1135ZM5.70158 18.6983L6.6805 18.4941C6.61718 18.1906 6.54412 17.9035 6.46033 17.634L5.50543 17.9309L4.55052 18.2278C4.61279 18.4281 4.6705 18.6526 4.72265 18.9026L5.70158 18.6983ZM5.50543 17.9309L6.46033 17.634L6.35079 17.2817L5.39588 17.5786L4.44098 17.8755L4.55052 18.2278L5.50543 17.9309ZM5.39588 17.5786L6.35079 17.2817L6.24125 16.9294L5.28634 17.2263L4.33143 17.5232L4.44098 17.8755L5.39588 17.5786ZM5.28634 17.2263L6.24125 16.9294C6.16449 16.6825 6.08415 16.4405 6.00018 16.2035L5.05758 16.5374L4.11498 16.8713C4.18997 17.083 4.26214 17.3003 4.33143 17.5232L5.28634 17.2263ZM5.05758 16.5374L6.00018 16.2035L5.88096 15.8669L4.93836 16.2008L3.99576 16.5348L4.11498 16.8713L5.05758 16.5374ZM4.93836 16.2008L5.88096 15.8669L5.76174 15.5304L4.81914 15.8643L3.87654 16.1982L3.99576 16.5348L4.93836 16.2008ZM4.81914 15.8643L5.76174 15.5304C5.65101 15.2178 5.49584 14.919 5.30529 14.6341L4.47402 15.1899L3.64275 15.7458C3.7534 15.9113 3.82831 16.0621 3.87654 16.1982L4.81914 15.8643ZM4.47402 15.1899L5.30529 14.6341L5.07939 14.2962L4.24812 14.8521L3.41685 15.408L3.64275 15.7458L4.47402 15.1899ZM4.24812 14.8521L5.07939 14.2962L4.85349 13.9584L4.02222 14.5143L3.19095 15.0702L3.41685 15.408L4.24812 14.8521ZM4.02222 14.5143L4.85349 13.9584C4.85021 13.9535 4.86586 13.9762 4.87258 14.0221C4.87945 14.069 4.8714 14.1019 4.86923 14.1086L3.91772 13.801L2.96622 13.4933C2.78796 14.0447 2.87619 14.5995 3.19095 15.0702L4.02222 14.5143ZM3.91772 13.801L4.86923 14.1086L4.99063 13.7331L4.03913 13.4255L3.08763 13.1178L2.96622 13.4933L3.91772 13.801ZM4.03913 13.4255L4.99063 13.7331L5.11204 13.3576L4.16054 13.0499L3.20904 12.7423L3.08763 13.1178L4.03913 13.4255ZM4.16054 13.0499L5.11204 13.3576C5.21855 13.0282 5.28219 12.6919 5.29774 12.3509L4.29878 12.3054L3.29982 12.2598C3.29293 12.4109 3.2644 12.5711 3.20904 12.7423L4.16054 13.0499ZM4.29878 12.3054L5.29774 12.3509L5.31457 11.9819L4.31561 11.9363L3.31664 11.8908L3.29982 12.2598L4.29878 12.3054ZM4.31561 11.9363L5.31457 11.9819L5.3314 11.6128L4.33243 11.5672L3.33347 11.5217L3.31664 11.8908L4.31561 11.9363ZM4.33243 11.5672L5.3314 11.6128C5.33976 11.4294 5.36524 11.2464 5.40841 11.063L4.43501 10.8339L3.46162 10.6048C3.39045 10.9071 3.34755 11.213 3.33347 11.5217L4.33243 11.5672ZM4.43501 10.8339L5.40841 11.063L5.49416 10.6988L4.52076 10.4696L3.54737 10.2405L3.46162 10.6048L4.43501 10.8339ZM4.52076 10.4696L5.49416 10.6988L5.57991 10.3345L4.60651 10.1053L3.63312 9.87621L3.54737 10.2405L4.52076 10.4696ZM4.60651 10.1053L5.57991 10.3345C5.61909 10.168 5.67705 10.0083 5.75457 9.85396L4.86092 9.40521L3.96726 8.95645C3.81991 9.2499 3.70827 9.55696 3.63312 9.87621L4.60651 10.1053ZM4.86092 9.40521L5.75457 9.85396L5.92323 9.5181L5.02957 9.06934L4.13592 8.62059L3.96726 8.95645L4.86092 9.40521ZM5.02957 9.06934L5.92323 9.5181L6.09189 9.18224L5.19823 8.73348L4.30458 8.28472L4.13592 8.62059L5.02957 9.06934ZM5.19823 8.73348L6.09189 9.18224C6.14028 9.08586 6.20503 9.00446 6.29373 8.93212L5.66171 8.15717L5.02968 7.38222C4.72529 7.63047 4.48106 7.93328 4.30458 8.28472L5.19823 8.73348ZM5.66171 8.15717L6.29373 8.93212L6.58855 8.69167L5.95652 7.91673L5.3245 7.14178L5.02968 7.38222L5.66171 8.15717ZM5.95652 7.91673L6.58855 8.69167L6.88337 8.45123L6.25134 7.67628L5.61931 6.90133L5.3245 7.14178L5.95652 7.91673ZM6.25134 7.67628L6.88337 8.45123C7.17437 8.2139 7.41548 7.93014 7.6036 7.60509L6.73809 7.10419L5.87259 6.60329C5.80479 6.72044 5.7214 6.81807 5.61931 6.90133L6.25134 7.67628ZM6.73809 7.10419L7.6036 7.60509L7.79553 7.27345L6.93003 6.77254L6.06453 6.27164L5.87259 6.60329L6.73809 7.10419ZM6.93003 6.77254L7.79553 7.27345L7.98747 6.9418L7.12197 6.4409L6.25646 5.94L6.06453 6.27164L6.93003 6.77254ZM7.12197 6.4409L7.98747 6.9418C8.03708 6.85608 8.09602 6.79564 8.17061 6.7478L7.63076 5.90604L7.09091 5.06428C6.74303 5.28739 6.46277 5.58353 6.25646 5.94L7.12197 6.4409ZM7.63076 5.90604L8.17061 6.7478L8.48747 6.54459L7.94762 5.70283L7.40777 4.86107L7.09091 5.06428L7.63076 5.90604ZM7.94762 5.70283L8.48747 6.54459L8.80433 6.34138L8.26448 5.49962L7.72463 4.65786L7.40777 4.86107L7.94762 5.70283ZM8.26448 5.49962L8.80433 6.34138C8.96881 6.23589 9.13948 6.14564 9.31676 6.07018L8.92509 5.15007L8.53342 4.22997C8.25236 4.34961 7.98262 4.49239 7.72463 4.65786L8.26448 5.49962ZM8.92509 5.15007L9.31676 6.07018L9.66052 5.92385L9.26884 5.00374L8.87717 4.08364L8.53342 4.22997L8.92509 5.15007ZM9.26884 5.00374L9.66052 5.92385L10.0043 5.77752L9.6126 4.85741L9.22092 3.93731L8.87717 4.08364L9.26884 5.00374ZM9.6126 4.85741L10.0043 5.77752C10.2726 5.6633 10.536 5.53097 10.7945 5.38123L10.2932 4.51594L9.79196 3.65064C9.60128 3.7611 9.41094 3.85642 9.22092 3.93731L9.6126 4.85741ZM10.2932 4.51594L10.7945 5.38123L11.1313 5.18609L10.6301 4.32079L10.1288 3.45549L9.79196 3.65064L10.2932 4.51594ZM10.6301 4.32079L11.1313 5.18609L11.4682 4.99094L10.967 4.12565L10.4657 3.26035L10.1288 3.45549L10.6301 4.32079ZM10.967 4.12565L11.4682 4.99094C11.4869 4.98014 11.4957 4.97857 11.4977 4.9782C11.4998 4.97781 11.5105 4.97585 11.5355 4.97982L11.6923 3.99219L11.8492 3.00456C11.3658 2.92782 10.8913 3.01379 10.4657 3.26035L10.967 4.12565ZM11.6923 3.99219L11.5355 4.97982L11.924 5.04151L12.0808 4.05388L12.2377 3.06625L11.8492 3.00456L11.6923 3.99219ZM12.0808 4.05388L11.924 5.04151L12.3125 5.1032L12.4693 4.11557L12.6262 3.12794L12.2377 3.06625L12.0808 4.05388ZM12.4693 4.11557L12.3125 5.1032C12.7309 5.16963 13.1472 5.13468 13.5488 5.00446L13.2404 4.05322L12.9319 3.10197C12.8235 3.13714 12.7258 3.14377 12.6262 3.12794L12.4693 4.11557ZM13.2404 4.05322L13.5488 5.00446L13.9314 4.88041L13.6229 3.92917L13.3145 2.97793L12.9319 3.10197L13.2404 4.05322ZM13.6229 3.92917L13.9314 4.88041L14.3139 4.75636L14.0055 3.80512L13.697 2.85388L13.3145 2.97793L13.6229 3.92917ZM14.0055 3.80512L14.3139 4.75636C14.2941 4.7628 14.2398 4.77372 14.1697 4.75907C14.1024 4.745 14.0708 4.71787 14.0765 4.7226L14.7159 3.95368L15.3552 3.18477C14.892 2.79963 14.3013 2.65793 13.697 2.85388L14.0055 3.80512ZM14.7159 3.95368L14.0765 4.7226L14.4044 4.99521L15.0437 4.22629L15.6831 3.45737L15.3552 3.18477L14.7159 3.95368ZM15.0437 4.22629L14.4044 4.99521L14.7322 5.26781L15.3716 4.4989L16.0109 3.72998L15.6831 3.45737L15.0437 4.22629ZM15.3716 4.4989L14.7322 5.26781C15.0717 5.55009 15.472 5.74933 15.9269 5.81345L16.0665 4.82324L16.2061 3.83303C16.1716 3.82817 16.1086 3.81117 16.0109 3.72998L15.3716 4.4989ZM16.0665 4.82324L15.9269 5.81345L16.294 5.8652L16.4336 4.87498L16.5731 3.88477L16.2061 3.83303L16.0665 4.82324ZM16.4336 4.87498L16.294 5.8652L16.6611 5.91694L16.8006 4.92673L16.9402 3.93652L16.5731 3.88477L16.4336 4.87498ZM16.8006 4.92673L16.6611 5.91694C16.8645 5.94562 17.0732 5.98798 17.2874 6.04476L17.5437 5.07817L17.8 4.11158C17.5128 4.03542 17.2261 3.97682 16.9402 3.93652L16.8006 4.92673ZM17.5437 5.07817L17.2874 6.04476L17.6633 6.14447L17.9197 5.17787L18.176 4.21128L17.8 4.11158L17.5437 5.07817ZM17.9197 5.17787L17.6633 6.14447L18.0393 6.24417L18.2956 5.27758L18.552 4.31099L18.176 4.21128L17.9197 5.17787ZM18.2956 5.27758L18.0393 6.24417C18.1813 6.28182 18.3103 6.34069 18.4307 6.42249L18.9925 5.59523L19.5544 4.76798C19.2469 4.55917 18.9113 4.40627 18.552 4.31099L18.2956 5.27758ZM18.9925 5.59523L18.4307 6.42249L18.7516 6.64044L19.3135 5.81318L19.8753 4.98593L19.5544 4.76798L18.9925 5.59523ZM19.3135 5.81318L18.7516 6.64044L19.0726 6.85839L19.6344 6.03113L20.1962 5.20388L19.8753 4.98593L19.3135 5.81318ZM19.6344 6.03113L19.0726 6.85839C19.1437 6.90673 19.1977 6.96657 19.2417 7.0533L20.1338 6.6015L21.0259 6.1497C20.8319 5.76654 20.5529 5.44614 20.1962 5.20388L19.6344 6.03113ZM20.1338 6.6015L19.2417 7.0533L19.4201 7.40572L20.3123 6.95392L21.2044 6.50212L21.0259 6.1497L20.1338 6.6015ZM20.3123 6.95392L19.4201 7.40572L19.5986 7.75814L20.4907 7.30634L21.3828 6.85454L21.2044 6.50212L20.3123 6.95392ZM20.4907 7.30634L19.5986 7.75814C19.7947 8.14541 20.0778 8.46535 20.4297 8.71402L21.0069 7.89742L21.5841 7.08081C21.4857 7.01127 21.4247 6.93716 21.3828 6.85454L20.4907 7.30634ZM21.0069 7.89742L20.4297 8.71402L20.7673 8.95269L21.3445 8.13608L21.9217 7.31947L21.5841 7.08081L21.0069 7.89742ZM21.3445 8.13608L20.7673 8.95269L21.105 9.19135L21.6822 8.37474L22.2594 7.55814L21.9217 7.31947L21.3445 8.13608ZM21.6822 8.37474L21.105 9.19135C21.1524 9.22484 21.1594 9.24366 21.1663 9.26793L22.1282 8.99452L23.0901 8.72112C22.9525 8.23723 22.6622 7.84286 22.2594 7.55814L21.6822 8.37474ZM22.1282 8.99452L21.1663 9.26793L21.2746 9.64905L22.2365 9.37565L23.1984 9.10224L23.0901 8.72112L22.1282 8.99452ZM22.2365 9.37565L21.2746 9.64905L21.3829 10.0302L22.3448 9.75677L23.3067 9.48336L23.1984 9.10224L22.2365 9.37565ZM22.3448 9.75677L21.3829 10.0302C21.4685 10.3312 21.5757 10.6251 21.7045 10.9115L22.6166 10.5015L23.5287 10.0916C23.4395 9.89313 23.3656 9.6905 23.3067 9.48336L22.3448 9.75677ZM22.6166 10.5015L21.7045 10.9115L21.8679 11.2751L22.78 10.8651L23.6921 10.4552L23.5287 10.0916L22.6166 10.5015ZM22.78 10.8651L21.8679 11.2751L22.0313 11.6387L22.9434 11.2288L23.8555 10.8188L23.6921 10.4552L22.78 10.8651ZM22.9434 11.2288L22.0313 11.6387C22.078 11.7425 22.098 11.8447 22.0943 11.9567L23.0937 11.9896L24.0932 12.0226C24.107 11.6049 24.0268 11.1999 23.8555 10.8188L22.9434 11.2288ZM23.0937 11.9896L22.0943 11.9567L22.0812 12.3539L23.0806 12.3869L24.0801 12.4199L24.0932 12.0226L23.0937 11.9896ZM23.0806 12.3869L22.0812 12.3539L22.0681 12.7512L23.0675 12.7841L24.067 12.8171L24.0801 12.4199L23.0806 12.3869ZM23.0675 12.7841L22.0681 12.7512C22.0646 12.8577 22.0563 12.8769 22.064 12.8464C22.0677 12.8317 22.0863 12.7592 22.1412 12.6669C22.1948 12.5767 22.3295 12.3914 22.5926 12.2883L22.9575 13.2194L23.3223 14.1504C23.6178 14.0347 23.7813 13.8218 23.8603 13.6889C23.9405 13.5541 23.9809 13.424 24.003 13.3367C24.0473 13.1612 24.0618 12.9754 24.067 12.8171L23.0675 12.7841ZM22.9575 13.2194L22.5926 12.2883L22.4957 12.3263L22.8605 13.2574L23.2254 14.1884L23.3223 14.1504L22.9575 13.2194ZM22.8605 13.2574L22.4957 12.3263L22.3988 12.3643L22.7636 13.2953L23.1285 14.2264L23.2254 14.1884L22.8605 13.2574ZM22.7636 13.2953L22.3988 12.3643C22.1451 12.4637 21.9912 12.6341 21.9107 12.7438C21.8276 12.8573 21.7762 12.9695 21.7445 13.0503C21.6812 13.2113 21.6437 13.384 21.6182 13.534L22.6041 13.7016L23.5899 13.8692C23.6062 13.7736 23.6161 13.7559 23.606 13.7815C23.6009 13.7946 23.5776 13.8528 23.5238 13.9261C23.4728 13.9957 23.3498 14.1397 23.1285 14.2264L22.7636 13.2953ZM22.6041 13.7016L21.6182 13.534L21.5556 13.9022L22.5415 14.0698L23.5273 14.2374L23.5899 13.8692L22.6041 13.7016Z" fill="currentColor"/>
</svg>
