<svg width="32" height="32" viewBox="0 0 32 32" fill="none" xmlns="http://www.w3.org/2000/svg">
<path d="M27.7218 16.8099C28.0473 16.5309 28.2101 16.3914 28.2697 16.2254C28.322 16.0797 28.322 15.9203 28.2697 15.7746C28.2101 15.6086 28.0473 15.4691 27.7218 15.1901L16.4275 5.50932C15.8672 5.02906 15.5871 4.78893 15.3499 4.78304C15.1437 4.77793 14.9468 4.86849 14.8166 5.02833C14.6667 5.21224 14.6667 5.58123 14.6667 6.31919V12.0462C11.8204 12.5441 9.21546 13.9864 7.27961 16.1518C5.1691 18.5127 4.00165 21.5679 4 24.7346V25.5506C5.39912 23.8652 7.14601 22.502 9.12101 21.5546C10.8623 20.7193 12.7446 20.2244 14.6667 20.0941V25.6809C14.6667 26.4188 14.6667 26.7878 14.8166 26.9717C14.9468 27.1316 15.1437 27.2221 15.3499 27.217C15.5871 27.2111 15.8672 26.971 16.4275 26.4907L27.7218 16.8099Z" stroke="#3A5EBB" stroke-width="2" stroke-linecap="round" stroke-linejoin="round"/>
</svg>
